SplineFontDB: 3.0
FontName: LinLibertineSlantedOB
FullName: Linux Libertine Slanted O Bold
FamilyName: Linux Libertine Slanted O
Weight: Bold
Copyright: Linux Libertine by Philipp H. Poll,\nOpen Font under Terms of following Free Software Licenses:\nGPL (General Public License) with font-exception and OFL (Open Font License).\nCreated with FontForge (http://fontforge.sf.net)\nSept 2003, 2004, 2005, 2006, 2007, 2008, 2009, 2010, 2011
UComments: "2003-08-29: Created.+AAoA-2004-07-25: v(1.0) release candidate+AAoA-2005-12-28: v(1.1.0) stable+AAoA-2006-01-01: v(2.0.0) stable+AAoA-2006-09-05: v(2.2.0) stable+AAoA-2006-12-04: v(2.3.0) stable+AAoA-2007-03-11: v(2.4.0) stable+AAoA-2007-06-11: v(2.6.0) stable+AAoA-2007-12-00: v(2.7.0) stable+AAoA-2008-06-00: v(2.8.14) stable+AAoA" 
Version: 4.9.6
ItalicAngle: 0
UnderlinePosition: -98
UnderlineWidth: 40
Ascent: 754
Descent: 246
LayerCount: 2
Layer: 0 0 "Back"  1
Layer: 1 0 "Fore"  0
NeedsXUIDChange: 1
XUID: [1021 993 1524925707 4740893]
FSType: 0
OS2Version: 0
OS2_WeightWidthSlopeOnly: 0
OS2_UseTypoMetrics: 0
CreationTime: 1156455862
ModificationTime: 1304020757
PfmFamily: 17
TTFWeight: 700
TTFWidth: 5
LineGap: 0
VLineGap: 0
OS2TypoAscent: 894
OS2TypoAOffset: 0
OS2TypoDescent: -246
OS2TypoDOffset: 0
OS2TypoLinegap: 0
OS2WinAscent: 894
OS2WinAOffset: 0
OS2WinDescent: 246
OS2WinDOffset: 0
HheadAscent: 894
HheadAOffset: 0
HheadDescent: -246
HheadDOffset: 0
OS2FamilyClass: 261
OS2Vendor: 'PfEd'
Lookup: 3 0 0 "'aalt' Alle Alternativen zeigen"  {"LinLibertine-'aalt' Alle Alternativen zeigen 1"  } ['aalt' ('DFLT' <'dflt' > 'cyrl' <'dflt' > 'grek' <'dflt' > 'latn' <'AZE ' 'CRT ' 'DEU ' 'MOL ' 'ROM ' 'TRK ' 'dflt' > ) ]
Lookup: 1 0 0 "'locl' Localized Forms Romaenisch"  {"'locl' Localized Forms Romaenisch 1"  } ['locl' ('latn' <'MOL ' 'ROM ' > ) ]

StartChar: exclam
Encoding: 33 33 0
Width: 266
Flags: HW
HStem: -10 139<82 185> 638 20G<117.5 151.5>
VStem: 60 146<11.9591 106.904> 61 144<431.981 638.446> 103 58<188.926 423.897>
LayerCount: 2
Fore
SplineSet
272.862304688 658 m 0
 309.862304688 658 339.760742188 634 328.920898438 583 c 0
 321.481445312 548 305.404296875 510 292.389648438 477 c 0
 255.280273438 379.099609375 221.303710938 279 209.887695312 230 c 0
 205.44921875 211 196.060546875 188 172.9609375 188 c 0
 146.860351562 188 148.211914062 208 154.438476562 242 c 0
 163.177734375 289.700195312 174.86328125 409.599609375 177.02734375 480 c 0
 177.466796875 515 176.630859375 544 184.920898438 583 c 0
 196.823242188 639 241.862304688 658 272.862304688 658 c 0
72.328125 58 m 0
 80.6181640625 97 121.419921875 129 161.419921875 129 c 0
 201.419921875 129 227.04296875 99 218.752929688 60 c 0
 210.67578125 22 169.874023438 -10 129.874023438 -10 c 0
 89.8740234375 -10 64.2509765625 20 72.328125 58 c 0
EndSplineSet
EndChar

StartChar: quotedbl
Encoding: 34 34 1
Width: 376
Flags: HW
HStem: 421 224
VStem: 63 110<498.128 631.224> 204 110<498.128 631.224>
LayerCount: 2
Fore
SplineSet
197.360351562 411 m 1
 183.2109375 415 l 1
 183.2109375 415 187.345703125 585 188.62109375 591 c 0
 193.509765625 614 222.098632812 645 265.098632812 645 c 0
 307.098632812 645 306.060546875 626 302.234375 608 c 0
 299.045898438 593 224.635742188 417 224.635742188 417 c 1
 197.360351562 411 l 1
338.360351562 411 m 1
 324.2109375 415 l 1
 324.2109375 415 328.345703125 585 329.62109375 591 c 0
 334.509765625 614 363.098632812 645 406.098632812 645 c 0
 448.098632812 645 447.060546875 626 443.234375 608 c 0
 440.045898438 593 365.635742188 417 365.635742188 417 c 1
 338.360351562 411 l 1
EndSplineSet
EndChar

StartChar: numbersign
Encoding: 35 35 2
Width: 514
Flags: HW
HStem: 187 66<37.5 127.5 192.5 280.5 341.5 451.5> 360 66<63.5 154.5 218.5 305.5 368.5 476.5> 579 20G<187.5 248.5 338.5 395.5>
DStem2: 99.5 14 154.5 14 0.158649 0.987335<8.72568 175.251 250.727 350.344 425.661 592.345> 251.5 14 304.5 14 0.155356 0.987859<8.23384 175.405 250.08 350.188 425.174 592.19>
LayerCount: 2
Fore
SplineSet
342.276367188 253 m 1
 382.020507812 360 l 1
 288.020507812 360 l 1
 274.15625 323 260.141601562 290 246.276367188 253 c 1
 342.276367188 253 l 1
435.020507812 360 m 1
 395.276367188 253 l 1
 513.276367188 253 l 1
 491.248046875 187 l 1
 372.248046875 187 l 1
 349.495117188 127 329.803710938 72 307.475585938 14 c 1
 254.475585938 14 l 1
 320.248046875 187 l 1
 224.248046875 187 l 1
 200.495117188 127 180.803710938 72 157.475585938 14 c 1
 102.475585938 14 l 1
 167.248046875 187 l 1
 68.248046875 187 l 1
 91.2763671875 253 l 1
 191.276367188 253 l 1
 205.141601562 290 218.15625 323 231.020507812 360 c 1
 131.020507812 360 l 1
 154.048828125 426 l 1
 254.048828125 426 l 1
 276.376953125 484 297.493164062 541 319.821289062 599 c 1
 375.821289062 599 l 1
 309.048828125 426 l 1
 406.048828125 426 l 1
 428.376953125 484 448.493164062 541 470.821289062 599 c 1
 522.821289062 599 l 1
 459.048828125 426 l 1
 576.048828125 426 l 1
 553.020507812 360 l 1
 435.020507812 360 l 1
EndSplineSet
EndChar

StartChar: dollar
Encoding: 36 36 3
Width: 514
VWidth: 999
Flags: HMW
HStem: -8.9 40<267.328 318.701> 571.6 38.3<210.186 256.33 299.058 326.376>
VStem: 66 116<434.9 521.737> 350 117<91.8754 195>
DStem2: 219.555 -98.2666 260.5 -93.25 0.0548206 0.998496<3.21001 89.8972 131.799 317.025 491.345 669.301 710.014 792.677>
LayerCount: 2
Fore
SplineSet
329.885742188 392.299804688 m 1
 377.796875 571.599609375 l 1
 334.647460938 567.599609375 296.227539062 537.400390625 285.940429688 489 c 0
 278.3515625 453.299804688 302.963867188 417.599609375 329.885742188 392.299804688 c 1
323.43359375 216.099609375 m 1
 273.91015625 31.099609375 l 1
 322.96484375 37 364.049804688 66.099609375 372.743164062 107 c 0
 382.393554688 152.400390625 354.91796875 187.799804688 323.43359375 216.099609375 c 1
547.345703125 585 m 1
 541.8671875 531 537.790039062 493 527.375 444 c 1
 515.674804688 436 492.461914062 435 480.3125 439 c 1
 476.829101562 491.299804688 469.24609375 551.599609375 417.489257812 567.799804688 c 1
 363.559570312 366.299804688 l 1
 367.370117188 364 l 2
 399.310546875 344.900390625 450.380859375 317 477.877929688 277 c 0
 498.501953125 247 513.549804688 219 503.34765625 171 c 0
 491.231445312 114 451.799804688 70.099609375 412.71484375 41 c 0
 368.985351562 8.400390625 317.841796875 -7.7998046875 263.208007812 -8.900390625 c 1
 240.689453125 -93.2001953125 l 1
 232.497070312 -97.400390625 208.706054688 -98.2998046875 198.706054688 -98.2998046875 c 1
 222.693359375 -8.5 l 1
 128.91015625 -5.599609375 125.61328125 9 77.9130859375 9 c 1
 75.1396484375 43 77.5556640625 92 92.4345703125 162 c 1
 108.284179688 166 124.34765625 171 139.072265625 165 c 1
 140.063476562 91.099609375 181.375976562 42.7001953125 233.543945312 32.2001953125 c 1
 289.702148438 242.299804688 l 1
 252.116210938 267.299804688 196.114257812 297.400390625 170.33203125 345 c 0
 155.283203125 373 153.998046875 414 161.650390625 450 c 0
 171.215820312 495 205.35546875 538 246.306640625 566 c 0
 288.849609375 594.900390625 346.3984375 608.299804688 388.038085938 609.900390625 c 1
 409.357421875 689.5 l 1
 419.301757812 693 438.620117188 694.5 451.420898438 694.5 c 1
 428.546875 609 l 1
 487.5390625 605.200195312 504.62109375 591 547.345703125 585 c 1
EndSplineSet
EndChar

StartChar: percent
Encoding: 37 37 4
Width: 637
VWidth: 999
Flags: HW
HStem: -19 39<464.6 519.99> 214 36<494.292 553.315> 297 39<145.6 200.99> 474 45<285.497 457.718> 530 36<175.292 234.315>
VStem: 51 93<336.471 492.517> 243 42<385.167 510.902> 370 93<20.4706 176.517> 562 42<69.1669 208.803>
DStem2: 96 -4 150 -16 0.588938 0.808178<22.1045 620.449 651.051 709.262>
LayerCount: 2
Fore
SplineSet
474.265625 53 m 0
 471.438476562 39.7001953125 470.250976562 20 487.250976562 20 c 0
 507.951171875 20 531.201171875 36.7001953125 549.752929688 60 c 0
 572.389648438 88.400390625 588.952148438 126.799804688 595.37109375 157 c 0
 606.424804688 209 582.487304688 214 568.487304688 214 c 0
 548.586914062 214 525.447265625 191.700195312 509.434570312 162 c 0
 490.943359375 127.700195312 480.76953125 83.599609375 474.265625 53 c 0
389.342773438 91 m 0
 406.34765625 171 476.138671875 250 565.138671875 250 c 0
 613.138671875 250 653.100585938 231 637.796875 159 c 0
 616.752929688 60 545.9609375 -19 466.9609375 -19 c 0
 434.661132812 -19 407.467773438 -10.5 395.337890625 11 c 0
 385.1640625 29 381.478515625 54 389.342773438 91 c 0
222.43359375 369 m 0
 219.606445312 355.700195312 218.418945312 336 235.418945312 336 c 0
 256.119140625 336 279.369140625 352.700195312 297.920898438 376 c 0
 320.557617188 404.400390625 337.120117188 442.799804688 343.5390625 473 c 0
 354.591796875 525 330.655273438 530 316.655273438 530 c 0
 296.754882812 530 273.615234375 507.700195312 257.6015625 478 c 0
 239.111328125 443.700195312 228.9375 399.599609375 222.43359375 369 c 0
137.510742188 407 m 0
 154.514648438 487 224.306640625 566 313.306640625 566 c 0
 339.306640625 566 362.916992188 560.400390625 376.709960938 543.900390625 c 1
 418.190429688 542.400390625 456.916992188 519 474.31640625 519 c 0
 516.31640625 519 584.591796875 525 634.944335938 569 c 1
 677.481445312 548 l 1
 146.598632812 -16 l 1
 95.1494140625 -4 l 1
 567.640625 497 l 1
 525.239257812 481 484.751953125 474 454.751953125 474 c 0
 433.251953125 474 405.901367188 482.700195312 388.748046875 492.799804688 c 1
 388.279296875 487.299804688 387.303710938 481.299804688 385.96484375 475 c 0
 364.920898438 376 294.12890625 297 215.12890625 297 c 0
 182.829101562 297 155.635742188 305.5 143.505859375 327 c 0
 133.33203125 345 129.645507812 370 137.510742188 407 c 0
EndSplineSet
EndChar

StartChar: parenleft
Encoding: 40 40 5
Width: 315
Flags: HW
HStem: -213 21G<154.5 286.75>
VStem: 36 115<108.014 396.52>
LayerCount: 2
Fore
SplineSet
89.7763671875 253 m 0
 128.461914062 435 268.021484375 607 423.041015625 720 c 1
 443.813476562 686 l 1
 406.374023438 651 260.891601562 517 204.776367188 253 c 0
 148.662109375 -11 235.1796875 -145 259.52734375 -181 c 1
 222.725585938 -213 l 1
 37.38671875 -17 80.2119140625 208 89.7763671875 253 c 0
EndSplineSet
Substitution2: "LinLibertine-'case' Versalformen 1" parenleft.sc
Substitution2: "LinLibertine-'c2sc' Versale nach Kapitaelchen 1" parenleft.sc
Substitution2: "LinLibertine-'sinf' Wissenschaftliche Indices 1" parenleft.inferior
Substitution2: "LinLibertine-'sups' Hochgestellte 1" parenleft.superior
AlternateSubs2: "LinLibertine-'aalt' Alle Alternativen zeigen 1" parenleft.sc
EndChar

StartChar: parenright
Encoding: 41 41 6
Width: 315
VWidth: 999
Flags: HW
HStem: 696 21<28.25 160.5>
VStem: 164 115<107.48 395.986>
LayerCount: 2
Fore
SplineSet
332.3515625 251 m 0
 293.666015625 69 154.106445312 -103 -0.912109375 -216 c 1
 -21.685546875 -182 l 1
 15.75390625 -147 161.236328125 -13 217.3515625 251 c 0
 273.466796875 515 186.94921875 649 162.6015625 685 c 1
 199.403320312 717 l 1
 384.7421875 521 341.916992188 296 332.3515625 251 c 0
EndSplineSet
Substitution2: "LinLibertine-'case' Versalformen 1" parenright.sc
Substitution2: "LinLibertine-'c2sc' Versale nach Kapitaelchen 1" parenright.sc
Substitution2: "LinLibertine-'sinf' Wissenschaftliche Indices 1" parenright.inferior
Substitution2: "LinLibertine-'sups' Hochgestellte 1" parenright.superior
AlternateSubs2: "LinLibertine-'aalt' Alle Alternativen zeigen 1" parenright.sc
EndChar

StartChar: asterisk
Encoding: 42 42 7
Width: 433
VWidth: 999
Flags: HW
HStem: 571 69<77.0607 155.725 271.439 350.068>
VStem: 114 99<486.481 523.5> 173 78<621.002 713.184>
LayerCount: 2
Fore
SplineSet
317.306640625 566 m 1
 304.732421875 568 292.794921875 573 277.370117188 571 c 0
 230.668945312 563 194.668945312 563 204.234375 608 c 0
 207.209960938 622 220.036132812 640 244.036132812 640 c 0
 278.036132812 640 288.021484375 607 327.983398438 588 c 1
 332.485351562 628 311.799804688 653 317.326171875 679 c 0
 321.790039062 700 345.615234375 718 363.615234375 718 c 0
 381.615234375 718 401.27734375 707 396.17578125 683 c 0
 390.4375 656 359.360351562 618 350.983398438 588 c 1
 400.021484375 607 418.4609375 642 451.4609375 642 c 0
 482.4609375 642 485.360351562 618 483.234375 608 c 0
 476.857421875 578 440.732421875 568 405.732421875 568 c 0
 386.732421875 568 369.732421875 568 351.094726562 565 c 1
 377.442382812 529 428.8671875 531 418.02734375 480 c 0
 414.201171875 462 393.86328125 451 379.86328125 451 c 0
 330.86328125 451 347.041992188 513 330.331054688 552 c 1
 295.766601562 507 297.86328125 451 238.86328125 451 c 0
 221.86328125 451 212.625976562 464 215.814453125 479 c 0
 227.29296875 533 276.229492188 528 317.306640625 566 c 1
EndSplineSet
EndChar

StartChar: plus
Encoding: 43 43 8
Width: 537
Flags: HW
HStem: 195 74<61 232 306 477> 413 20G<232 306>
VStem: 232 74<32 195 269 433>
LayerCount: 2
Fore
SplineSet
363.177734375 269 m 1
 534.177734375 269 l 1
 518.448242188 195 l 1
 347.448242188 195 l 1
 312.801757812 32 l 1
 238.801757812 32 l 1
 273.448242188 195 l 1
 102.448242188 195 l 1
 118.177734375 269 l 1
 289.177734375 269 l 1
 324.037109375 433 l 1
 398.037109375 433 l 1
 363.177734375 269 l 1
EndSplineSet
Substitution2: "LinLibertine-'sinf' Wissenschaftliche Indices 1" plus.inferior
Substitution2: "LinLibertine-'sups' Hochgestellte 1" plus.superior
AlternateSubs2: "LinLibertine-'aalt' Alle Alternativen zeigen 1" plus.superior plus.inferior uni2098
EndChar

StartChar: slash
Encoding: 47 47 9
Width: 316
Flags: HW
VStem: 2 300
DStem2: 2 -21 65 -21 0.319461 0.947599<20.126 741.875>
LayerCount: 2
Fore
SplineSet
446.963867188 682 m 1
 60.5361328125 -21 l 1
 -2.4638671875 -21 l 1
 383.963867188 682 l 1
 446.963867188 682 l 1
EndSplineSet
Ligature2: "LinLibertine-'frac' Brueche 1" uni2215
AlternateSubs2: "LinLibertine-'aalt' Alle Alternativen zeigen 1" uni2215
EndChar

StartChar: one
Encoding: 49 49 10
Width: 514
Flags: HW
HStem: -2 34<128.617 207.874 396.126 475.383> 590 20G<353 362.5>
VStem: 237 130<54.7283 488.997>
LayerCount: 2
Fore
SplineSet
392.931640625 122 m 2
 375.290039062 39 422.439453125 35 476.801757812 32 c 1
 485.526367188 26 480.850585938 4 469.575195312 -2 c 1
 387.787109375 -1 343 0 303 0 c 0
 263 0 133.575195312 -2 133.575195312 -2 c 1
 124.850585938 4 129.526367188 26 140.801757812 32 c 1
 196.439453125 35 245.290039062 39 262.931640625 122 c 2
 329.461914062 435 l 2
 340.08984375 485 334.940429688 489 321.940429688 489 c 0
 307.940429688 489 271.514648438 487 212.625976562 464 c 1
 200.751953125 474 197.038085938 490.400390625 199.766601562 507 c 1
 294.41796875 543 367.51953125 567 434.470703125 595 c 0
 459.809570312 606 477.659179688 610 487.659179688 610 c 0
 496.659179688 610 503.809570312 606 501.045898438 593 c 2
 501.045898438 593 480.930664062 536 469.665039062 483 c 2
 392.931640625 122 l 2
EndSplineSet
Substitution2: "LinLibertine-'onum' Minuskelziffern 1" one.taboldstyle
Substitution2: "LinLibertine-'pnum' Proportionalziffern 1" one.fitted
Substitution2: "LinLibertine-'sinf' Wissenschaftliche Indices 1" one.inferior
Substitution2: "LinLibertine-'sups' Hochgestellte 1" one.superior
AlternateSubs2: "LinLibertine-'aalt' Alle Alternativen zeigen 1" one.oldstyle one.superior one.fitted
EndChar

StartChar: two
Encoding: 50 50 11
Width: 514
Flags: HW
HStem: 0 79<184 374.152> 569 41<187.786 292.356>
VStem: 50 106<433.121 518.364> 325 131<362.309 525.821> 415 45<125.321 166.906>
DStem2: 183 205 235.175 168 0.723935 0.689868<-72.3357 209.217>
LayerCount: 2
Fore
SplineSet
146.500976562 454 m 0
 159.678710938 516 248.659179688 610 391.659179688 610 c 0
 450.959960938 610 499.893554688 590.400390625 528.266601562 556.400390625 c 0
 551.142578125 529 557.641601562 492.299804688 548.4375 449 c 0
 528.6484375 355.900390625 483.662109375 331.5 341.1875 222 c 2
 270.909179688 168 l 2
 231.58984375 137.799804688 215.59375 111 205.791992188 79 c 1
 335.791992188 79 l 2
 380.791992188 79 415.53125 106 451.984375 174 c 1
 474.984375 174 483.134765625 170 494.859375 164 c 1
 475.743164062 107 449.077148438 38 429 0 c 1
 43 0 l 1
 45.8017578125 32 l 1
 54.541015625 59 77.5712890625 86.900390625 226.57421875 205 c 2
 328.791015625 286 l 2
 392.283203125 336.299804688 405.55859375 379 419.799804688 446 c 0
 427.239257812 481 423.203125 514.700195312 412.10546875 534 c 0
 398.815429688 557.099609375 380.944335938 569 359.944335938 569 c 0
 311.745117188 569 267.166992188 523 262.278320312 500 c 0
 259.940429688 489 261.239257812 481 262.751953125 474 c 0
 263.838867188 465 264.350585938 458 263.288085938 453 c 0
 256.69921875 422 223.022460938 400 194.022460938 400 c 0
 158.022460938 400 141.186523438 429 146.500976562 454 c 0
EndSplineSet
Substitution2: "LinLibertine-'onum' Minuskelziffern 1" two.taboldstyle
Substitution2: "LinLibertine-'pnum' Proportionalziffern 1" two.fitted
Substitution2: "LinLibertine-'sinf' Wissenschaftliche Indices 1" two.inferior
Substitution2: "LinLibertine-'sups' Hochgestellte 1" two.superior
AlternateSubs2: "LinLibertine-'aalt' Alle Alternativen zeigen 1" two.oldstyle two.superior two.fitted
EndChar

StartChar: three
Encoding: 51 51 12
Width: 514
Flags: HW
HStem: -10 41<181.317 290.732> 299 40<157.581 212.299> 433 21G<79.4924 118> 570 40<188.95 297.054>
VStem: 58 100<446.769 533.42> 313.9 118.1<424.486 554.717> 338 129<128.18 260.312>
LayerCount: 2
Fore
SplineSet
369.157226562 570 m 0
 335.157226562 570 287.34765625 554.900390625 263.002929688 494 c 0
 250.201171875 462 232.037109375 433 188.037109375 433 c 0
 155.037109375 433 156.201171875 462 159.176757812 476 c 0
 161.940429688 489 172.041992188 513 194.930664062 536 c 0
 230.794921875 573 281.659179688 610 396.659179688 610 c 0
 534.659179688 610 545.29296875 533 535.940429688 489 c 0
 526.799804688 446 497.573242188 412 462.897460938 390 c 0
 443.346679688 378 436.283203125 373 413.158203125 363 c 1
 495.8828125 357 529.491210938 294 514.1875 222 c 0
 502.072265625 165 471.293945312 119 433.642578125 83 c 0
 370.888671875 23 283.874023438 -10 214.874023438 -10 c 0
 165.874023438 -10 115.637695312 3 83.4638671875 21 c 0
 63.8017578125 32 55.990234375 47 60.4541015625 68 c 0
 64.0673828125 85 87.59375 111 118.59375 111 c 0
 155.59375 111 167.91796875 89 175.729492188 74 c 0
 185.116210938 57 200.588867188 31 239.588867188 31 c 0
 276.588867188 31 350.116210938 57 374.559570312 172 c 0
 400.06640625 292 330.254882812 307 278.254882812 307 c 0
 263.254882812 307 250.830078125 305 228.5546875 299 c 1
 224.041992188 306 224.592773438 318 226.71875 328 c 0
 227.568359375 332 228.206054688 335 230.056640625 339 c 1
 326.999023438 359.900390625 403.38671875 421 419.561523438 497.099609375 c 0
 429.466796875 543.700195312 411.357421875 570 369.157226562 570 c 0
EndSplineSet
Substitution2: "LinLibertine-'onum' Minuskelziffern 1" three.taboldstyle
Substitution2: "LinLibertine-'pnum' Proportionalziffern 1" three.fitted
Substitution2: "LinLibertine-'sinf' Wissenschaftliche Indices 1" three.inferior
Substitution2: "LinLibertine-'sups' Hochgestellte 1" three.superior
AlternateSubs2: "LinLibertine-'aalt' Alle Alternativen zeigen 1" three.oldstyle three.superior three.fitted
EndChar

StartChar: four
Encoding: 52 52 13
Width: 514
Flags: HW
HStem: -2 34<162.617 236.64 409.36 483.383> 162 47<77.76 261 385 495.734> 590 20G<256.75 385>
VStem: 261 124<50.5764 162 209 500.976>
LayerCount: 2
Fore
SplineSet
367.491210938 501 m 1
 299.186523438 429 189.172851562 292.5 121.424804688 209 c 1
 305.424804688 209 l 1
 367.491210938 501 l 1
527.424804688 209 m 2
 538.424804688 209 541.149414062 203 539.0234375 193 c 0
 536.47265625 181 517.434570312 162 503.434570312 162 c 2
 419.434570312 162 l 1
 410.931640625 122 l 2
 393.290039062 39 430.439453125 35 484.801757812 32 c 1
 493.526367188 26 488.850585938 4 477.575195312 -2 c 1
 395.787109375 -1 364 0 324 0 c 0
 284 0 167.575195312 -2 167.575195312 -2 c 1
 158.850585938 4 163.526367188 26 174.801757812 32 c 1
 230.439453125 35 269.290039062 39 286.931640625 122 c 2
 295.434570312 162 l 1
 118.434570312 162 l 2
 94.4345703125 162 90.859375 164 86.921875 169 c 2
 75.748046875 187 l 1
 72.0859375 198 65.787109375 206 66.63671875 210 c 0
 67.2744140625 213 73.255859375 219.5 76.400390625 223 c 0
 185.150390625 346.5 328.81640625 519 424.659179688 610 c 1
 514.659179688 610 l 1
 429.424804688 209 l 1
 527.424804688 209 l 2
EndSplineSet
Substitution2: "LinLibertine-'onum' Minuskelziffern 1" four.taboldstyle
Substitution2: "LinLibertine-'pnum' Proportionalziffern 1" four.fitted
Substitution2: "LinLibertine-'sinf' Wissenschaftliche Indices 1" four.inferior
Substitution2: "LinLibertine-'sups' Hochgestellte 1" four.superior
AlternateSubs2: "LinLibertine-'aalt' Alle Alternativen zeigen 1" four.oldstyle four.superior four.fitted
EndChar

StartChar: five
Encoding: 53 53 14
Width: 514
Flags: HW
HStem: -10 44<195.942 282.402> 338 56<151.952 286.102> 508 92<169.148 424.888> 514 99<166.618 254.085 258.796 313.01 316.675 430>
VStem: 323 136<118.328 295.998>
LayerCount: 2
Fore
SplineSet
362.9609375 188 m 0
 384.215820312 288 358.84375 338 311.84375 338 c 0
 261.84375 338 242.356445312 331 163.6171875 304 c 1
 152.517578125 312 l 1
 255.659179688 610 l 1
 311.809570312 606 342.534179688 600 383.534179688 600 c 0
 443.534179688 600 481.809570312 606 556.296875 613 c 1
 576.534179688 600 l 1
 539.25390625 514 l 1
 477.404296875 510 458.978515625 508 422.978515625 508 c 0
 380.978515625 508 310.404296875 510 279.041992188 513 c 1
 266.239257812 481 250.037109375 433 231.984375 381 c 1
 257.259765625 387 321.747070312 394 352.747070312 394 c 0
 470.747070312 394 526.805664062 319 505.549804688 219 c 0
 480.04296875 99 369.874023438 -10 236.874023438 -10 c 0
 189.07421875 -10 130.168945312 -2.5 95.826171875 18 c 0
 73.453125 31.2998046875 63.392578125 53.599609375 67.091796875 71 c 0
 71.767578125 93 92.08203125 118 128.08203125 118 c 0
 165.08203125 118 186.04296875 99 194.791992188 79 c 0
 205.69921875 54.099609375 220.2265625 34 240.2265625 34 c 0
 295.2265625 34 342.129882812 90 362.9609375 188 c 0
EndSplineSet
Substitution2: "LinLibertine-'onum' Minuskelziffern 1" five.taboldstyle
Substitution2: "LinLibertine-'pnum' Proportionalziffern 1" five.fitted
Substitution2: "LinLibertine-'sinf' Wissenschaftliche Indices 1" five.inferior
Substitution2: "LinLibertine-'sups' Hochgestellte 1" five.superior
AlternateSubs2: "LinLibertine-'aalt' Alle Alternativen zeigen 1" five.oldstyle five.superior five.fitted
EndChar

StartChar: six
Encoding: 54 54 15
Width: 514
Flags: HW
HStem: -10 39<224.347 310.848> 315 50<204.23 295.75> 569 41<339.203 447.96>
VStem: 44 126<115.719 300.126> 343 134<109.662 262.764>
LayerCount: 2
Fore
SplineSet
232.428710938 289 m 1
 229.090820312 278 223.776367188 253 221.438476562 242 c 0
 184.454101562 68 231.1640625 29 281.1640625 29 c 0
 317.1640625 29 359.579101562 78 382.53515625 186 c 0
 395.182617188 245.5 369.955078125 315 311.955078125 315 c 0
 293.955078125 315 275.923828125 312.5 232.428710938 289 c 1
570.944335938 569 m 1
 513.306640625 566 442.393554688 557 373.19140625 509 c 0
 317.950195312 470.700195312 269.553710938 402.5 246.75 330.5 c 1
 286.788085938 349.5 331.9453125 362 356.583007812 365 c 1
 519.338867188 361.5 530.776367188 253 520.361328125 204 c 0
 501.549804688 115.5 416.874023438 -10 260.874023438 -10 c 0
 159.874023438 -10 50.8017578125 32 96.2890625 246 c 0
 116.694335938 342 170.754882812 447.200195312 261.041992188 513 c 0
 350.963867188 578.5 431.703125 605.5 573.659179688 610 c 1
 579.418945312 600.400390625 576.637695312 581.200195312 570.944335938 569 c 1
EndSplineSet
Substitution2: "LinLibertine-'onum' Minuskelziffern 1" six.taboldstyle
Substitution2: "LinLibertine-'pnum' Proportionalziffern 1" six.fitted
Substitution2: "LinLibertine-'sinf' Wissenschaftliche Indices 1" six.inferior
Substitution2: "LinLibertine-'sups' Hochgestellte 1" six.superior
AlternateSubs2: "LinLibertine-'aalt' Alle Alternativen zeigen 1" six.oldstyle six.superior six.fitted
EndChar

StartChar: seven
Encoding: 55 55 16
Width: 514
Flags: HW
HStem: -12 21G<121 229> 498 102<126.882 378.94>
VStem: 60 35<413.4 453.601>
LayerCount: 2
Fore
SplineSet
289.853515625 498 m 2
 256.853515625 498 221.365234375 491 182.360351562 411 c 1
 147.998046875 414 l 1
 167.051757812 466 198.668945312 563 209.872070312 611 c 0
 210.509765625 614 211.509765625 614 214.509765625 614 c 0
 231.659179688 610 231.534179688 600 265.534179688 600 c 2
 600.534179688 600 l 1
 604.62109375 591 l 1
 417.805664062 319 331.921875 169 228.575195312 -2 c 1
 124.44921875 -12 l 1
 121 0 l 1
 229.565429688 143.799804688 389.724609375 361.900390625 484.752929688 498 c 1
 289.853515625 498 l 2
EndSplineSet
Substitution2: "LinLibertine-'onum' Minuskelziffern 1" seven.taboldstyle
Substitution2: "LinLibertine-'pnum' Proportionalziffern 1" seven.fitted
Substitution2: "LinLibertine-'sinf' Wissenschaftliche Indices 1" seven.inferior
Substitution2: "LinLibertine-'sups' Hochgestellte 1" seven.superior
AlternateSubs2: "LinLibertine-'aalt' Alle Alternativen zeigen 1" seven.oldstyle seven.superior seven.fitted
EndChar

StartChar: nine
Encoding: 57 57 17
Width: 514
VWidth: 487
Flags: HW
HStem: -10 41<74.0399 182.797> 235 50<226.25 317.77> 571 39<211.152 297.653>
VStem: 45 134<337.236 490.338> 352 126<299.874 484.281>
LayerCount: 2
Fore
SplineSet
417.10546875 311 m 1
 420.443359375 322 425.756835938 347 428.095703125 358 c 0
 465.080078125 532 418.370117188 571 368.370117188 571 c 0
 332.370117188 571 289.954101562 522 266.998046875 414 c 0
 254.3515625 354.5 279.579101562 285 337.579101562 285 c 0
 355.579101562 285 373.610351562 287.5 417.10546875 311 c 1
78.5888671875 31 m 1
 136.2265625 34 207.139648438 43 276.342773438 91 c 0
 331.583984375 129.299804688 379.979492188 197.5 402.784179688 269.5 c 1
 362.745117188 250.5 317.588867188 238 292.951171875 235 c 1
 130.194335938 238.5 118.756835938 347 129.172851562 396 c 0
 147.983398438 484.5 232.659179688 610 388.659179688 610 c 0
 489.659179688 610 598.732421875 568 553.245117188 354 c 0
 532.83984375 258 478.778320312 152.799804688 388.4921875 87 c 0
 298.5703125 21.5 217.831054688 -5.5 75.8740234375 -10 c 1
 70.115234375 -0.400390625 72.896484375 18.7998046875 78.5888671875 31 c 1
EndSplineSet
Substitution2: "LinLibertine-'onum' Minuskelziffern 1" nine.taboldstyle
Substitution2: "LinLibertine-'pnum' Proportionalziffern 1" nine.fitted
Substitution2: "LinLibertine-'sinf' Wissenschaftliche Indices 1" nine.inferior
Substitution2: "LinLibertine-'sups' Hochgestellte 1" nine.superior
AlternateSubs2: "LinLibertine-'aalt' Alle Alternativen zeigen 1" nine.oldstyle nine.superior nine.fitted
EndChar

StartChar: colon
Encoding: 58 58 18
Width: 256
VWidth: 999
Flags: HW
HStem: 39 111<85.9218 174.078> 302 111<85.9218 174.078>
VStem: 74 112<50.8467 138.078 313.847 401.078>
LayerCount: 2
Fore
SplineSet
137.158203125 363 m 0
 145.447265625 402 186.25 434 226.25 434 c 0
 266.25 434 291.873046875 404 283.583007812 365 c 0
 275.505859375 327 234.704101562 295 194.704101562 295 c 0
 154.704101562 295 129.081054688 325 137.158203125 363 c 0
74.4541015625 68 m 0
 82.7431640625 107 123.544921875 139 163.544921875 139 c 0
 203.544921875 139 229.168945312 109 220.87890625 70 c 0
 212.801757812 32 172 0 132 0 c 0
 92 0 66.376953125 30 74.4541015625 68 c 0
EndSplineSet
EndChar

StartChar: less
Encoding: 60 60 19
Width: 512
Flags: HW
DStem2: 42 262 153 240 0.939793 0.341743<96.7987 435.295> 153 240 42 218 0.939793 -0.341743<0 338.496>
LayerCount: 2
Fore
SplineSet
204.013671875 240 m 1
 497.357421875 124 l 1
 484.178710938 62 l 1
 88.3369140625 218 l 1
 97.689453125 262 l 1
 559.848632812 418 l 1
 546.669921875 356 l 1
 204.013671875 240 l 1
EndSplineSet
EndChar

StartChar: equal
Encoding: 61 61 20
Width: 551
Flags: HW
HStem: 142 56<59 493> 266 57<59 493>
LayerCount: 2
Fore
SplineSet
535.0859375 198 m 1
 523.182617188 142 l 1
 89.1826171875 142 l 1
 101.0859375 198 l 1
 535.0859375 198 l 1
561.65625 323 m 1
 549.540039062 266 l 1
 115.540039062 266 l 1
 127.65625 323 l 1
 561.65625 323 l 1
EndSplineSet
Substitution2: "LinLibertine-'sinf' Wissenschaftliche Indices 1" equal.inferior
Substitution2: "LinLibertine-'sups' Hochgestellte 1" equal.superior
AlternateSubs2: "LinLibertine-'aalt' Alle Alternativen zeigen 1" equal.superior
EndChar

StartChar: greater
Encoding: 62 62 21
Width: 512
Flags: HW
DStem2: 42 416 42 354 0.939088 -0.343676<21.3079 358.865> 42 122 42 60 0.940496 0.339806<0 337.555>
LayerCount: 2
Fore
SplineSet
409.588867188 238 m 1
 117.245117188 354 l 1
 130.423828125 416 l 1
 526.051757812 259 l 1
 516.69921875 215 l 1
 54.7529296875 60 l 1
 67.931640625 122 l 1
 409.588867188 238 l 1
EndSplineSet
EndChar

StartChar: question
Encoding: 63 63 22
Width: 430
Flags: HW
HStem: -10 139<143 246> 622 36<147.137 252.31>
VStem: 26 101<502.614 588.742> 121 146<11.9591 106.904> 160 65<182.871 308> 286 115<434.339 583.679>
LayerCount: 2
Fore
SplineSet
248.157226562 570 m 0
 243.693359375 549 251.41796875 543 245.678710938 516 c 0
 240.365234375 491 213.96484375 475 183.96484375 475 c 0
 159.96484375 475 131.215820312 495 139.29296875 533 c 0
 146.732421875 568 170.69921875 590.900390625 210.572265625 619 c 0
 245.96484375 643.900390625 294.862304688 658 355.862304688 658 c 0
 469.862304688 658 527.896484375 597 508.340820312 505 c 0
 492.612304688 431 419.833984375 385 361.969726562 348 c 0
 329.71875 328 288.979492188 301 273.67578125 229 c 2
 270.912109375 216 l 2
 265.598632812 191 259.185546875 182 230.685546875 182 c 0
 204.185546875 182 201.236328125 194 205.912109375 216 c 2
 209.100585938 231 l 2
 217.815429688 272 229.930664062 329 314.747070312 394 c 0
 356.336914062 425 384.201171875 462 394.829101562 512 c 0
 407.157226562 570 394.310546875 622 338.209960938 622 c 0
 294.209960938 622 254.108398438 598 248.157226562 570 c 0
133.328125 58 m 0
 141.618164062 97 182.419921875 129 222.419921875 129 c 0
 262.419921875 129 288.04296875 99 279.752929688 60 c 0
 271.67578125 22 230.874023438 -10 190.874023438 -10 c 0
 150.874023438 -10 125.250976562 20 133.328125 58 c 0
EndSplineSet
EndChar

StartChar: at
Encoding: 64 64 23
Width: 988
Flags: HMW
HStem: -160 39<407.274 632.859> 24 42<411.003 490.994 622.002 711.275> 381 34<502.903 579.761> 584 37<401.936 597.238>
VStem: 92 94<102.389 345.27> 297 117<85.0796 246.981> 805 85<185.855 389.903>
DStem2: 557 193 653 146 0.227108 0.97387<-90.6812 129.136>
LayerCount: 2
Fore
SplineSet
654.018554688 320 m 0
 661.458007812 355 662.984375 381 637.984375 381 c 0
 623.984375 381 592.141601562 380.799804688 548.907226562 343 c 0
 493.861328125 294.799804688 462.25 227 448.859375 164 c 0
 438.869140625 117 438.303710938 72 485.303710938 72 c 0
 515.303710938 72 552.743164062 107 598.0234375 193 c 0
 615.038085938 226 648.916992188 296 654.018554688 320 c 0
657.004882812 80 m 0
 654.241210938 67 661.028320312 66 672.028320312 66 c 0
 709.028320312 66 832.419921875 129 863.028320312 273 c 0
 910.002929688 494 745.1328125 584 628.1328125 584 c 0
 473.1328125 584 283.563476562 459 234.462890625 228 c 0
 203.004882812 80 251.280273438 -121 495.280273438 -121 c 0
 572.280273438 -121 648.381835938 -97 721.22265625 -46 c 1
 736.05859375 -75 l 1
 661.642578125 -124 590.991210938 -160 467.991210938 -160 c 0
 230.991210938 -160 90.51171875 -7 138.974609375 221 c 0
 182.974609375 428 391.998046875 621 644.998046875 621 c 0
 870.998046875 621 991.176757812 476 951.00390625 287 c 0
 921.24609375 147 777.1015625 24 643.1015625 24 c 0
 611.1015625 24 578.739257812 27 568.290039062 39 c 0
 556.559570312 52.5 554.241210938 67 558.280273438 86 c 1
 516.352539062 44 463.526367188 26 439.526367188 26 c 0
 393.7265625 26 365.775390625 34.7001953125 347.478515625 54 c 0
 323.791992188 79 322.931640625 122 330.583984375 158 c 0
 357.791015625 286 527.2109375 415 642.2109375 415 c 0
 690.2109375 415 715.59765625 398 728.133789062 377 c 1
 772.1484375 410 l 1
 796.810546875 399 l 1
 684.033203125 146 l 2
 672.506835938 120 659.342773438 91 657.004882812 80 c 0
EndSplineSet
EndChar

StartChar: A
Encoding: 65 65 24
Width: 740
VWidth: 999
Flags: HW
HStem: -2 34<3.77002 69.5762 167.992 237.23 421.77 500.035 664.842 733.23> 235 48<250.587 425> 638 20G<426.5 441.203>
DStem2: 106.983 102 165 79 0.390001 0.920814<-25.5008 179.412 231.412 451.365> 323.835 614 336.175 520 0.390001 0.920814<-540.408 -382.79 -329.399 -81.7439> 434 658 343.096 520 0.338836 -0.940845<99.0351 349.768 401.027 600.306>
AnchorPoint: "unten_punkt" 299.619 -110 basechar 0
AnchorPoint: "unten_anhang" 582.062 5 basechar 0
AnchorPoint: "top_akzent" 549.673 850 basechar 0
LayerCount: 2
Fore
SplineSet
333.153320312 283 m 2
 485.153320312 283 l 1
 453.629882812 520 l 1
 446.729492188 520 l 1
 310.780273438 296.299804688 l 2
 304.791015625 286 311.153320312 283 333.153320312 283 c 2
181.791992188 79 m 2
 157.35546875 37.900390625 203.754882812 34.599609375 240.801757812 32 c 1
 245.526367188 26 240.850585938 4 233.575195312 -2 c 1
 196.787109375 -1 142 0 101 0 c 0
 62 0 43.787109375 -1 6.5751953125 -2 c 1
 1.8505859375 4 6.5263671875 26 13.8017578125 32 c 1
 57.939453125 35 89.3232421875 40.099609375 128.680664062 102 c 2
 454.309570312 614 l 1
 489.509765625 614 556.94921875 649 573.862304688 658 c 1
 658.280273438 86 l 2
 665.760742188 35.099609375 698.74609375 35.5 736.801757812 32 c 1
 741.526367188 26 736.850585938 4 729.575195312 -2 c 1
 692.787109375 -1 637 0 596 0 c 0
 557 0 461.787109375 -1 424.575195312 -2 c 1
 419.850585938 4 424.526367188 26 431.801757812 32 c 1
 480.124023438 35.400390625 519.588867188 31 514.303710938 72 c 2
 492.951171875 235 l 1
 302.951171875 235 l 2
 278.951171875 235 272.100585938 231 264.336914062 218 c 2
 181.791992188 79 l 2
EndSplineSet
Substitution2: "LinLibertine-'c2sc' Versale nach Kapitaelchen 1" a.sc
Position2: "'cpsp' Versalabstaende 1" dx=2 dy=0 dh=5 dv=0
EndChar

StartChar: B
Encoding: 66 66 25
Width: 654
Flags: HW
HStem: -2 42<245.223 398.568> -2 34<13.6167 82.4056> 334 42<242 372.404> 605 42<245.143 375.483> 613 34<13.6167 82.4056>
VStem: 102 140<47 334 376 598> 414 140<424.816 568.13> 461 147<100.315 274.622>
LayerCount: 2
Fore
SplineSet
361.45703125 562 m 2
 321.920898438 376 l 1
 377.920898438 376 l 2
 448.920898438 376 500.935546875 409 517.940429688 489 c 0
 538.770507812 587 486.596679688 605 440.596679688 605 c 0
 375.596679688 605 367.62109375 591 361.45703125 562 c 2
312.994140625 334 m 1
 259.854492188 84 l 2
 253.690429688 55 256.501953125 40 316.501953125 40 c 0
 448.501953125 40 487.995117188 127 500.748046875 187 c 0
 519.028320312 273 486.994140625 334 383.994140625 334 c 2
 312.994140625 334 l 1
310.098632812 645 m 0
 341.798828125 645 402.524414062 647 452.524414062 647 c 0
 654.32421875 647 673.03125 560 658.365234375 491 c 0
 647.524414062 440 593.833984375 385 534.733398438 361 c 1
 534.307617188 359 l 1
 634.356445312 331 666.240234375 274 647.53515625 186 c 0
 625.854492188 84 541.575195312 -2 336.575195312 -2 c 0
 276.575195312 -2 213 0 173 0 c 0
 133 0 18.5751953125 -2 18.5751953125 -2 c 1
 9.8505859375 4 14.5263671875 26 25.8017578125 32 c 1
 81.439453125 35 110.290039062 39 127.931640625 122 c 2
 213.166992188 523 l 2
 230.809570312 606 203.659179688 610 149.296875 613 c 1
 140.572265625 619 145.249023438 641 156.524414062 647 c 1
 156.524414062 647 270.098632812 645 310.098632812 645 c 0
EndSplineSet
Substitution2: "LinLibertine-'c2sc' Versale nach Kapitaelchen 1" b.sc
Position2: "'cpsp' Versalabstaende 1" dx=2 dy=0 dh=5 dv=0
EndChar

StartChar: C
Encoding: 67 67 26
Width: 706
VWidth: 999
Flags: HW
HStem: -10 52<319.411 502.57> 616 42<309.587 490.254>
VStem: 37 151<207.875 440.266> 596 43<455.199 507.434>
AnchorPoint: "mittelpunkt" 412.955 315 basechar 0
AnchorPoint: "unten_punkt" 339.619 -110 basechar 0
AnchorPoint: "unten_anhang" 354.512 -7 basechar 0
AnchorPoint: "top_akzent" 520.673 850 basechar 0
LayerCount: 2
Fore
SplineSet
394.874023438 -10 m 0
 297.874023438 -10 223.48828125 7 169.265625 53 c 0
 101.330078125 110.700195312 83.99609375 221.099609375 103.955078125 315 c 0
 150.760742188 535.200195312 341.862304688 658 537.862304688 658 c 0
 660.862304688 658 697.360351562 618 747.296875 613 c 1
 744.606445312 558 742.404296875 510 736.350585938 458 c 1
 723.775390625 452 703.4375 449 692.288085938 453 c 1
 684.568359375 539 655.934570312 616 517.934570312 616 c 0
 398.934570312 616 292.025390625 489.400390625 258.994140625 334 c 0
 225.834960938 178 288.927734375 42 404.927734375 42 c 0
 474.927734375 42 561.454101562 68 649.033203125 146 c 1
 660.033203125 146 674.482421875 134 677.569335938 125 c 1
 590.65234375 36 491.874023438 -10 394.874023438 -10 c 0
EndSplineSet
Substitution2: "LinLibertine-'c2sc' Versale nach Kapitaelchen 1" c.sc
Position2: "'cpsp' Versalabstaende 1" dx=2 dy=0 dh=5 dv=0
EndChar

StartChar: D
Encoding: 68 68 27
Width: 734
Flags: HW
HStem: -2 42<269.225 426.596> -2 34<25.6167 94.4056> 604 42<268.527 415.668> 613 34<25.6167 94.4056>
VStem: 114 140<54.7283 590.272> 535 151<175.935 431.978>
LayerCount: 2
Fore
SplineSet
279.293945312 119 m 2
 265.052734375 52 288.501953125 40 358.501953125 40 c 0
 434.501953125 40 556.680664062 102 595.366210938 284 c 0
 627.461914062 435 641.383789062 604 444.383789062 604 c 0
 408.383789062 604 378.1328125 584 366.442382812 529 c 2
 279.293945312 119 l 2
185 0 m 0
 145 0 30.5751953125 -2 30.5751953125 -2 c 1
 21.8505859375 4 26.5263671875 26 37.8017578125 32 c 1
 93.439453125 35 122.290039062 39 139.931640625 122 c 2
 225.166992188 523 l 2
 242.809570312 606 215.659179688 610 161.296875 613 c 1
 152.572265625 619 157.249023438 641 168.524414062 647 c 1
 168.524414062 647 282.098632812 645 322.098632812 645 c 0
 362.098632812 645 404.311523438 646 457.311523438 646 c 0
 703.311523438 646 791.002929688 494 751.6796875 309 c 0
 730.083984375 207.400390625 679.357421875 124 622.4296875 82 c 0
 538.59375 20.2001953125 434.075195312 -2 346.575195312 -2 c 0
 306.575195312 -2 225 0 185 0 c 0
EndSplineSet
Substitution2: "LinLibertine-'c2sc' Versale nach Kapitaelchen 1" d.sc
Position2: "'cpsp' Versalabstaende 1" dx=2 dy=0 dh=5 dv=0
EndChar

StartChar: E
Encoding: 69 69 28
Width: 604
VWidth: 999
Flags: HMW
HStem: -2 34<6.77002 80.9433> 0 42<244.172 449.205> 319 46<237 394.554> 603 42<244.747 433.219> 613 34<7.25781 80.9433>
VStem: 97 140<48.1312 319 365 596.345> 409 43<252.086 303.875 376.375 431.914> 481 43<498.655 549.073>
AnchorPoint: "unten_anhang" 334.851 4 basechar 0
AnchorPoint: "unten_punkt" 310.619 -110 basechar 0
AnchorPoint: "top_akzent" 508.673 850 basechar 0
LayerCount: 2
Fore
SplineSet
395.583007812 365 m 2
 462.583007812 365 485.49609375 374 500.186523438 429 c 1
 507.461914062 435 538.461914062 435 543.186523438 429 c 1
 535.810546875 399 530.02734375 376.5 522.907226562 343 c 0
 515.616210938 308.700195312 512.641601562 290 506.202148438 255 c 1
 498.926757812 249 467.926757812 249 463.202148438 255 c 1
 469.766601562 300 454.805664062 319 385.805664062 319 c 2
 304.805664062 319 l 1
 256.129882812 90 l 2
 250.390625 63 264.927734375 42 286.927734375 42 c 2
 387.927734375 42 l 2
 463.927734375 42 520.830078125 98 556.134765625 170 c 1
 569.915039062 173.200195312 590.92578125 170.900390625 600.072265625 165 c 1
 581.231445312 114 562.203125 48 537.575195312 -2 c 1
 537.575195312 -2 448 0 400 0 c 2
 165 0 l 1
 165 0 58.787109375 -1 9.5751953125 -2 c 1
 4.8505859375 4 9.5263671875 26 16.8017578125 32 c 1
 87.439453125 35 105.290039062 39 122.931640625 122 c 2
 207.954101562 522 l 2
 225.596679688 605 209.659179688 610 140.296875 613 c 1
 135.572265625 619 140.249023438 641 147.524414062 647 c 1
 197.311523438 646 301.098632812 645 301.098632812 645 c 1
 596.098632812 645 l 2
 620.098632812 645 628.311523438 646 645.94921875 649 c 0
 648.94921875 649 649.736328125 648 649.311523438 646 c 0
 649.611328125 638 634.206054688 542 630.491210938 501 c 1
 619.69140625 496.299804688 598.4453125 494.200195312 586.427734375 496 c 1
 579.094726562 565 566.171875 603 491.171875 603 c 2
 406.171875 603 l 2
 382.171875 603 359.857421875 578 354.755859375 554 c 2
 314.583007812 365 l 1
 395.583007812 365 l 2
EndSplineSet
Substitution2: "LinLibertine-'c2sc' Versale nach Kapitaelchen 1" e.sc
Position2: "'cpsp' Versalabstaende 1" dx=2 dy=0 dh=5 dv=0
EndChar

StartChar: F
Encoding: 70 70 29
Width: 540
Flags: HW
HStem: -2 34<8.6167 77.4056 261.36 335.383> 299 46<237 394.554> 603 42<244.747 436.358> 613 34<7.25781 80.9433>
VStem: 97 140<50.5764 299 345 596.345> 409 43<232.086 283.875 356.375 411.914> 486 43<493.655 545.134>
AnchorPoint: "top_akzent" 508.673 850 basechar 0
AnchorPoint: "unten_punkt" 310.619 -110 basechar 0
LayerCount: 2
Fore
SplineSet
262.931640625 122 m 2
 245.290039062 39 282.439453125 35 336.801757812 32 c 1
 345.526367188 26 340.850585938 4 329.575195312 -2 c 1
 289.787109375 -1 208 0 168 0 c 0
 128 0 53.787109375 -1 13.5751953125 -2 c 1
 4.8505859375 4 9.5263671875 26 20.8017578125 32 c 1
 76.439453125 35 105.290039062 39 122.931640625 122 c 2
 207.954101562 522 l 2
 225.596679688 605 209.659179688 610 140.296875 613 c 1
 135.572265625 619 140.249023438 641 147.524414062 647 c 1
 197.311523438 646 301.098632812 645 301.098632812 645 c 1
 601.098632812 645 l 2
 625.098632812 645 633.311523438 646 650.94921875 649 c 0
 653.94921875 649 654.736328125 648 654.311523438 646 c 0
 654.611328125 638 638.142578125 537 634.427734375 496 c 1
 623.62890625 491.299804688 602.3828125 489.200195312 590.365234375 491 c 1
 583.03125 560 571.171875 603 496.171875 603 c 2
 406.171875 603 l 2
 382.171875 603 359.857421875 578 354.755859375 554 c 2
 310.33203125 345 l 1
 391.33203125 345 l 2
 458.33203125 345 481.245117188 354 495.935546875 409 c 1
 503.2109375 415 534.2109375 415 538.935546875 409 c 1
 531.55859375 379 525.776367188 356.5 518.65625 323 c 0
 511.365234375 288.700195312 508.390625 270 501.951171875 235 c 1
 494.67578125 229 463.67578125 229 458.951171875 235 c 1
 465.515625 280 450.5546875 299 381.5546875 299 c 2
 300.5546875 299 l 1
 262.931640625 122 l 2
EndSplineSet
Substitution2: "LinLibertine-'c2sc' Versale nach Kapitaelchen 1" f.sc
Position2: "'cpsp' Versalabstaende 1" dx=2 dy=0 dh=5 dv=0
EndChar

StartChar: G
Encoding: 71 71 30
Width: 755
VWidth: 999
Flags: HMW
HStem: -10 42<327.927 516.612> 271 37<459.77 535.366 691.908 734.23> 616 42<307.193 507.087>
VStem: 32 151<199.242 425.667> 545 140<78.4212 260.935>
AnchorPoint: "mittelpunkt" 409.206 335 basechar 0
AnchorPoint: "unten_anhang" 397.425 2 basechar 0
AnchorPoint: "unten_punkt" 373.619 -110 basechar 0
AnchorPoint: "top_akzent" 575.673 850 basechar 0
LayerCount: 2
Fore
SplineSet
546.862304688 658 m 0
 668.862304688 658 727.422851562 623 787.422851562 623 c 1
 779.119140625 551 774.491210938 501 774.563476562 459 c 1
 729.288085938 453 l 1
 721.568359375 539 668.934570312 616 523.934570312 616 c 0
 467.834960938 616 408.434570312 595.299804688 356.206054688 542 c 0
 306.022460938 490.799804688 270.721679688 412.700195312 252.505859375 327 c 0
 224.448242188 195 253.801757812 32 431.801757812 32 c 0
 485.801757812 32 519.927734375 42 560.729492188 74 c 1
 592.400390625 223 l 2
 600.923828125 263.099609375 574.610351562 266.799804688 520.602539062 271 c 1
 515.877929688 277 521.192382812 302 528.467773438 308 c 1
 575.254882812 307 638.041992188 306 677.041992188 306 c 0
 717.041992188 306 766.254882812 307 796.467773438 308 c 1
 801.192382812 302 795.877929688 277 788.602539062 271 c 1
 758.96484375 268 739.83984375 258 732.400390625 223 c 2
 707.53125 106 l 2
 705.193359375 95 708.4921875 87 717.579101562 78 c 1
 639.1015625 24 517.874023438 -10 399.874023438 -10 c 0
 288.874023438 -10 211.235351562 12.400390625 156.028320312 66 c 0
 96.1787109375 124.099609375 78.125 217 97.2548828125 307 c 0
 120.317382812 415.5 178.705078125 505.299804688 262.201171875 565.5 c 0
 347.958007812 627.400390625 443.862304688 658 546.862304688 658 c 0
EndSplineSet
Substitution2: "LinLibertine-'c2sc' Versale nach Kapitaelchen 1" g.sc
Position2: "'cpsp' Versalabstaende 1" dx=2 dy=0 dh=5 dv=0
EndChar

StartChar: grave
Encoding: 96 96 31
Width: 392
VWidth: 999
Flags: HW
LayerCount: 2
Fore
SplineSet
341.262695312 674 m 1
 383.90625 550 l 2
 386.41796875 543 389.080078125 532 387.379882812 524 c 0
 385.466796875 515 375.978515625 508 366.978515625 508 c 0
 358.978515625 508 350.163085938 513.099609375 336.229492188 528 c 2
 237.547851562 633 l 1
 241.88671875 644 l 1
 251.799804688 653 285.688476562 676 321.688476562 676 c 0
 326.688476562 676 337.475585938 675 341.262695312 674 c 1
EndSplineSet
Substitution2: "LinLibertine-'case' Versalformen 1" uni0358
EndChar

StartChar: ograve
Encoding: 242 242 32
Width: 551
VWidth: 999
Flags: HW
HStem: -10 42<240.884 341.151> 402 42<214.256 315.486>
VStem: 35 140<118.075 311.105> 382 140<116.913 317.204>
LayerCount: 2
Fore
SplineSet
387.262695312 674 m 1
 429.90625 550 l 2
 432.41796875 543 435.080078125 532 433.379882812 524 c 0
 431.466796875 515 421.978515625 508 412.978515625 508 c 0
 404.978515625 508 396.163085938 513.099609375 382.229492188 528 c 2
 283.547851562 633 l 1
 287.88671875 644 l 1
 297.799804688 653 331.688476562 676 367.688476562 676 c 0
 372.688476562 676 383.475585938 675 387.262695312 674 c 1
345.447265625 402 m 0
 278.447265625 402 245.23046875 321 225.67578125 229 c 0
 209.946289062 155 215.801757812 32 297.801757812 32 c 0
 333.801757812 32 387.58203125 63.900390625 413.110351562 184 c 0
 442.23046875 321 413.447265625 402 345.447265625 402 c 0
80.9990234375 207 m 0
 93.5615234375 266.099609375 123.178710938 326.400390625 170.345703125 370 c 0
 219.49609375 415.400390625 287.475585938 444 370.375 444 c 0
 518.875 444 587.71484375 346.799804688 559.912109375 216 c 0
 548.073242188 160.299804688 516.21875 92.2998046875 455.990234375 47 c 0
 407.068359375 10.2001953125 343.374023438 -10 272.874023438 -10 c 0
 138.474609375 -10 53.2392578125 76.400390625 80.9990234375 207 c 0
EndSplineSet
Substitution2: "LinLibertine-'smcp' Gemeine nach Kapitaelchen 1" ograve.sc
AlternateSubs2: "LinLibertine-'aalt' Alle Alternativen zeigen 1" ograve.sc
EndChar

StartChar: oacute
Encoding: 243 243 33
Width: 551
VWidth: 999
Flags: HW
HStem: -10 42<240.884 341.151> 402 42<214.256 315.486>
VStem: 35 140<118.075 311.105> 382 140<116.913 317.204>
LayerCount: 2
Fore
SplineSet
425.262695312 674 m 1
 428.475585938 675 436.688476562 676 441.688476562 676 c 0
 471.688476562 676 487.712890625 662 493.586914062 652 c 1
 498.698242188 629 l 1
 355.7421875 521 l 2
 339.19140625 509 324.340820312 505 314.340820312 505 c 0
 306.340820312 505 300.041992188 513 301.31640625 519 c 0
 302.591796875 525 306.504882812 534 314.41796875 543 c 2
 425.262695312 674 l 1
345.447265625 402 m 0
 278.447265625 402 245.23046875 321 225.67578125 229 c 0
 209.946289062 155 215.801757812 32 297.801757812 32 c 0
 333.801757812 32 387.58203125 63.900390625 413.110351562 184 c 0
 442.23046875 321 413.447265625 402 345.447265625 402 c 0
80.9990234375 207 m 0
 93.5615234375 266.099609375 123.178710938 326.400390625 170.345703125 370 c 0
 219.49609375 415.400390625 287.475585938 444 370.375 444 c 0
 518.875 444 587.71484375 346.799804688 559.912109375 216 c 0
 548.073242188 160.299804688 516.21875 92.2998046875 455.990234375 47 c 0
 407.068359375 10.2001953125 343.374023438 -10 272.874023438 -10 c 0
 138.474609375 -10 53.2392578125 76.400390625 80.9990234375 207 c 0
EndSplineSet
Substitution2: "LinLibertine-'smcp' Gemeine nach Kapitaelchen 1" oacute.sc
AlternateSubs2: "LinLibertine-'aalt' Alle Alternativen zeigen 1" oacute.sc
EndChar

StartChar: ocircumflex
Encoding: 244 244 34
Width: 551
VWidth: 999
Flags: HW
HStem: -10 42<240.884 341.151> 402 42<214.256 315.486>
VStem: 35 140<118.075 311.105> 382 140<116.913 317.204>
LayerCount: 2
Fore
SplineSet
443.924804688 663 m 1
 463.509765625 614 492.157226562 570 520.442382812 529 c 1
 491.404296875 510 l 1
 453.930664062 536 429.181640625 556 402.045898438 593 c 1
 355.755859375 554 323.930664062 536 278.404296875 510 c 1
 257.442382812 529 l 1
 302.157226562 570 351.72265625 615 391.924804688 663 c 1
 443.924804688 663 l 1
345.447265625 402 m 0
 278.447265625 402 245.23046875 321 225.67578125 229 c 0
 209.946289062 155 215.801757812 32 297.801757812 32 c 0
 333.801757812 32 387.58203125 63.900390625 413.110351562 184 c 0
 442.23046875 321 413.447265625 402 345.447265625 402 c 0
80.9990234375 207 m 0
 93.5615234375 266.099609375 123.178710938 326.400390625 170.345703125 370 c 0
 219.49609375 415.400390625 287.475585938 444 370.375 444 c 0
 518.875 444 587.71484375 346.799804688 559.912109375 216 c 0
 548.073242188 160.299804688 516.21875 92.2998046875 455.990234375 47 c 0
 407.068359375 10.2001953125 343.374023438 -10 272.874023438 -10 c 0
 138.474609375 -10 53.2392578125 76.400390625 80.9990234375 207 c 0
EndSplineSet
Substitution2: "LinLibertine-'smcp' Gemeine nach Kapitaelchen 1" ocircumflex.sc
AlternateSubs2: "LinLibertine-'aalt' Alle Alternativen zeigen 1" ocircumflex.sc
EndChar

StartChar: otilde
Encoding: 245 245 35
Width: 551
VWidth: 999
Flags: HW
HStem: -10 42<240.884 341.151> 402 42<214.256 315.486> 519 70<259.399 360.905> 557 71<152.858 252.467>
VStem: 35 140<118.075 311.105> 113 26<521.865 543.979> 374 28<609.298 625.118> 382 140<116.913 317.204>
LayerCount: 2
Fore
SplineSet
450.196289062 589 m 0
 464.196289062 589 486.68359375 596 508.3359375 632 c 1
 522.3359375 632 534.635742188 624 532.084960938 612 c 1
 502.755859375 554 458.31640625 519 421.31640625 519 c 0
 398.31640625 519 377.591796875 525 360.780273438 540 c 1
 343.543945312 553 324.393554688 557 306.393554688 557 c 0
 284.393554688 557 267.96875 555 248.891601562 517 c 1
 236.891601562 517 223.7421875 521 226.717773438 535 c 1
 253.55859375 586 294.485351562 628 329.485351562 628 c 0
 360.485351562 628 381.572265625 619 398.171875 603 c 0
 413.196289062 589 439.196289062 589 450.196289062 589 c 0
345.447265625 402 m 0
 278.447265625 402 245.23046875 321 225.67578125 229 c 0
 209.946289062 155 215.801757812 32 297.801757812 32 c 0
 333.801757812 32 387.58203125 63.900390625 413.110351562 184 c 0
 442.23046875 321 413.447265625 402 345.447265625 402 c 0
80.9990234375 207 m 0
 93.5615234375 266.099609375 123.178710938 326.400390625 170.345703125 370 c 0
 219.49609375 415.400390625 287.475585938 444 370.375 444 c 0
 518.875 444 587.71484375 346.799804688 559.912109375 216 c 0
 548.073242188 160.299804688 516.21875 92.2998046875 455.990234375 47 c 0
 407.068359375 10.2001953125 343.374023438 -10 272.874023438 -10 c 0
 138.474609375 -10 53.2392578125 76.400390625 80.9990234375 207 c 0
EndSplineSet
Substitution2: "LinLibertine-'smcp' Gemeine nach Kapitaelchen 1" otilde.sc
AlternateSubs2: "LinLibertine-'aalt' Alle Alternativen zeigen 1" otilde.sc
EndChar

StartChar: odieresis
Encoding: 246 246 36
Width: 551
VWidth: 999
Flags: HW
HStem: -10 42<240.884 341.151> 402 42<214.256 315.486> 519 109<133.037 221.257 312.743 400.963>
VStem: 35 140<118.075 311.105> 122 110<530.463 616.462> 302 110<530.463 616.462> 382 140<116.913 317.204>
LayerCount: 2
Fore
SplineSet
431.794921875 573 m 0
 438.383789062 604 467.485351562 628 498.485351562 628 c 0
 528.485351562 628 548.383789062 604 541.794921875 573 c 0
 535.41796875 543 505.31640625 519 475.31640625 519 c 0
 444.31640625 519 425.41796875 543 431.794921875 573 c 0
245.794921875 573 m 0
 252.383789062 604 282.485351562 628 312.485351562 628 c 0
 343.485351562 628 362.383789062 604 355.794921875 573 c 0
 349.41796875 543 320.31640625 519 289.31640625 519 c 0
 259.31640625 519 239.41796875 543 245.794921875 573 c 0
345.447265625 402 m 0
 278.447265625 402 245.23046875 321 225.67578125 229 c 0
 209.946289062 155 215.801757812 32 297.801757812 32 c 0
 333.801757812 32 387.58203125 63.900390625 413.110351562 184 c 0
 442.23046875 321 413.447265625 402 345.447265625 402 c 0
80.9990234375 207 m 0
 93.5615234375 266.099609375 123.178710938 326.400390625 170.345703125 370 c 0
 219.49609375 415.400390625 287.475585938 444 370.375 444 c 0
 518.875 444 587.71484375 346.799804688 559.912109375 216 c 0
 548.073242188 160.299804688 516.21875 92.2998046875 455.990234375 47 c 0
 407.068359375 10.2001953125 343.374023438 -10 272.874023438 -10 c 0
 138.474609375 -10 53.2392578125 76.400390625 80.9990234375 207 c 0
EndSplineSet
Substitution2: "LinLibertine-'smcp' Gemeine nach Kapitaelchen 1" odieresis.sc
AlternateSubs2: "LinLibertine-'aalt' Alle Alternativen zeigen 1" odieresis.sc
EndChar

StartChar: divide
Encoding: 247 247 37
Width: 540
VWidth: 999
Flags: HW
HStem: 27.6 116.5<225.508 311.836> 203 66<76 461> 327.6 116.5<225.508 311.836>
VStem: 207.1 122.4<46.0234 125.601> 207.1 122.4<346.023 425.601>
LayerCount: 2
Fore
SplineSet
288.849609375 384.599609375 m 0
 295.799804688 417.299804688 329.99609375 444.099609375 363.49609375 444.099609375 c 0
 396.99609375 444.099609375 418.561523438 419 411.610351562 386.299804688 c 0
 404.8515625 354.5 370.533203125 327.599609375 337.033203125 327.599609375 c 0
 303.533203125 327.599609375 282.08984375 352.799804688 288.849609375 384.599609375 c 0
225.08203125 84.599609375 m 0
 232.033203125 117.299804688 266.229492188 144.099609375 299.729492188 144.099609375 c 0
 333.229492188 144.099609375 354.793945312 119 347.84375 86.2998046875 c 0
 341.083984375 54.5 306.766601562 27.599609375 273.266601562 27.599609375 c 0
 239.766601562 27.599609375 218.323242188 52.7998046875 225.08203125 84.599609375 c 0
529.540039062 266 m 1
 506.787109375 206 l 1
 107.787109375 206 l 1
 130.540039062 266 l 1
 529.540039062 266 l 1
EndSplineSet
EndChar

StartChar: ugrave
Encoding: 249 249 38
Width: 598
VWidth: 999
Flags: HW
HStem: -10 74<188 306.066> 18 34<526.771 582.355> 402 34<22.77 75.7019 315.77 369.604>
VStem: 93 130<86.3211 390.242> 386 130<60.129 389.887>
LayerCount: 2
Fore
SplineSet
402.262695312 674 m 1
 444.90625 550 l 2
 447.41796875 543 450.080078125 532 448.379882812 524 c 0
 446.466796875 515 436.978515625 508 427.978515625 508 c 0
 419.978515625 508 411.163085938 513.099609375 397.229492188 528 c 2
 298.547851562 633 l 1
 302.88671875 644 l 1
 312.799804688 653 346.688476562 676 382.688476562 676 c 0
 387.688476562 676 398.475585938 675 402.262695312 674 c 1
538.270507812 133 m 2
 526.154296875 76 533.274414062 60.099609375 586.690429688 55 c 1
 587.415039062 49 585.1640625 29 581.888671875 23 c 1
 510.975585938 14 448 0 408.874023438 -10 c 1
 394.874023438 -10 387.737304688 -5 389.48828125 7 c 2
 389.48828125 7 391.18359375 25.7998046875 394.340820312 51 c 1
 329.99609375 18.7998046875 251.174804688 -10 214.874023438 -10 c 0
 128.874023438 -10 98.24609375 43.5 120.883789062 150 c 2
 154.041992188 306 l 2
 171.897460938 390 153.022460938 400 107.447265625 402 c 1
 102.72265625 408 107.399414062 430 114.674804688 436 c 1
 157.461914062 435 194.75 434 246.25 434 c 0
 268.44921875 434 285.461914062 435 303.674804688 436 c 1
 308.399414062 430 310.061523438 419 306.447265625 402 c 0
 301.346679688 378 301.897460938 390 284.041992188 306 c 2
 248.544921875 139 l 2
 233.560546875 68.5 262.603515625 64 302.603515625 64 c 0
 320.103515625 64 354.20703125 65.900390625 400.142578125 91 c 1
 401.7890625 101.099609375 403.615234375 111.099609375 405.655273438 120.700195312 c 2
 445.041992188 306 l 2
 462.897460938 390 448.384765625 397 398.447265625 402 c 1
 393.72265625 408 398.399414062 430 405.674804688 436 c 1
 448.461914062 435 485.75 434 537.25 434 c 0
 559.44921875 434 576.461914062 435 594.674804688 436 c 1
 599.399414062 430 601.061523438 419 597.447265625 402 c 0
 592.346679688 378 592.897460938 390 575.041992188 306 c 2
 538.270507812 133 l 2
EndSplineSet
Substitution2: "LinLibertine-'smcp' Gemeine nach Kapitaelchen 1" ugrave.sc
AlternateSubs2: "LinLibertine-'aalt' Alle Alternativen zeigen 1" ugrave.sc
EndChar

StartChar: uacute
Encoding: 250 250 39
Width: 598
VWidth: 999
Flags: HW
HStem: -10 74<188 306.066> 18 34<526.771 582.355> 402 34<22.77 75.7019 315.77 369.604>
VStem: 93 130<86.3211 390.242> 386 130<60.129 389.887>
LayerCount: 2
Fore
SplineSet
452.262695312 674 m 1
 455.475585938 675 463.688476562 676 468.688476562 676 c 0
 498.688476562 676 514.712890625 662 520.586914062 652 c 1
 525.698242188 629 l 1
 382.7421875 521 l 2
 366.19140625 509 351.340820312 505 341.340820312 505 c 0
 333.340820312 505 327.041992188 513 328.31640625 519 c 0
 329.591796875 525 333.504882812 534 341.41796875 543 c 2
 452.262695312 674 l 1
538.270507812 133 m 2
 526.154296875 76 533.274414062 60.099609375 586.690429688 55 c 1
 587.415039062 49 585.1640625 29 581.888671875 23 c 1
 510.975585938 14 448 0 408.874023438 -10 c 1
 394.874023438 -10 387.737304688 -5 389.48828125 7 c 2
 389.48828125 7 391.18359375 25.7998046875 394.340820312 51 c 1
 329.99609375 18.7998046875 251.174804688 -10 214.874023438 -10 c 0
 128.874023438 -10 98.24609375 43.5 120.883789062 150 c 2
 154.041992188 306 l 2
 171.897460938 390 153.022460938 400 107.447265625 402 c 1
 102.72265625 408 107.399414062 430 114.674804688 436 c 1
 157.461914062 435 194.75 434 246.25 434 c 0
 268.44921875 434 285.461914062 435 303.674804688 436 c 1
 308.399414062 430 310.061523438 419 306.447265625 402 c 0
 301.346679688 378 301.897460938 390 284.041992188 306 c 2
 248.544921875 139 l 2
 233.560546875 68.5 262.603515625 64 302.603515625 64 c 0
 320.103515625 64 354.20703125 65.900390625 400.142578125 91 c 1
 401.7890625 101.099609375 403.615234375 111.099609375 405.655273438 120.700195312 c 2
 445.041992188 306 l 2
 462.897460938 390 448.384765625 397 398.447265625 402 c 1
 393.72265625 408 398.399414062 430 405.674804688 436 c 1
 448.461914062 435 485.75 434 537.25 434 c 0
 559.44921875 434 576.461914062 435 594.674804688 436 c 1
 599.399414062 430 601.061523438 419 597.447265625 402 c 0
 592.346679688 378 592.897460938 390 575.041992188 306 c 2
 538.270507812 133 l 2
EndSplineSet
Substitution2: "LinLibertine-'smcp' Gemeine nach Kapitaelchen 1" uacute.sc
AlternateSubs2: "LinLibertine-'aalt' Alle Alternativen zeigen 1" uacute.sc
EndChar

StartChar: ucircumflex
Encoding: 251 251 40
Width: 598
VWidth: 999
Flags: HW
HStem: -10 74<188 306.066> 18 34<526.771 582.355> 402 34<22.77 75.7019 315.77 369.604>
VStem: 93 130<86.3211 390.242> 386 130<60.129 389.887>
LayerCount: 2
Fore
SplineSet
447.924804688 663 m 1
 467.509765625 614 496.157226562 570 524.442382812 529 c 1
 495.404296875 510 l 1
 457.930664062 536 433.181640625 556 406.045898438 593 c 1
 359.755859375 554 327.930664062 536 282.404296875 510 c 1
 261.442382812 529 l 1
 306.157226562 570 355.72265625 615 395.924804688 663 c 1
 447.924804688 663 l 1
538.270507812 133 m 2
 526.154296875 76 533.274414062 60.099609375 586.690429688 55 c 1
 587.415039062 49 585.1640625 29 581.888671875 23 c 1
 510.975585938 14 448 0 408.874023438 -10 c 1
 394.874023438 -10 387.737304688 -5 389.48828125 7 c 2
 389.48828125 7 391.18359375 25.7998046875 394.340820312 51 c 1
 329.99609375 18.7998046875 251.174804688 -10 214.874023438 -10 c 0
 128.874023438 -10 98.24609375 43.5 120.883789062 150 c 2
 154.041992188 306 l 2
 171.897460938 390 153.022460938 400 107.447265625 402 c 1
 102.72265625 408 107.399414062 430 114.674804688 436 c 1
 157.461914062 435 194.75 434 246.25 434 c 0
 268.44921875 434 285.461914062 435 303.674804688 436 c 1
 308.399414062 430 310.061523438 419 306.447265625 402 c 0
 301.346679688 378 301.897460938 390 284.041992188 306 c 2
 248.544921875 139 l 2
 233.560546875 68.5 262.603515625 64 302.603515625 64 c 0
 320.103515625 64 354.20703125 65.900390625 400.142578125 91 c 1
 401.7890625 101.099609375 403.615234375 111.099609375 405.655273438 120.700195312 c 2
 445.041992188 306 l 2
 462.897460938 390 448.384765625 397 398.447265625 402 c 1
 393.72265625 408 398.399414062 430 405.674804688 436 c 1
 448.461914062 435 485.75 434 537.25 434 c 0
 559.44921875 434 576.461914062 435 594.674804688 436 c 1
 599.399414062 430 601.061523438 419 597.447265625 402 c 0
 592.346679688 378 592.897460938 390 575.041992188 306 c 2
 538.270507812 133 l 2
EndSplineSet
Substitution2: "LinLibertine-'smcp' Gemeine nach Kapitaelchen 1" ucircumflex.sc
AlternateSubs2: "LinLibertine-'aalt' Alle Alternativen zeigen 1" ucircumflex.sc
EndChar

StartChar: ebreve
Encoding: 277 277 41
Width: 484
VWidth: 999
Flags: HW
HStem: -10 86<216.361 345.445> 235 40<172 310> 402 42<205.631 284.5> 514 74<177.021 320.577>
VStem: 37 130<127.941 235 275 306.352> 110 33<621.43 659.121> 310 130<259 363.973> 358 32<624.913 659.188>
LayerCount: 2
Fore
SplineSet
284.775390625 667 m 1
 275.296875 613 312.983398438 588 375.983398438 588 c 0
 422.983398438 588 483.171875 603 499.775390625 667 c 1
 529.649414062 657 l 1
 497.331054688 552 411.25390625 514 360.25390625 514 c 0
 279.25390625 514 239.432617188 576 249.649414062 657 c 1
 284.775390625 667 l 1
230.453125 275 m 1
 366.453125 275 l 1
 368.877929688 277 371.641601562 290 372.916992188 296 c 0
 389.920898438 376 358.447265625 402 331.447265625 402 c 0
 320.147460938 402 291.1796875 391.799804688 270.220703125 368 c 0
 252.305664062 347.700195312 238.892578125 310 230.453125 275 c 1
453.419921875 129 m 1
 463.419921875 129 464.59375 111 461.830078125 98 c 1
 396.313476562 25 320.874023438 -10 251.874023438 -10 c 0
 180.774414062 -10 139.854492188 5.900390625 109.501953125 40 c 0
 74.94921875 78.7998046875 66.6513671875 139.5 79.0859375 198 c 0
 111.607421875 351 246.375 444 351.375 444 c 0
 498.375 444 511.607421875 351 493.540039062 266 c 0
 490.564453125 252 481.951171875 235 457.951171875 235 c 2
 217.951171875 235 l 1
 216.887695312 230 215.038085938 226 213.549804688 219 c 0
 192.719726562 121 231.154296875 76 309.154296875 76 c 0
 347.154296875 76 403.4921875 87 453.419921875 129 c 1
EndSplineSet
EndChar

StartChar: Edotaccent
Encoding: 278 278 42
Width: 604
VWidth: 999
Flags: HW
HStem: -2 34<6.77002 80.9433> 0 42<241.31 449.205> 317 50<237 396.134> 603 42<241.649 436.3> 613 34<7.25781 80.9433> 705 128<242.302 342.126>
VStem: 97 140<44.9117 317 367 599.635> 226 135<723.993 815.845> 409 43<252.086 302.875 377.375 431.914> 481 43<498.655 551.392> 520 45<116.761 167.944>
LayerCount: 2
Fore
SplineSet
408.880859375 771 m 0
 416.108398438 805 450.059570312 833 484.059570312 833 c 0
 518.059570312 833 540.108398438 805 532.880859375 771 c 0
 525.654296875 737 491.702148438 709 457.702148438 709 c 0
 423.702148438 709 401.654296875 737 408.880859375 771 c 0
395.583007812 365 m 2
 462.583007812 365 485.49609375 374 500.186523438 429 c 1
 507.461914062 435 538.461914062 435 543.186523438 429 c 1
 535.810546875 399 530.02734375 376.5 522.907226562 343 c 0
 515.616210938 308.700195312 512.641601562 290 506.202148438 255 c 1
 498.926757812 249 467.926757812 249 463.202148438 255 c 1
 469.766601562 300 454.805664062 319 385.805664062 319 c 2
 304.805664062 319 l 1
 256.129882812 90 l 2
 250.390625 63 264.927734375 42 286.927734375 42 c 2
 387.927734375 42 l 2
 463.927734375 42 520.830078125 98 556.134765625 170 c 1
 569.915039062 173.200195312 590.947265625 171 600.072265625 165 c 1
 581.231445312 114 562.203125 48 537.575195312 -2 c 1
 537.575195312 -2 448 0 400 0 c 2
 165 0 l 1
 165 0 58.787109375 -1 9.5751953125 -2 c 1
 4.8505859375 4 9.5263671875 26 16.8017578125 32 c 1
 87.439453125 35 105.290039062 39 122.931640625 122 c 2
 207.954101562 522 l 2
 225.596679688 605 209.659179688 610 140.296875 613 c 1
 135.572265625 619 140.249023438 641 147.524414062 647 c 1
 197.311523438 646 301.098632812 645 301.098632812 645 c 1
 596.098632812 645 l 2
 620.098632812 645 628.311523438 646 645.94921875 649 c 0
 648.94921875 649 649.736328125 648 649.311523438 646 c 0
 649.611328125 638 634.206054688 542 630.491210938 501 c 1
 619.69140625 496.299804688 598.4453125 494.200195312 586.427734375 496 c 1
 579.094726562 565 566.171875 603 491.171875 603 c 2
 406.171875 603 l 2
 382.171875 603 359.857421875 578 354.755859375 554 c 2
 314.583007812 365 l 1
 395.583007812 365 l 2
EndSplineSet
Position2: "'cpsp' Versalabstaende 1" dx=2 dy=0 dh=5 dv=0
EndChar

StartChar: edotaccent
Encoding: 279 279 43
Width: 484
VWidth: 999
Flags: HW
HStem: -10 86<213.361 342.445> 235 40<169 307> 402 42<202.631 281.5> 540 128<192.287 292.126>
VStem: 34 130<127.941 235 275 306.352> 176 135<558.993 650.845> 307 130<259 363.973>
LayerCount: 2
Fore
SplineSet
302.68359375 596 m 0
 309.060546875 626 338.862304688 658 385.862304688 658 c 0
 427.862304688 658 443.209960938 622 436.833007812 592 c 0
 431.306640625 566 397.655273438 530 352.655273438 530 c 0
 312.655273438 530 295.668945312 563 302.68359375 596 c 0
230.453125 275 m 1
 366.453125 275 l 1
 368.877929688 277 371.641601562 290 372.916992188 296 c 0
 389.920898438 376 358.447265625 402 331.447265625 402 c 0
 320.147460938 402 291.1796875 391.799804688 270.220703125 368 c 0
 252.305664062 347.700195312 238.892578125 310 230.453125 275 c 1
453.419921875 129 m 1
 463.419921875 129 464.59375 111 461.830078125 98 c 1
 396.313476562 25 320.874023438 -10 251.874023438 -10 c 0
 180.774414062 -10 139.854492188 5.900390625 109.501953125 40 c 0
 74.94921875 78.7998046875 66.6513671875 139.5 79.0859375 198 c 0
 111.607421875 351 246.375 444 351.375 444 c 0
 498.375 444 511.607421875 351 493.540039062 266 c 0
 490.564453125 252 481.951171875 235 457.951171875 235 c 2
 217.951171875 235 l 1
 216.887695312 230 215.038085938 226 213.549804688 219 c 0
 192.719726562 121 231.154296875 76 309.154296875 76 c 0
 347.154296875 76 403.4921875 87 453.419921875 129 c 1
EndSplineSet
EndChar

StartChar: Eogonek
Encoding: 280 280 44
Width: 604
VWidth: 999
Flags: HW
HStem: -224 39<385.181 468.941> 0 25<454.256 490.88> 0 33<27 94.1445> 0 46<224.232 442.935> 323 42<224 361.625> 427 20<383 415> 600 46<224.232 421.482> 613 33<27 94.1445>
VStem: 101 123<46.578 323 365 599.422> 311 60<-173.091 -74.5789> 372 36<251.814 315.565 372.621 436.233> 474 40<482.425 531.807> 499 43<118.211 170.628>
LayerCount: 2
Fore
SplineSet
459.377929688 -177 m 1
 425.725585938 -213 377.686523438 -232 338.686523438 -232 c 0
 319.38671875 -232 304.490234375 -225.400390625 292.087890625 -216 c 0
 272.375976562 -201 261.611328125 -175.900390625 270.092773438 -136 c 0
 280.379882812 -87.599609375 339.895507812 -30.599609375 398.400390625 0 c 1
 165 0 l 1
 165 0 58.787109375 -1 9.5751953125 -2 c 1
 4.8505859375 4 9.5263671875 26 16.8017578125 32 c 1
 87.439453125 35 105.290039062 39 122.931640625 122 c 2
 207.954101562 522 l 2
 225.596679688 605 209.659179688 610 140.296875 613 c 1
 135.572265625 619 140.249023438 641 147.524414062 647 c 1
 197.311523438 646 301.098632812 645 301.098632812 645 c 1
 596.098632812 645 l 2
 620.098632812 645 628.311523438 646 645.94921875 649 c 0
 648.94921875 649 649.736328125 648 649.311523438 646 c 0
 649.611328125 638 634.206054688 542 630.491210938 501 c 1
 619.69140625 496.299804688 598.4453125 494.200195312 586.427734375 496 c 1
 579.094726562 565 566.171875 603 491.171875 603 c 2
 406.171875 603 l 2
 382.171875 603 359.857421875 578 354.755859375 554 c 2
 314.583007812 365 l 1
 395.583007812 365 l 2
 462.583007812 365 485.49609375 374 500.186523438 429 c 1
 507.461914062 435 538.461914062 435 543.186523438 429 c 1
 535.810546875 399 530.02734375 376.5 522.907226562 343 c 0
 515.616210938 308.700195312 512.641601562 290 506.202148438 255 c 1
 498.926757812 249 467.926757812 249 463.202148438 255 c 1
 469.766601562 300 454.805664062 319 385.805664062 319 c 2
 304.805664062 319 l 1
 256.129882812 90 l 2
 250.390625 63 264.927734375 42 286.927734375 42 c 2
 387.927734375 42 l 2
 463.927734375 42 520.830078125 98 556.134765625 170 c 1
 569.915039062 173.200195312 590.947265625 171 600.072265625 165 c 1
 581.231445312 114 562.203125 48 537.575195312 -2 c 1
 537.575195312 -2 508.102539062 -1.400390625 473.9296875 -0.7998046875 c 1
 425.833984375 -11.599609375 376.12109375 -70 363.3671875 -130 c 0
 356.565429688 -162 371.940429688 -172 389.440429688 -172 c 0
 406.440429688 -172 431.078125 -169 449.266601562 -154 c 1
 459.377929688 -177 l 1
EndSplineSet
Substitution2: "LinLibertine-'c2sc' Versale nach Kapitaelchen 1" eogonek.sc
Position2: "'cpsp' Versalabstaende 1" dx=2 dy=0 dh=5 dv=0
EndChar

StartChar: eogonek
Encoding: 281 281 45
Width: 484
VWidth: 999
Flags: HW
HStem: -218 40<269.1 348.306> -10 56<218.732 346.305> 245 40<154 316> 402 42<199.114 288.493>
VStem: 34 115<124.669 245 285 306.603> 184 72<-166.748 -67.9608> 316 115<259 363.973>
LayerCount: 2
Fore
SplineSet
230.453125 275 m 1
 366.453125 275 l 1
 368.877929688 277 371.641601562 290 372.916992188 296 c 0
 389.920898438 376 358.447265625 402 331.447265625 402 c 0
 320.147460938 402 291.1796875 391.799804688 270.220703125 368 c 0
 252.305664062 347.700195312 238.892578125 310 230.453125 275 c 1
453.419921875 129 m 1
 463.419921875 129 464.59375 111 461.830078125 98 c 1
 422.520507812 54.2001953125 379.623046875 24.099609375 336.788085938 7 c 1
 292.88671875 -29.7001953125 261.354492188 -68.900390625 249.217773438 -126 c 0
 244.75390625 -147 259.916015625 -158 277.416015625 -158 c 0
 294.416015625 -158 319.053710938 -155 337.2421875 -140 c 1
 347.353515625 -163 l 1
 313.701171875 -199 265.663085938 -218 226.663085938 -218 c 0
 176.663085938 -218 144.251953125 -187 155.942382812 -132 c 0
 165.294921875 -88 208.728515625 -45.5 256.99609375 -9.900390625 c 1
 255.295898438 -9.900390625 253.57421875 -10 251.874023438 -10 c 0
 180.774414062 -10 139.854492188 5.900390625 109.501953125 40 c 0
 74.94921875 78.7998046875 66.6513671875 139.5 79.0859375 198 c 0
 111.607421875 351 246.375 444 351.375 444 c 0
 498.375 444 511.607421875 351 493.540039062 266 c 0
 490.564453125 252 481.951171875 235 457.951171875 235 c 2
 217.951171875 235 l 1
 216.887695312 230 215.038085938 226 213.549804688 219 c 0
 192.719726562 121 231.154296875 76 309.154296875 76 c 0
 347.154296875 76 403.4921875 87 453.419921875 129 c 1
EndSplineSet
Substitution2: "LinLibertine-'smcp' Gemeine nach Kapitaelchen 1" eogonek.sc
AlternateSubs2: "LinLibertine-'aalt' Alle Alternativen zeigen 1" eogonek.sc
EndChar

StartChar: Ecaron
Encoding: 282 282 46
Width: 604
VWidth: 999
Flags: HW
HStem: -2 34<6.77002 80.9433> 0 42<241.31 449.205> 317 50<237 396.134> 603 42<241.649 436.3> 613 34<7.25781 80.9433> 698 136
VStem: 97 140<44.9117 317 367 599.635> 199 277 409 43<252.086 302.875 377.375 431.914> 481 43<498.655 551.392> 520 45<116.761 167.944>
LayerCount: 2
Fore
SplineSet
340.74609375 808 m 1
 342.87109375 818 352.421875 830 362.272460938 834 c 1
 398.721679688 822 451.833007812 799 474.369140625 778 c 1
 509.044921875 800 569.93359375 823 609.272460938 834 c 1
 617.421875 830 619.659179688 817 617.533203125 807 c 1
 569.793945312 780 510.8671875 738 468.427734375 703 c 1
 453.364257812 698 l 1
 424.229492188 735 375.21875 782 340.74609375 808 c 1
395.583007812 365 m 2
 462.583007812 365 485.49609375 374 500.186523438 429 c 1
 507.461914062 435 538.461914062 435 543.186523438 429 c 1
 535.810546875 399 530.02734375 376.5 522.907226562 343 c 0
 515.616210938 308.700195312 512.641601562 290 506.202148438 255 c 1
 498.926757812 249 467.926757812 249 463.202148438 255 c 1
 469.766601562 300 454.805664062 319 385.805664062 319 c 2
 304.805664062 319 l 1
 256.129882812 90 l 2
 250.390625 63 264.927734375 42 286.927734375 42 c 2
 387.927734375 42 l 2
 463.927734375 42 520.830078125 98 556.134765625 170 c 1
 569.915039062 173.200195312 590.947265625 171 600.072265625 165 c 1
 581.231445312 114 562.203125 48 537.575195312 -2 c 1
 537.575195312 -2 448 0 400 0 c 2
 165 0 l 1
 165 0 58.787109375 -1 9.5751953125 -2 c 1
 4.8505859375 4 9.5263671875 26 16.8017578125 32 c 1
 87.439453125 35 105.290039062 39 122.931640625 122 c 2
 207.954101562 522 l 2
 225.596679688 605 209.659179688 610 140.296875 613 c 1
 135.572265625 619 140.249023438 641 147.524414062 647 c 1
 197.311523438 646 301.098632812 645 301.098632812 645 c 1
 596.098632812 645 l 2
 620.098632812 645 628.311523438 646 645.94921875 649 c 0
 648.94921875 649 649.736328125 648 649.311523438 646 c 0
 649.611328125 638 634.206054688 542 630.491210938 501 c 1
 619.69140625 496.299804688 598.4453125 494.200195312 586.427734375 496 c 1
 579.094726562 565 566.171875 603 491.171875 603 c 2
 406.171875 603 l 2
 382.171875 603 359.857421875 578 354.755859375 554 c 2
 314.583007812 365 l 1
 395.583007812 365 l 2
EndSplineSet
Substitution2: "LinLibertine-'c2sc' Versale nach Kapitaelchen 1" ecaron.sc
Position2: "'cpsp' Versalabstaende 1" dx=2 dy=0 dh=5 dv=0
EndChar

StartChar: ecaron
Encoding: 283 283 47
Width: 484
VWidth: 999
Flags: HW
HStem: -10 86<216.361 345.445> 235 40<172 310> 402 42<205.631 284.5>
VStem: 37 130<127.941 235 275 306.352> 310 130<259 363.973>
LayerCount: 2
Fore
SplineSet
380.25390625 514 m 1
 330.25390625 514 l 1
 311.03125 560 282.171875 603 255.673828125 643 c 1
 283.5 661 l 1
 316.760742188 634 338.72265625 615 367.645507812 577 c 1
 409.296875 613 443.760742188 634 488.5 661 c 1
 508.673828125 643 l 1
 464.171875 603 419.244140625 561 380.25390625 514 c 1
230.453125 275 m 1
 366.453125 275 l 1
 368.877929688 277 371.641601562 290 372.916992188 296 c 0
 389.920898438 376 358.447265625 402 331.447265625 402 c 0
 320.147460938 402 291.1796875 391.799804688 270.220703125 368 c 0
 252.305664062 347.700195312 238.892578125 310 230.453125 275 c 1
453.419921875 129 m 1
 463.419921875 129 464.59375 111 461.830078125 98 c 1
 396.313476562 25 320.874023438 -10 251.874023438 -10 c 0
 180.774414062 -10 139.854492188 5.900390625 109.501953125 40 c 0
 74.94921875 78.7998046875 66.6513671875 139.5 79.0859375 198 c 0
 111.607421875 351 246.375 444 351.375 444 c 0
 498.375 444 511.607421875 351 493.540039062 266 c 0
 490.564453125 252 481.951171875 235 457.951171875 235 c 2
 217.951171875 235 l 1
 216.887695312 230 215.038085938 226 213.549804688 219 c 0
 192.719726562 121 231.154296875 76 309.154296875 76 c 0
 347.154296875 76 403.4921875 87 453.419921875 129 c 1
EndSplineSet
Substitution2: "LinLibertine-'smcp' Gemeine nach Kapitaelchen 1" ecaron.sc
AlternateSubs2: "LinLibertine-'aalt' Alle Alternativen zeigen 1" ecaron.sc
EndChar

StartChar: Gcircumflex
Encoding: 284 284 48
Width: 755
VWidth: 999
Flags: HW
HStem: -10 42<327.927 511.946> 271 37<454.77 530.366 691.908 734.23> 616 42<307.193 507.087> 698 136
VStem: 32 151<199.242 425.667> 280 277 540 145<78.4212 260.935> 633 44<458.045 503.422>
LayerCount: 2
Fore
SplineSet
710.890625 724 m 1
 708.765625 714 699.357421875 702.200195312 689.364257812 698 c 1
 652.915039062 710 599.803710938 733 577.267578125 754 c 1
 542.591796875 732 481.702148438 709 442.364257812 698 c 1
 434.157226562 702.200195312 431.977539062 715 434.103515625 725 c 1
 481.842773438 752 541.012695312 794.200195312 583.208984375 829 c 1
 598.272460938 834 l 1
 627.329101562 797.099609375 676.416992188 750 710.890625 724 c 1
546.862304688 658 m 0
 668.862304688 658 727.422851562 623 787.422851562 623 c 1
 779.119140625 551 774.491210938 501 774.563476562 459 c 1
 729.288085938 453 l 1
 721.568359375 539 668.934570312 616 523.934570312 616 c 0
 467.834960938 616 408.434570312 595.299804688 356.206054688 542 c 0
 306.022460938 490.799804688 270.721679688 412.700195312 252.505859375 327 c 0
 224.448242188 195 253.801757812 32 431.801757812 32 c 0
 485.801757812 32 519.927734375 42 560.729492188 74 c 1
 592.400390625 223 l 2
 600.923828125 263.099609375 574.610351562 266.799804688 520.602539062 271 c 1
 515.877929688 277 521.192382812 302 528.467773438 308 c 1
 575.254882812 307 638.041992188 306 677.041992188 306 c 0
 717.041992188 306 766.254882812 307 796.467773438 308 c 1
 801.192382812 302 795.877929688 277 788.602539062 271 c 1
 758.96484375 268 739.83984375 258 732.400390625 223 c 2
 707.53125 106 l 2
 705.193359375 95 708.4921875 87 717.579101562 78 c 1
 639.1015625 24 517.874023438 -10 399.874023438 -10 c 0
 288.874023438 -10 211.235351562 12.400390625 156.028320312 66 c 0
 96.1787109375 124.099609375 78.125 217 97.2548828125 307 c 0
 120.317382812 415.5 178.705078125 505.299804688 262.201171875 565.5 c 0
 347.958007812 627.400390625 443.862304688 658 546.862304688 658 c 0
EndSplineSet
Position2: "'cpsp' Versalabstaende 1" dx=2 dy=0 dh=5 dv=0
EndChar

StartChar: gcircumflex
Encoding: 285 285 49
Width: 521
VWidth: 999
Flags: HW
HStem: -238 42<178.622 331.027> -12 68<200.45 373.262> 135 37<205.129 289.171> 409 35<196.474 280.87> 424 43<370.607 460>
VStem: 38 94<-154.282 -55.8943> 62 106<210.3 365.373> 71 84<55.4643 131.752> 316 108<211.187 370.331> 406 91<-121.914 -39.1241>
LayerCount: 2
Fore
SplineSet
408.924804688 663 m 1
 428.509765625 614 457.157226562 570 485.442382812 529 c 1
 456.404296875 510 l 1
 418.930664062 536 394.181640625 556 367.045898438 593 c 1
 320.755859375 554 288.930664062 536 243.404296875 510 c 1
 222.442382812 529 l 1
 267.157226562 570 316.72265625 615 356.924804688 663 c 1
 408.924804688 663 l 1
351.215820312 288 m 0
 368.0078125 367 356.297851562 406 309.297851562 406 c 0
 270.297851562 406 246.55859375 379 230.830078125 305 c 0
 219.989257812 254 212.259765625 180 274.259765625 180 c 0
 300.259765625 180 330.810546875 192 351.215820312 288 c 0
169.686523438 -25 m 0
 148.686523438 -25 136.111328125 -23 126.9609375 -19 c 1
 111.709960938 -39 106.821289062 -62 99.5947265625 -96 c 0
 88.75390625 -147 123.338867188 -196 189.338867188 -196 c 0
 227.638671875 -196 278.78515625 -193.900390625 313.504882812 -176.400390625 c 0
 350.358398438 -157.799804688 375.087890625 -117.200195312 382.783203125 -81 c 0
 394.090820312 -27.7998046875 246.486328125 -25 169.686523438 -25 c 0
550.747070312 394 m 0
 525.747070312 394 512.2109375 415 510.974609375 428 c 1
 509.25 434 503.524414062 440 494.524414062 440 c 0
 484.524414062 440 447.69921875 422 437.573242188 412 c 1
 465.622070312 384 485.756835938 347 473.853515625 291 c 0
 464.310546875 246.099609375 436.54296875 210.5 402.323242188 185 c 0
 361.803710938 154.799804688 312.182617188 142 261.182617188 142 c 0
 230.182617188 142 208.895507812 143 190.021484375 153 c 1
 182.470703125 141 169.995117188 127 166.59375 111 c 0
 158.091796875 71 184.666015625 69 202.666015625 69 c 0
 276.166015625 69 425.478515625 62 458.65234375 36 c 0
 493.19140625 8.900390625 493.858398438 -33.599609375 489.309570312 -55 c 0
 465.927734375 -165 291.411132812 -238 152.411132812 -238 c 0
 104.51171875 -238 39.365234375 -232.099609375 6.42578125 -205 c 0
 -16.9716796875 -185.700195312 -19.3955078125 -143 -11.53125 -106 c 0
 -7.91796875 -89 48.1982421875 -32 96.724609375 -6 c 1
 78.4853515625 0.400390625 67.943359375 8.2001953125 61.67578125 22 c 0
 54.8642578125 37 54.3935546875 48.900390625 58.4541015625 68 c 0
 62.7470703125 88.2001953125 121.970703125 141 158.603515625 167.5 c 1
 116.236328125 194 98.501953125 247 108.916992188 296 c 0
 119.821289062 347.299804688 155.361328125 385.599609375 201.573242188 412 c 0
 239.243164062 433.5 283.275390625 444 326.375 444 c 0
 371.375 444 391.950195312 442 407.82421875 432 c 1
 442.350585938 458 507.365234375 491 551.365234375 491 c 0
 589.365234375 491 609.201171875 462 605.162109375 443 c 0
 597.297851562 406 578.747070312 394 550.747070312 394 c 0
EndSplineSet
EndChar

StartChar: Gbreve
Encoding: 286 286 50
Width: 755
VWidth: 999
Flags: HW
HStem: -10 42<327.927 511.946> 271 37<454.77 530.366 691.908 734.23> 616 42<307.193 507.087> 705 74<314.883 459.873>
VStem: 32 151<199.242 425.667> 253 28<808.109 830.75> 497 27<810.51 830.778> 540 145<78.4212 260.935> 633 44<458.045 503.422>
LayerCount: 2
Fore
SplineSet
700.421875 830 m 1
 679.330078125 759 604.852539062 705 538.852539062 705 c 0
 465.852539062 705 419.54296875 760 429.421875 830 c 1
 458.059570312 833 l 1
 457.76953125 794 501.58203125 779 554.58203125 779 c 0
 603.58203125 779 658.76953125 794 674.059570312 833 c 1
 700.421875 830 l 1
546.862304688 658 m 0
 668.862304688 658 727.422851562 623 787.422851562 623 c 1
 779.119140625 551 774.491210938 501 774.563476562 459 c 1
 729.288085938 453 l 1
 721.568359375 539 668.934570312 616 523.934570312 616 c 0
 467.834960938 616 408.434570312 595.299804688 356.206054688 542 c 0
 306.022460938 490.799804688 270.721679688 412.700195312 252.505859375 327 c 0
 224.448242188 195 253.801757812 32 431.801757812 32 c 0
 485.801757812 32 519.927734375 42 560.729492188 74 c 1
 592.400390625 223 l 2
 600.923828125 263.099609375 574.610351562 266.799804688 520.602539062 271 c 1
 515.877929688 277 521.192382812 302 528.467773438 308 c 1
 575.254882812 307 638.041992188 306 677.041992188 306 c 0
 717.041992188 306 766.254882812 307 796.467773438 308 c 1
 801.192382812 302 795.877929688 277 788.602539062 271 c 1
 758.96484375 268 739.83984375 258 732.400390625 223 c 2
 707.53125 106 l 2
 705.193359375 95 708.4921875 87 717.579101562 78 c 1
 639.1015625 24 517.874023438 -10 399.874023438 -10 c 0
 288.874023438 -10 211.235351562 12.400390625 156.028320312 66 c 0
 96.1787109375 124.099609375 78.125 217 97.2548828125 307 c 0
 120.317382812 415.5 178.705078125 505.299804688 262.201171875 565.5 c 0
 347.958007812 627.400390625 443.862304688 658 546.862304688 658 c 0
EndSplineSet
Substitution2: "LinLibertine-'c2sc' Versale nach Kapitaelchen 1" gbreve.sc
Position2: "'cpsp' Versalabstaende 1" dx=2 dy=0 dh=5 dv=0
EndChar

StartChar: gbreve
Encoding: 287 287 51
Width: 521
VWidth: 999
Flags: HW
HStem: -238 42<178.622 331.027> -12 68<200.45 373.262> 135 37<205.129 289.171> 409 35<196.474 280.87> 424 43<370.607 460> 494 62<164.853 299.87>
VStem: 38 94<-154.282 -55.8943> 62 106<210.3 365.373> 71 84<55.4643 131.752> 97 32<600.278 635.062> 316 108<211.187 370.331> 336 31<601.121 635.161> 406 91<-121.914 -39.1241>
LayerCount: 2
Fore
SplineSet
269.973632812 635 m 1
 260.495117188 581 298.181640625 556 361.181640625 556 c 0
 408.181640625 556 468.370117188 571 484.973632812 635 c 1
 514.84765625 625 l 1
 482.529296875 520 396.452148438 482 345.452148438 482 c 0
 264.452148438 482 224.630859375 544 234.84765625 625 c 1
 269.973632812 635 l 1
351.215820312 288 m 0
 368.0078125 367 356.297851562 406 309.297851562 406 c 0
 270.297851562 406 246.55859375 379 230.830078125 305 c 0
 219.989257812 254 212.259765625 180 274.259765625 180 c 0
 300.259765625 180 330.810546875 192 351.215820312 288 c 0
169.686523438 -25 m 0
 148.686523438 -25 136.111328125 -23 126.9609375 -19 c 1
 111.709960938 -39 106.821289062 -62 99.5947265625 -96 c 0
 88.75390625 -147 123.338867188 -196 189.338867188 -196 c 0
 227.638671875 -196 278.78515625 -193.900390625 313.504882812 -176.400390625 c 0
 350.358398438 -157.799804688 375.087890625 -117.200195312 382.783203125 -81 c 0
 394.090820312 -27.7998046875 246.486328125 -25 169.686523438 -25 c 0
550.747070312 394 m 0
 525.747070312 394 512.2109375 415 510.974609375 428 c 1
 509.25 434 503.524414062 440 494.524414062 440 c 0
 484.524414062 440 447.69921875 422 437.573242188 412 c 1
 465.622070312 384 485.756835938 347 473.853515625 291 c 0
 464.310546875 246.099609375 436.54296875 210.5 402.323242188 185 c 0
 361.803710938 154.799804688 312.182617188 142 261.182617188 142 c 0
 230.182617188 142 208.895507812 143 190.021484375 153 c 1
 182.470703125 141 169.995117188 127 166.59375 111 c 0
 158.091796875 71 184.666015625 69 202.666015625 69 c 0
 276.166015625 69 425.478515625 62 458.65234375 36 c 0
 493.19140625 8.900390625 493.858398438 -33.599609375 489.309570312 -55 c 0
 465.927734375 -165 291.411132812 -238 152.411132812 -238 c 0
 104.51171875 -238 39.365234375 -232.099609375 6.42578125 -205 c 0
 -16.9716796875 -185.700195312 -19.3955078125 -143 -11.53125 -106 c 0
 -7.91796875 -89 48.1982421875 -32 96.724609375 -6 c 1
 78.4853515625 0.400390625 67.943359375 8.2001953125 61.67578125 22 c 0
 54.8642578125 37 54.3935546875 48.900390625 58.4541015625 68 c 0
 62.7470703125 88.2001953125 121.970703125 141 158.603515625 167.5 c 1
 116.236328125 194 98.501953125 247 108.916992188 296 c 0
 119.821289062 347.299804688 155.361328125 385.599609375 201.573242188 412 c 0
 239.243164062 433.5 283.275390625 444 326.375 444 c 0
 371.375 444 391.950195312 442 407.82421875 432 c 1
 442.350585938 458 507.365234375 491 551.365234375 491 c 0
 589.365234375 491 609.201171875 462 605.162109375 443 c 0
 597.297851562 406 578.747070312 394 550.747070312 394 c 0
EndSplineSet
Substitution2: "LinLibertine-'smcp' Gemeine nach Kapitaelchen 1" gbreve.sc
AlternateSubs2: "LinLibertine-'aalt' Alle Alternativen zeigen 1" gbreve.sc
EndChar

StartChar: Gdotaccent
Encoding: 288 288 52
Width: 755
VWidth: 999
Flags: HW
HStem: -10 42<327.927 511.946> 271 37<454.77 530.366 691.908 734.23> 616 42<307.193 507.087> 705 128<337.302 437.126>
VStem: 32 151<199.242 425.667> 321 135<723.993 815.845> 540 145<78.4212 260.935> 633 44<458.045 503.422>
LayerCount: 2
Fore
SplineSet
502.880859375 771 m 0
 510.108398438 805 544.059570312 833 578.059570312 833 c 0
 612.059570312 833 634.108398438 805 626.880859375 771 c 0
 619.654296875 737 585.702148438 709 551.702148438 709 c 0
 517.702148438 709 495.654296875 737 502.880859375 771 c 0
546.862304688 658 m 0
 668.862304688 658 727.422851562 623 787.422851562 623 c 1
 779.119140625 551 774.491210938 501 774.563476562 459 c 1
 729.288085938 453 l 1
 721.568359375 539 668.934570312 616 523.934570312 616 c 0
 467.834960938 616 408.434570312 595.299804688 356.206054688 542 c 0
 306.022460938 490.799804688 270.721679688 412.700195312 252.505859375 327 c 0
 224.448242188 195 253.801757812 32 431.801757812 32 c 0
 485.801757812 32 519.927734375 42 560.729492188 74 c 1
 592.400390625 223 l 2
 600.923828125 263.099609375 574.610351562 266.799804688 520.602539062 271 c 1
 515.877929688 277 521.192382812 302 528.467773438 308 c 1
 575.254882812 307 638.041992188 306 677.041992188 306 c 0
 717.041992188 306 766.254882812 307 796.467773438 308 c 1
 801.192382812 302 795.877929688 277 788.602539062 271 c 1
 758.96484375 268 739.83984375 258 732.400390625 223 c 2
 707.53125 106 l 2
 705.193359375 95 708.4921875 87 717.579101562 78 c 1
 639.1015625 24 517.874023438 -10 399.874023438 -10 c 0
 288.874023438 -10 211.235351562 12.400390625 156.028320312 66 c 0
 96.1787109375 124.099609375 78.125 217 97.2548828125 307 c 0
 120.317382812 415.5 178.705078125 505.299804688 262.201171875 565.5 c 0
 347.958007812 627.400390625 443.862304688 658 546.862304688 658 c 0
EndSplineSet
Position2: "'cpsp' Versalabstaende 1" dx=2 dy=0 dh=5 dv=0
EndChar

StartChar: gdotaccent
Encoding: 289 289 53
Width: 521
VWidth: 999
Flags: HW
HStem: -238 42<167.689 332.918> -25 94<154.499 363.029> 135 38<193.298 271.19> 406 38<184.038 264.797> 430 51<359.912 466> 514 128<180.302 280.126>
VStem: 19 109<-158.325 -66.8839> 46 120<217.796 364.884> 52 99<58.4478 119> 164 135<532.993 624.845> 290 122<210.992 366.087> 392 101<-122.686 -50.2685>
LayerCount: 2
Fore
SplineSet
290.68359375 596 m 0
 297.060546875 626 326.862304688 658 373.862304688 658 c 0
 415.862304688 658 431.209960938 622 424.833007812 592 c 0
 419.306640625 566 385.655273438 530 340.655273438 530 c 0
 300.655273438 530 283.668945312 563 290.68359375 596 c 0
351.215820312 288 m 0
 368.0078125 367 356.297851562 406 309.297851562 406 c 0
 270.297851562 406 246.55859375 379 230.830078125 305 c 0
 219.989257812 254 212.259765625 180 274.259765625 180 c 0
 300.259765625 180 330.810546875 192 351.215820312 288 c 0
169.686523438 -25 m 0
 148.686523438 -25 136.111328125 -23 126.9609375 -19 c 1
 111.709960938 -39 106.821289062 -62 99.5947265625 -96 c 0
 88.75390625 -147 123.338867188 -196 189.338867188 -196 c 0
 227.638671875 -196 278.78515625 -193.900390625 313.504882812 -176.400390625 c 0
 350.358398438 -157.799804688 375.087890625 -117.200195312 382.783203125 -81 c 0
 394.090820312 -27.7998046875 246.486328125 -25 169.686523438 -25 c 0
550.747070312 394 m 0
 525.747070312 394 512.2109375 415 510.974609375 428 c 1
 509.25 434 503.524414062 440 494.524414062 440 c 0
 484.524414062 440 447.69921875 422 437.573242188 412 c 1
 465.622070312 384 485.756835938 347 473.853515625 291 c 0
 464.310546875 246.099609375 436.54296875 210.5 402.323242188 185 c 0
 361.803710938 154.799804688 312.182617188 142 261.182617188 142 c 0
 230.182617188 142 208.895507812 143 190.021484375 153 c 1
 182.470703125 141 169.995117188 127 166.59375 111 c 0
 158.091796875 71 184.666015625 69 202.666015625 69 c 0
 276.166015625 69 425.478515625 62 458.65234375 36 c 0
 493.19140625 8.900390625 493.858398438 -33.599609375 489.309570312 -55 c 0
 465.927734375 -165 291.411132812 -238 152.411132812 -238 c 0
 104.51171875 -238 39.365234375 -232.099609375 6.42578125 -205 c 0
 -16.9716796875 -185.700195312 -19.3955078125 -143 -11.53125 -106 c 0
 -7.91796875 -89 48.1982421875 -32 96.724609375 -6 c 1
 78.4853515625 0.400390625 67.943359375 8.2001953125 61.67578125 22 c 0
 54.8642578125 37 54.3935546875 48.900390625 58.4541015625 68 c 0
 62.7470703125 88.2001953125 121.970703125 141 158.603515625 167.5 c 1
 116.236328125 194 98.501953125 247 108.916992188 296 c 0
 119.821289062 347.299804688 155.361328125 385.599609375 201.573242188 412 c 0
 239.243164062 433.5 283.275390625 444 326.375 444 c 0
 371.375 444 391.950195312 442 407.82421875 432 c 1
 442.350585938 458 507.365234375 491 551.365234375 491 c 0
 589.365234375 491 609.201171875 462 605.162109375 443 c 0
 597.297851562 406 578.747070312 394 550.747070312 394 c 0
EndSplineSet
EndChar

StartChar: Gcommaaccent
Encoding: 290 290 54
Width: 755
VWidth: 999
Flags: HW
HStem: -238 28<316.372 347.68> -134 83<327.251 381.724> -10 42<327.927 511.946> 271 37<454.77 530.366 691.908 734.23> 616 42<307.193 507.087>
VStem: 32 151<199.242 425.667> 382 61<-187.192 -97.5> 540 145<78.4212 260.935> 633 44<458.045 503.422>
LayerCount: 2
Fore
SplineSet
360.159179688 -51 m 0
 392.159179688 -51 428.971679688 -66 415.580078125 -129 c 0
 403.46484375 -186 342.961914062 -226 272.411132812 -238 c 1
 263.686523438 -232 265.8125 -222 272.36328125 -210 c 1
 314.701171875 -199 344.802734375 -175 348.62890625 -157 c 0
 352.879882812 -137 332.092773438 -136 324.517578125 -134 c 0
 303.580078125 -129 295.768554688 -114 301.08203125 -89 c 0
 304.696289062 -72 337.159179688 -51 360.159179688 -51 c 0
546.862304688 658 m 0
 668.862304688 658 727.422851562 623 787.422851562 623 c 1
 779.119140625 551 774.491210938 501 774.563476562 459 c 1
 729.288085938 453 l 1
 721.568359375 539 668.934570312 616 523.934570312 616 c 0
 467.834960938 616 408.434570312 595.299804688 356.206054688 542 c 0
 306.022460938 490.799804688 270.721679688 412.700195312 252.505859375 327 c 0
 224.448242188 195 253.801757812 32 431.801757812 32 c 0
 485.801757812 32 519.927734375 42 560.729492188 74 c 1
 592.400390625 223 l 2
 600.923828125 263.099609375 574.610351562 266.799804688 520.602539062 271 c 1
 515.877929688 277 521.192382812 302 528.467773438 308 c 1
 575.254882812 307 638.041992188 306 677.041992188 306 c 0
 717.041992188 306 766.254882812 307 796.467773438 308 c 1
 801.192382812 302 795.877929688 277 788.602539062 271 c 1
 758.96484375 268 739.83984375 258 732.400390625 223 c 2
 707.53125 106 l 2
 705.193359375 95 708.4921875 87 717.579101562 78 c 1
 639.1015625 24 517.874023438 -10 399.874023438 -10 c 0
 288.874023438 -10 211.235351562 12.400390625 156.028320312 66 c 0
 96.1787109375 124.099609375 78.125 217 97.2548828125 307 c 0
 120.317382812 415.5 178.705078125 505.299804688 262.201171875 565.5 c 0
 347.958007812 627.400390625 443.862304688 658 546.862304688 658 c 0
EndSplineSet
Position2: "'cpsp' Versalabstaende 1" dx=2 dy=0 dh=5 dv=0
EndChar

StartChar: gcommaaccent
Encoding: 291 291 55
Width: 521
VWidth: 999
Flags: HW
HStem: -238 42<178.622 331.027> -12 68<200.45 373.262> 135 37<205.129 289.171> 409 35<196.474 280.87> 424 43<370.607 460> 511 82<199.561 272.708> 673 17<251.498 273>
VStem: 38 94<-154.282 -55.8943> 62 106<210.3 365.373> 71 84<55.4643 131.752> 166 32<584 635.93> 316 108<211.187 370.331> 406 91<-121.914 -39.1241>
LayerCount: 2
Fore
SplineSet
339.978515625 508 m 0
 307.978515625 508 271.166992188 523 284.55859375 586 c 0
 296.673828125 643 357.17578125 683 427.7265625 695 c 1
 436.451171875 689 434.326171875 679 427.775390625 667 c 1
 385.4375 656 355.3359375 632 351.509765625 614 c 0
 347.258789062 594 368.045898438 593 375.62109375 591 c 0
 396.55859375 586 404.370117188 571 399.055664062 546 c 0
 395.442382812 529 362.978515625 508 339.978515625 508 c 0
351.215820312 288 m 0
 368.0078125 367 356.297851562 406 309.297851562 406 c 0
 270.297851562 406 246.55859375 379 230.830078125 305 c 0
 219.989257812 254 212.259765625 180 274.259765625 180 c 0
 300.259765625 180 330.810546875 192 351.215820312 288 c 0
169.686523438 -25 m 0
 148.686523438 -25 136.111328125 -23 126.9609375 -19 c 1
 111.709960938 -39 106.821289062 -62 99.5947265625 -96 c 0
 88.75390625 -147 123.338867188 -196 189.338867188 -196 c 0
 227.638671875 -196 278.78515625 -193.900390625 313.504882812 -176.400390625 c 0
 350.358398438 -157.799804688 375.087890625 -117.200195312 382.783203125 -81 c 0
 394.090820312 -27.7998046875 246.486328125 -25 169.686523438 -25 c 0
550.747070312 394 m 0
 525.747070312 394 512.2109375 415 510.974609375 428 c 1
 509.25 434 503.524414062 440 494.524414062 440 c 0
 484.524414062 440 447.69921875 422 437.573242188 412 c 1
 465.622070312 384 485.756835938 347 473.853515625 291 c 0
 464.310546875 246.099609375 436.54296875 210.5 402.323242188 185 c 0
 361.803710938 154.799804688 312.182617188 142 261.182617188 142 c 0
 230.182617188 142 208.895507812 143 190.021484375 153 c 1
 182.470703125 141 169.995117188 127 166.59375 111 c 0
 158.091796875 71 184.666015625 69 202.666015625 69 c 0
 276.166015625 69 425.478515625 62 458.65234375 36 c 0
 493.19140625 8.900390625 493.858398438 -33.599609375 489.309570312 -55 c 0
 465.927734375 -165 291.411132812 -238 152.411132812 -238 c 0
 104.51171875 -238 39.365234375 -232.099609375 6.42578125 -205 c 0
 -16.9716796875 -185.700195312 -19.3955078125 -143 -11.53125 -106 c 0
 -7.91796875 -89 48.1982421875 -32 96.724609375 -6 c 1
 78.4853515625 0.400390625 67.943359375 8.2001953125 61.67578125 22 c 0
 54.8642578125 37 54.3935546875 48.900390625 58.4541015625 68 c 0
 62.7470703125 88.2001953125 121.970703125 141 158.603515625 167.5 c 1
 116.236328125 194 98.501953125 247 108.916992188 296 c 0
 119.821289062 347.299804688 155.361328125 385.599609375 201.573242188 412 c 0
 239.243164062 433.5 283.275390625 444 326.375 444 c 0
 371.375 444 391.950195312 442 407.82421875 432 c 1
 442.350585938 458 507.365234375 491 551.365234375 491 c 0
 589.365234375 491 609.201171875 462 605.162109375 443 c 0
 597.297851562 406 578.747070312 394 550.747070312 394 c 0
EndSplineSet
EndChar

StartChar: Hcircumflex
Encoding: 292 292 56
Width: 817
VWidth: 999
Flags: HW
HStem: -2 34<25.6167 94.4056 273.594 342.383 425.617 494.406 673.594 742.383> 319 48<222 522> 613 34<25.6167 94.4056 273.594 342.383 425.617 494.406 673.594 742.383> 698 136
VStem: 114 140<47 598> 250 277 514 140<47 598>
LayerCount: 2
Fore
SplineSet
680.890625 724 m 1
 678.765625 714 669.357421875 702.200195312 659.364257812 698 c 1
 622.915039062 710 569.803710938 733 547.267578125 754 c 1
 512.591796875 732 451.702148438 709 412.364257812 698 c 1
 404.157226562 702.200195312 401.977539062 715 404.103515625 725 c 1
 451.842773438 752 511.012695312 794.200195312 553.208984375 829 c 1
 568.272460938 834 l 1
 597.329101562 797.099609375 646.416992188 750 680.890625 724 c 1
675.166992188 523 m 2
 692.809570312 606 665.659179688 610 611.296875 613 c 1
 602.572265625 619 607.249023438 641 618.524414062 647 c 1
 658.311523438 646 732.098632812 645 772.098632812 645 c 0
 812.098632812 645 884.311523438 646 924.524414062 647 c 1
 933.249023438 641 928.572265625 619 917.296875 613 c 1
 861.659179688 610 832.809570312 606 815.166992188 523 c 2
 729.931640625 122 l 2
 712.290039062 39 739.439453125 35 793.801757812 32 c 1
 802.526367188 26 797.850585938 4 786.575195312 -2 c 1
 746.787109375 -1 675 0 635 0 c 0
 595 0 520.787109375 -1 480.575195312 -2 c 1
 471.850585938 4 476.526367188 26 487.801757812 32 c 1
 543.439453125 35 572.290039062 39 589.931640625 122 c 2
 631.805664062 319 l 1
 321.805664062 319 l 1
 279.931640625 122 l 2
 262.290039062 39 289.439453125 35 343.801757812 32 c 1
 352.526367188 26 347.850585938 4 336.575195312 -2 c 1
 296.787109375 -1 225 0 185 0 c 0
 145 0 70.787109375 -1 30.5751953125 -2 c 1
 21.8505859375 4 26.5263671875 26 37.8017578125 32 c 1
 93.439453125 35 122.290039062 39 139.931640625 122 c 2
 225.166992188 523 l 2
 242.809570312 606 215.659179688 610 161.296875 613 c 1
 152.572265625 619 157.249023438 641 168.524414062 647 c 1
 208.311523438 646 282.098632812 645 322.098632812 645 c 0
 362.098632812 645 434.311523438 646 474.524414062 647 c 1
 483.249023438 641 478.572265625 619 467.296875 613 c 1
 411.659179688 610 382.809570312 606 365.166992188 523 c 2
 332.0078125 367 l 1
 642.0078125 367 l 1
 675.166992188 523 l 2
EndSplineSet
Position2: "'cpsp' Versalabstaende 1" dx=2 dy=0 dh=5 dv=0
EndChar

StartChar: hcircumflex
Encoding: 293 293 57
Width: 619
VWidth: 999
Flags: HW
HStem: -2 34<19.77 83.2627 243.609 290.23 331.77 378.004 538.737 602.23> 370 74<308.934 427> 638 34<29.1436 89.8851> 678 20<198.5 221.5>
VStem: 100 130<44.1062 341 381 631.241> 229 1<341 381> 392 130<44.1813 347.679>
LayerCount: 2
Fore
SplineSet
551.364257812 698 m 1
 570.94921875 649 599.596679688 605 627.881835938 564 c 1
 598.84375 545 l 1
 561.370117188 571 536.62109375 591 509.485351562 628 c 1
 463.196289062 589 431.370117188 571 385.84375 545 c 1
 364.881835938 564 l 1
 409.596679688 605 459.162109375 650 499.364257812 698 c 1
 551.364257812 698 l 1
555.20703125 128 m 2
 537.352539062 44 551.439453125 35 611.801757812 32 c 1
 616.526367188 26 611.850585938 4 604.575195312 -2 c 1
 561.787109375 -1 518.400390625 0 463 0 c 0
 415.400390625 0 382.787109375 -1 340.575195312 -2 c 1
 335.850585938 4 340.526367188 26 347.801757812 32 c 1
 389.439453125 35 407.352539062 44 425.20703125 128 c 2
 460.704101562 295 l 2
 472.8203125 352 441.645507812 370 401.645507812 370 c 0
 383.74609375 370 347.616210938 358.099609375 300.483398438 331.599609375 c 1
 256.995117188 127 l 2
 239.352539062 44 252.439453125 35 293.801757812 32 c 1
 298.526367188 26 293.850585938 4 286.575195312 -2 c 1
 243.787109375 -1 212.599609375 0 165 0 c 0
 109.599609375 0 64.787109375 -1 22.5751953125 -2 c 1
 17.8505859375 4 22.5263671875 26 29.8017578125 32 c 1
 91.439453125 35 109.352539062 44 126.995117188 127 c 2
 220.094726562 565 l 2
 234.67578125 633.599609375 229.973632812 635 168.036132812 640 c 1
 164.94921875 649 166.287109375 660 171.837890625 672 c 1
 243.475585938 675 325.813476562 686 365.364257812 698 c 1
 374.364257812 698 380.514648438 694 378.6015625 685 c 2
 378.6015625 685 367.736328125 648 353.920898438 583 c 2
 308.986328125 371.599609375 l 1
 373.395507812 407.400390625 452.575195312 444 489.375 444 c 0
 575.375 444 611.747070312 394 588.366210938 284 c 2
 555.20703125 128 l 2
EndSplineSet
EndChar

StartChar: Hbar
Encoding: 294 294 58
Width: 817
VWidth: 999
Flags: HW
HStem: -2 34<25.6167 94.4056 273.594 342.383 425.617 494.406 673.594 742.383> 319 48<222 522> 494 42<27 740> 613 34<25.6167 94.4056 273.594 342.383 425.617 494.406 673.594 742.383>
VStem: 114 140<47 598> 514 140<47 598>
LayerCount: 2
Fore
SplineSet
668.811523438 493.099609375 m 1
 593.5390625 493.700195312 517.802734375 494 492.002929688 494 c 0
 471.903320312 494 418.981445312 493.900390625 358.896484375 493.5 c 1
 332.0078125 367 l 1
 642.0078125 367 l 1
 668.811523438 493.099609375 l 1
368.357421875 536.599609375 m 1
 431.772460938 536.200195312 488.830078125 536 509.930664062 536 c 0
 534.629882812 536 605.373046875 536.200195312 677.80078125 536.799804688 c 1
 689.515625 606.5 662.501953125 610.200195312 611.296875 613 c 1
 602.572265625 619 607.249023438 641 618.524414062 647 c 1
 658.311523438 646 732.098632812 645 772.098632812 645 c 0
 812.098632812 645 884.311523438 646 924.524414062 647 c 1
 933.249023438 641 928.572265625 619 917.296875 613 c 1
 865.40234375 610.200195312 836.815429688 606.5 818.861328125 538.5 c 1
 839.346679688 538.900390625 855.252929688 539.400390625 863.780273438 540 c 1
 844.15234375 490 l 1
 837.05859375 490.5 824.643554688 490.900390625 808.428710938 491.299804688 c 1
 729.931640625 122 l 2
 712.290039062 39 739.439453125 35 793.801757812 32 c 1
 802.526367188 26 797.850585938 4 786.575195312 -2 c 1
 746.787109375 -1 675 0 635 0 c 0
 595 0 520.787109375 -1 480.575195312 -2 c 1
 471.850585938 4 476.526367188 26 487.801757812 32 c 1
 543.439453125 35 572.290039062 39 589.931640625 122 c 2
 631.805664062 319 l 1
 321.805664062 319 l 1
 279.931640625 122 l 2
 262.290039062 39 289.439453125 35 343.801757812 32 c 1
 352.526367188 26 347.850585938 4 336.575195312 -2 c 1
 296.787109375 -1 225 0 185 0 c 0
 145 0 70.787109375 -1 30.5751953125 -2 c 1
 21.8505859375 4 26.5263671875 26 37.8017578125 32 c 1
 93.439453125 35 122.290039062 39 139.931640625 122 c 2
 218.641601562 492.299804688 l 1
 173.314453125 491.700195312 136.543945312 490.900390625 122.15234375 490 c 1
 141.780273438 540 l 1
 154.7890625 539.099609375 187.26171875 538.5 228.034179688 537.900390625 c 1
 239.315429688 606.5 212.202148438 610.200195312 161.296875 613 c 1
 152.572265625 619 157.249023438 641 168.524414062 647 c 1
 208.311523438 646 282.098632812 645 322.098632812 645 c 0
 362.098632812 645 434.311523438 646 474.524414062 647 c 1
 483.249023438 641 478.572265625 619 467.296875 613 c 1
 414.90234375 610.200195312 386.215820312 606.5 368.357421875 536.599609375 c 1
EndSplineSet
Position2: "'cpsp' Versalabstaende 1" dx=2 dy=0 dh=5 dv=0
EndChar

StartChar: hbar
Encoding: 295 295 59
Width: 619
VWidth: 999
Flags: HW
HStem: -2 34<19.77 83.2627 243.609 290.23 331.77 378.004 538.737 602.23> 370 74<308.934 427> 524 42<24 313> 638 34<29.1436 89.8851> 678 20<198.5 221.5>
VStem: 100 130<44.1062 341 381 631.241> 229 1<341 381> 392 130<44.1813 347.679>
LayerCount: 2
Fore
SplineSet
555.20703125 128 m 2
 537.352539062 44 551.439453125 35 611.801757812 32 c 1
 616.526367188 26 611.850585938 4 604.575195312 -2 c 1
 561.787109375 -1 518.400390625 0 463 0 c 0
 415.400390625 0 382.787109375 -1 340.575195312 -2 c 1
 335.850585938 4 340.526367188 26 347.801757812 32 c 1
 389.439453125 35 407.352539062 44 425.20703125 128 c 2
 460.704101562 295 l 2
 472.8203125 352 441.645507812 370 401.645507812 370 c 0
 383.74609375 370 347.616210938 358.099609375 300.483398438 331.599609375 c 1
 256.995117188 127 l 2
 239.352539062 44 252.439453125 35 293.801757812 32 c 1
 298.526367188 26 293.850585938 4 286.575195312 -2 c 1
 243.787109375 -1 212.599609375 0 165 0 c 0
 109.599609375 0 64.787109375 -1 22.5751953125 -2 c 1
 17.8505859375 4 22.5263671875 26 29.8017578125 32 c 1
 91.439453125 35 109.352539062 44 126.995117188 127 c 2
 211.251953125 523.400390625 l 1
 181.32421875 522.799804688 152.3125 521.799804688 125.529296875 520 c 1
 145.157226562 570 l 1
 168.517578125 568.400390625 194.004882812 567.400390625 220.477539062 566.799804688 c 1
 234.576171875 633.599609375 229.473632812 635 168.036132812 640 c 1
 164.94921875 649 166.287109375 660 171.837890625 672 c 1
 243.475585938 675 325.813476562 686 365.364257812 698 c 1
 374.364257812 698 380.514648438 694 378.6015625 685 c 2
 378.6015625 685 367.736328125 648 353.920898438 583 c 2
 350.413085938 566.5 l 1
 382.840820312 567.099609375 414.252929688 568.099609375 443.157226562 570 c 1
 423.529296875 520 l 1
 398.090820312 521.700195312 370.224609375 522.799804688 341.251953125 523.400390625 c 1
 308.986328125 371.599609375 l 1
 373.395507812 407.400390625 452.575195312 444 489.375 444 c 0
 575.375 444 611.747070312 394 588.366210938 284 c 2
 555.20703125 128 l 2
EndSplineSet
EndChar

StartChar: Itilde
Encoding: 296 296 60
Width: 367
VWidth: 999
Flags: HW
HStem: -2 34<25.6167 94.4056 273.594 342.383> 613 34<25.6167 94.4056 273.594 342.383> 692 70<192.399 293.905> 730 71<85.8584 185.467>
VStem: 46 26<694.865 716.979> 114 140<47 598> 307 28<782.298 798.118>
LayerCount: 2
Fore
SplineSet
419.967773438 762 m 0
 433.967773438 762 456.456054688 769 478.108398438 805 c 1
 492.108398438 805 504.407226562 797 501.856445312 785 c 1
 472.528320312 727 428.088867188 692 391.088867188 692 c 0
 368.088867188 692 347.364257812 698 330.552734375 713 c 1
 313.31640625 726 294.166015625 730 276.166015625 730 c 0
 254.166015625 730 237.741210938 728 218.6640625 690 c 1
 206.6640625 690 193.514648438 694 196.490234375 708 c 1
 223.330078125 759 264.2578125 801 299.2578125 801 c 0
 330.2578125 801 351.344726562 792 367.944335938 776 c 0
 382.967773438 762 408.967773438 762 419.967773438 762 c 0
225.166992188 523 m 2
 242.809570312 606 215.659179688 610 161.296875 613 c 1
 152.572265625 619 157.249023438 641 168.524414062 647 c 1
 208.311523438 646 282.098632812 645 322.098632812 645 c 0
 362.098632812 645 434.311523438 646 474.524414062 647 c 1
 483.249023438 641 478.572265625 619 467.296875 613 c 1
 411.659179688 610 382.809570312 606 365.166992188 523 c 2
 279.931640625 122 l 2
 262.290039062 39 289.439453125 35 343.801757812 32 c 1
 352.526367188 26 347.850585938 4 336.575195312 -2 c 1
 296.787109375 -1 225 0 185 0 c 0
 145 0 70.787109375 -1 30.5751953125 -2 c 1
 21.8505859375 4 26.5263671875 26 37.8017578125 32 c 1
 93.439453125 35 122.290039062 39 139.931640625 122 c 2
 225.166992188 523 l 2
EndSplineSet
Position2: "'cpsp' Versalabstaende 1" dx=2 dy=0 dh=5 dv=0
EndChar

StartChar: itilde
Encoding: 297 297 61
Width: 322
VWidth: 999
Flags: HW
HStem: -2 34<26.77 89.8255 244.175 307.23> 382 34<35.6452 91.2285> 519 70<148.559 239.914> 557 71<52.6726 142.321>
VStem: 16.8 23.4<521.865 543.979> 102 130<41.4929 373.871> 251.7 25.2<609.298 625.118>
LayerCount: 2
Fore
SplineSet
332.795898438 589 m 0
 345.395507812 589 365.784179688 596 386.036132812 632 c 1
 398.635742188 632 409.53515625 624 406.984375 612 c 1
 379.356445312 554 338.6171875 519 305.31640625 519 c 0
 284.6171875 519 266.091796875 525 251.280273438 540 c 1
 236.043945312 553 218.893554688 557 202.694335938 557 c 0
 182.893554688 557 168.069335938 555 150.091796875 517 c 1
 139.291992188 517 127.541992188 521 130.517578125 535 c 1
 155.7578125 586 193.485351562 628 224.985351562 628 c 0
 252.885742188 628 271.672851562 619 286.271484375 603 c 0
 299.49609375 589 322.895507812 589 332.795898438 589 c 0
257.931640625 122 m 2
 240.290039062 39 250.65234375 36 310.801757812 32 c 1
 315.526367188 26 310.850585938 4 303.575195312 -2 c 1
 260.787109375 -1 220.400390625 0 167 0 c 0
 113.599609375 0 71.787109375 -1 29.5751953125 -2 c 1
 24.8505859375 4 29.5263671875 26 36.8017578125 32 c 1
 98.8642578125 37 110.290039062 39 127.931640625 122 c 2
 168.743164062 314 l 2
 180.858398438 371 172.038085938 378.900390625 118.622070312 384 c 1
 117.897460938 390 120.1484375 410 123.423828125 416 c 1
 194.336914062 425 276.537109375 433 307.375 444 c 1
 321.375 444 329.099609375 438 326.76171875 427 c 2
 326.76171875 427 310.858398438 371 300.293945312 321.299804688 c 2
 257.931640625 122 l 2
EndSplineSet
EndChar

StartChar: Imacron
Encoding: 298 298 62
Width: 367
VWidth: 999
Flags: HW
HStem: -2 34<25.6167 94.4056 273.594 342.383> 613 34<25.6167 94.4056 273.594 342.383> 755 50<26.1816 336.647>
VStem: 24 315<755.682 804.598> 114 140<47 598>
LayerCount: 2
Fore
SplineSet
473.48046875 755 m 2
 199.48046875 755 l 2
 188.48046875 755 186.393554688 764 188.306640625 773 c 0
 190.856445312 785 207.108398438 805 220.108398438 805 c 2
 496.108398438 805 l 2
 506.108398438 805 508.1953125 796 506.494140625 788 c 0
 503.731445312 775 487.48046875 755 473.48046875 755 c 2
225.166992188 523 m 2
 242.809570312 606 215.659179688 610 161.296875 613 c 1
 152.572265625 619 157.249023438 641 168.524414062 647 c 1
 208.311523438 646 282.098632812 645 322.098632812 645 c 0
 362.098632812 645 434.311523438 646 474.524414062 647 c 1
 483.249023438 641 478.572265625 619 467.296875 613 c 1
 411.659179688 610 382.809570312 606 365.166992188 523 c 2
 279.931640625 122 l 2
 262.290039062 39 289.439453125 35 343.801757812 32 c 1
 352.526367188 26 347.850585938 4 336.575195312 -2 c 1
 296.787109375 -1 225 0 185 0 c 0
 145 0 70.787109375 -1 30.5751953125 -2 c 1
 21.8505859375 4 26.5263671875 26 37.8017578125 32 c 1
 93.439453125 35 122.290039062 39 139.931640625 122 c 2
 225.166992188 523 l 2
EndSplineSet
Position2: "'cpsp' Versalabstaende 1" dx=2 dy=0 dh=5 dv=0
EndChar

StartChar: imacron
Encoding: 299 299 63
Width: 322
VWidth: 999
Flags: HW
HStem: -2 34<26.77 89.8255 244.175 307.23> 382 34<35.6452 91.2285> 543 50<16.0634 295.483>
VStem: 14.1 283.5<543.682 592.598> 102 130<41.4929 373.871>
LayerCount: 2
Fore
SplineSet
389.618164062 543 m 2
 143.018554688 543 l 2
 133.118164062 543 131.431640625 552 133.34375 561 c 0
 135.89453125 573 150.946289062 593 162.646484375 593 c 2
 411.045898438 593 l 2
 420.045898438 593 421.733398438 584 420.032226562 576 c 0
 417.26953125 563 402.217773438 543 389.618164062 543 c 2
257.931640625 122 m 2
 240.290039062 39 250.65234375 36 310.801757812 32 c 1
 315.526367188 26 310.850585938 4 303.575195312 -2 c 1
 260.787109375 -1 220.400390625 0 167 0 c 0
 113.599609375 0 71.787109375 -1 29.5751953125 -2 c 1
 24.8505859375 4 29.5263671875 26 36.8017578125 32 c 1
 98.8642578125 37 110.290039062 39 127.931640625 122 c 2
 168.743164062 314 l 2
 180.858398438 371 172.038085938 378.900390625 118.622070312 384 c 1
 117.897460938 390 120.1484375 410 123.423828125 416 c 1
 194.336914062 425 276.537109375 433 307.375 444 c 1
 321.375 444 329.099609375 438 326.76171875 427 c 2
 326.76171875 427 310.858398438 371 300.293945312 321.299804688 c 2
 257.931640625 122 l 2
EndSplineSet
EndChar

StartChar: Ibreve
Encoding: 300 300 64
Width: 367
VWidth: 999
Flags: HW
HStem: -2 34<25.6167 94.4056 273.594 342.383> 613 34<25.6167 94.4056 273.594 342.383> 705 74<108.883 253.873>
VStem: 47 28<808.109 830.75> 114 140<47 598> 291 27<810.51 830.778>
LayerCount: 2
Fore
SplineSet
494.421875 830 m 1
 473.330078125 759 398.852539062 705 332.852539062 705 c 0
 259.852539062 705 213.54296875 760 223.421875 830 c 1
 252.059570312 833 l 1
 251.76953125 794 295.58203125 779 348.58203125 779 c 0
 397.58203125 779 452.76953125 794 468.059570312 833 c 1
 494.421875 830 l 1
225.166992188 523 m 2
 242.809570312 606 215.659179688 610 161.296875 613 c 1
 152.572265625 619 157.249023438 641 168.524414062 647 c 1
 208.311523438 646 282.098632812 645 322.098632812 645 c 0
 362.098632812 645 434.311523438 646 474.524414062 647 c 1
 483.249023438 641 478.572265625 619 467.296875 613 c 1
 411.659179688 610 382.809570312 606 365.166992188 523 c 2
 279.931640625 122 l 2
 262.290039062 39 289.439453125 35 343.801757812 32 c 1
 352.526367188 26 347.850585938 4 336.575195312 -2 c 1
 296.787109375 -1 225 0 185 0 c 0
 145 0 70.787109375 -1 30.5751953125 -2 c 1
 21.8505859375 4 26.5263671875 26 37.8017578125 32 c 1
 93.439453125 35 122.290039062 39 139.931640625 122 c 2
 225.166992188 523 l 2
EndSplineSet
Position2: "'cpsp' Versalabstaende 1" dx=2 dy=0 dh=5 dv=0
EndChar

StartChar: ibreve
Encoding: 301 301 65
Width: 322
VWidth: 999
Flags: HW
HStem: -2 34<26.77 89.8255 244.175 307.23> 382 34<35.6452 91.2285> 514 74<84.5191 213.72>
VStem: 24.2 29.7<621.43 659.121> 102 130<41.4929 373.871> 247.4 28.8<624.913 659.188>
LayerCount: 2
Fore
SplineSet
195.674804688 667 m 1
 185.997070312 613 219.3828125 588 276.083007812 588 c 0
 318.3828125 588 372.872070312 603 389.174804688 667 c 1
 415.849609375 657 l 1
 384.53125 552 306.25390625 514 260.354492188 514 c 0
 187.454101562 514 152.932617188 576 163.849609375 657 c 1
 195.674804688 667 l 1
257.931640625 122 m 2
 240.290039062 39 250.65234375 36 310.801757812 32 c 1
 315.526367188 26 310.850585938 4 303.575195312 -2 c 1
 260.787109375 -1 220.400390625 0 167 0 c 0
 113.599609375 0 71.787109375 -1 29.5751953125 -2 c 1
 24.8505859375 4 29.5263671875 26 36.8017578125 32 c 1
 98.8642578125 37 110.290039062 39 127.931640625 122 c 2
 168.743164062 314 l 2
 180.858398438 371 172.038085938 378.900390625 118.622070312 384 c 1
 117.897460938 390 120.1484375 410 123.423828125 416 c 1
 194.336914062 425 276.537109375 433 307.375 444 c 1
 321.375 444 329.099609375 438 326.76171875 427 c 2
 326.76171875 427 310.858398438 371 300.293945312 321.299804688 c 2
 257.931640625 122 l 2
EndSplineSet
EndChar

StartChar: Iogonek
Encoding: 302 302 66
Width: 367
VWidth: 999
Flags: HW
HStem: -232 60<158.359 241.312> -2 34<25.6167 94.4056 273.594 342.383> 1 21<233.742 247> 613 34<25.6167 94.4056 273.594 342.383>
VStem: 79 92<-169.449 -74.1839> 114 140<47 598>
LayerCount: 2
Fore
SplineSet
239.377929688 -177 m 1
 205.725585938 -213 157.686523438 -232 118.686523438 -232 c 0
 99.38671875 -232 84.490234375 -225.400390625 72.087890625 -216 c 0
 52.3759765625 -201 41.611328125 -175.900390625 50.0927734375 -136 c 0
 60.3798828125 -87.599609375 119.895507812 -30.599609375 178.400390625 0 c 1
 137.278320312 -0.099609375 68.666015625 -1.099609375 30.5751953125 -2 c 1
 21.8505859375 4 26.5263671875 26 37.8017578125 32 c 1
 93.439453125 35 122.290039062 39 139.931640625 122 c 2
 225.166992188 523 l 2
 242.809570312 606 215.659179688 610 161.296875 613 c 1
 152.572265625 619 157.249023438 641 168.524414062 647 c 1
 208.311523438 646 282.098632812 645 322.098632812 645 c 0
 362.098632812 645 434.311523438 646 474.524414062 647 c 1
 483.249023438 641 478.572265625 619 467.296875 613 c 1
 411.659179688 610 382.809570312 606 365.166992188 523 c 2
 279.931640625 122 l 2
 262.290039062 39 289.439453125 35 343.801757812 32 c 1
 352.526367188 26 347.850585938 4 336.575195312 -2 c 1
 315.28125 -1.5 284.80859375 -0.900390625 254.994140625 -0.5 c 1
 206.525390625 -10.7001953125 156.227539062 -69.5 143.3671875 -130 c 0
 136.565429688 -162 151.940429688 -172 169.440429688 -172 c 0
 186.440429688 -172 211.078125 -169 229.266601562 -154 c 1
 239.377929688 -177 l 1
EndSplineSet
Position2: "'cpsp' Versalabstaende 1" dx=2 dy=0 dh=5 dv=0
EndChar

StartChar: iogonek
Encoding: 303 303 67
Width: 322
VWidth: 999
Flags: HW
HStem: -232 60<168.359 251.312> -2 34<26.77 89.8255 244.175 307.23> 1 21<243.742 257> 382 34<35.6452 91.2285> 514 128<113.302 213.126>
VStem: 89 92<-169.449 -74.1839> 97 135<532.993 624.845> 102 130<41.4929 373.871>
LayerCount: 2
Fore
SplineSet
239.377929688 -177 m 1
 205.725585938 -213 157.686523438 -232 118.686523438 -232 c 0
 99.38671875 -232 84.490234375 -225.400390625 72.087890625 -216 c 0
 52.3759765625 -201 41.611328125 -175.900390625 50.0927734375 -136 c 0
 60.3798828125 -87.599609375 119.895507812 -30.599609375 178.400390625 0 c 1
 174.700195312 0 170.900390625 0 167 0 c 0
 113.599609375 0 71.787109375 -1 29.5751953125 -2 c 1
 24.8505859375 4 29.5263671875 26 36.8017578125 32 c 1
 98.8642578125 37 110.290039062 39 127.931640625 122 c 2
 168.743164062 314 l 2
 180.858398438 371 172.038085938 378.900390625 118.622070312 384 c 1
 117.897460938 390 120.1484375 410 123.423828125 416 c 1
 194.336914062 425 276.537109375 433 307.375 444 c 1
 321.375 444 329.099609375 438 326.76171875 427 c 2
 326.76171875 427 310.858398438 371 300.293945312 321.299804688 c 2
 257.931640625 122 l 2
 240.290039062 39 250.65234375 36 310.801757812 32 c 1
 315.526367188 26 310.850585938 4 303.575195312 -2 c 1
 286.759765625 -1.599609375 270.344726562 -1.2001953125 253.409179688 -0.900390625 c 1
 205.44921875 -12 156.078125 -70.2001953125 143.3671875 -130 c 0
 136.565429688 -162 151.940429688 -172 169.440429688 -172 c 0
 186.440429688 -172 211.078125 -169 229.266601562 -154 c 1
 239.377929688 -177 l 1
223.68359375 596 m 0
 230.060546875 626 259.862304688 658 306.862304688 658 c 0
 348.862304688 658 364.209960938 622 357.833007812 592 c 0
 352.306640625 566 318.655273438 530 273.655273438 530 c 0
 233.655273438 530 216.668945312 563 223.68359375 596 c 0
EndSplineSet
EndChar

StartChar: Idotaccent
Encoding: 304 304 68
Width: 367
VWidth: 999
Flags: HW
HStem: -2 34<25.6167 94.4056 273.594 342.383> 613 34<25.6167 94.4056 273.594 342.383> 705 128<133.302 233.126>
VStem: 114 140<47 598> 117 135<723.993 815.845>
LayerCount: 2
Fore
SplineSet
284.880859375 771 m 0
 292.108398438 805 326.059570312 833 360.059570312 833 c 0
 394.059570312 833 416.108398438 805 408.880859375 771 c 0
 401.654296875 737 367.702148438 709 333.702148438 709 c 0
 299.702148438 709 277.654296875 737 284.880859375 771 c 0
225.166992188 523 m 2
 242.809570312 606 215.659179688 610 161.296875 613 c 1
 152.572265625 619 157.249023438 641 168.524414062 647 c 1
 208.311523438 646 282.098632812 645 322.098632812 645 c 0
 362.098632812 645 434.311523438 646 474.524414062 647 c 1
 483.249023438 641 478.572265625 619 467.296875 613 c 1
 411.659179688 610 382.809570312 606 365.166992188 523 c 2
 279.931640625 122 l 2
 262.290039062 39 289.439453125 35 343.801757812 32 c 1
 352.526367188 26 347.850585938 4 336.575195312 -2 c 1
 296.787109375 -1 225 0 185 0 c 0
 145 0 70.787109375 -1 30.5751953125 -2 c 1
 21.8505859375 4 26.5263671875 26 37.8017578125 32 c 1
 93.439453125 35 122.290039062 39 139.931640625 122 c 2
 225.166992188 523 l 2
EndSplineSet
Substitution2: "LinLibertine-'c2sc' Versale nach Kapitaelchen 1" idotaccent.sc
Position2: "'cpsp' Versalabstaende 1" dx=2 dy=0 dh=5 dv=0
EndChar

StartChar: afii10057
Encoding: 1032 1032 69
Width: 373
VWidth: 999
Flags: HW
HStem: -10 59<13.5 122.696> 613 34<40.77 123.807 295.92 361.23>
VStem: 141 140<154.751 599.635>
AnchorPoint: "top_akzent" 455.296 1027 basechar 0
LayerCount: 2
Fore
SplineSet
391.954101562 522 m 2
 340.515625 280 l 2
 310.120117188 137 241.009765625 85.2001953125 189.203125 48 c 0
 140.706054688 13.2001953125 84.8740234375 -10 25.8740234375 -10 c 0
 -3.1259765625 -10 -67.0244140625 14 -57.0341796875 61 c 0
 -50.8701171875 90 -5.130859375 117 12.869140625 117 c 0
 52.869140625 117 51.91796875 89 61.3037109375 72 c 0
 68.541015625 59 84.4150390625 49 102.415039062 49 c 0
 145.415039062 49 157.579101562 78 195.83984375 258 c 2
 251.954101562 522 l 2
 269.596679688 605 253.659179688 610 174.296875 613 c 1
 169.572265625 619 174.249023438 641 181.524414062 647 c 1
 231.311523438 646 282.399414062 645 347.098632812 645 c 0
 404.798828125 645 446.311523438 646 495.524414062 647 c 1
 500.249023438 641 495.572265625 619 488.296875 613 c 1
 427.659179688 610 409.596679688 605 391.954101562 522 c 2
EndSplineSet
EndChar

StartChar: afii10061
Encoding: 1036 1036 70
Width: 699
VWidth: 999
Flags: HW
HStem: -2 34<25.6167 94.4056 273.594 342.383> 0 33<638.873 689.23> 310 42<245 298.139> 558 104<516.288 611.581> 613 34<25.6167 94.4056 273.594 342.383> 701 132
VStem: 114 140<47 598> 370 202
LayerCount: 2
Fore
SplineSet
225.166992188 523 m 2
 242.809570312 606 215.659179688 610 161.296875 613 c 1
 152.572265625 619 157.249023438 641 168.524414062 647 c 1
 208.311523438 646 282.098632812 645 322.098632812 645 c 0
 362.098632812 645 434.311523438 646 474.524414062 647 c 1
 483.249023438 641 478.572265625 619 467.296875 613 c 1
 411.659179688 610 382.809570312 606 365.166992188 523 c 2
 328.8203125 352 l 1
 415.125976562 352.5 442.491210938 368.799804688 493.2734375 440.700195312 c 0
 518.440429688 476.299804688 549.79296875 533 573.775390625 563.5 c 0
 612.697265625 613 668.712890625 662 726.712890625 662 c 0
 774.712890625 662 784.973632812 635 780.084960938 612 c 0
 772.219726562 575 738.717773438 535 719.717773438 535 c 0
 707.717773438 535 695.142578125 537 688.268554688 547 c 0
 682.475585938 555.5 669.606445312 558 658.606445312 558 c 0
 644.606445312 558 636.712890625 558.5 612.930664062 536 c 0
 590.017578125 514.299804688 563.120117188 471.5 542.5 438 c 0
 520.6328125 402.400390625 501.296875 369.299804688 469.032226562 353 c 1
 467.969726562 348 l 1
 488.83203125 345 506.732421875 324.299804688 525.516601562 296 c 0
 559.749023438 244.400390625 580.54296875 161.099609375 612.702148438 102.099609375 c 0
 634.71484375 61.7001953125 665.258789062 36.5 703.014648438 33 c 1
 707.739257812 27 703.0625 5 695.787109375 -1 c 1
 674.149414062 -4 631.724609375 -6 611.724609375 -6 c 0
 591.724609375 -6 556.813476562 -3.7001953125 538 0 c 0
 477.55078125 12 455.690429688 55 423.221679688 161 c 0
 403.969726562 223.799804688 372.442382812 306 319.87109375 309.900390625 c 1
 279.931640625 122 l 2
 262.290039062 39 289.439453125 35 343.801757812 32 c 1
 352.526367188 26 347.850585938 4 336.575195312 -2 c 1
 296.787109375 -1 225 0 185 0 c 0
 145 0 70.787109375 -1 30.5751953125 -2 c 1
 21.8505859375 4 26.5263671875 26 37.8017578125 32 c 1
 93.439453125 35 122.290039062 39 139.931640625 122 c 2
 225.166992188 523 l 2
684.059570312 833 m 1
 706.393554688 821.400390625 728.947265625 798.599609375 737.369140625 778 c 1
 731.818359375 766 l 1
 575.490234375 708 l 2
 559.756835938 702.200195312 548.001953125 701 539.001953125 701 c 0
 530.001953125 701 520.490234375 708 522.190429688 716 c 0
 523.678710938 723 525.190429688 728.700195312 536.654296875 737 c 0
 561.48046875 755 638.108398438 805 684.059570312 833 c 1
EndSplineSet
LCarets2: 1 0 
EndChar

StartChar: uni040D
Encoding: 1037 1037 71
Width: 783
VWidth: 999
Flags: HW
HStem: -1 34<20 99.155 235.539 315 468 548.095 683.276 765> 571 120 613 32<20 99.4609 236.442 315 468 547.537 685.451 764>
VStem: 106 123<38.5094 78 146 607.764> 253 212 555 122<38.2361 493 561 607.252>
DStem2: 229 146 229 78 0.617738 0.786384<0 474.258>
LayerCount: 2
Fore
SplineSet
797.944335938 569 m 2
 693.154296875 76 l 2
 686.565429688 45 699.014648438 33 739.014648438 33 c 2
 765.014648438 33 l 2
 770.014648438 33 773.376953125 30 772.1015625 24 c 2
 767.212890625 1 l 1
 764.787109375 -1 l 1
 764.787109375 -1 660.212890625 1 621.212890625 1 c 0
 585.212890625 1 467.787109375 -1 467.787109375 -1 c 1
 466.212890625 1 l 1
 471.1015625 24 l 2
 472.376953125 30 476.014648438 33 481.014648438 33 c 2
 507.014648438 33 l 2
 549.014648438 33 565.203125 48 571.154296875 76 c 2
 659.790039062 493 l 1
 245.579101562 78 l 1
 245.3671875 77 l 2
 238.77734375 46 250.014648438 33 290.014648438 33 c 2
 317.014648438 33 l 2
 320.014648438 33 323.376953125 30 322.1015625 24 c 2
 317.212890625 1 l 1
 314.787109375 -1 l 1
 314.787109375 -1 208.212890625 1 169.212890625 1 c 0
 134.212890625 1 19.787109375 -1 19.787109375 -1 c 1
 18.212890625 1 l 1
 23.1015625 24 l 2
 24.376953125 30 28.0146484375 33 32.0146484375 33 c 2
 59.0146484375 33 l 2
 100.014648438 33 116.415039062 49 122.3671875 77 c 2
 227.157226562 570 l 2
 233.74609375 601 222.296875 613 182.296875 613 c 2
 155.296875 613 l 2
 151.296875 613 148.934570312 616 149.998046875 621 c 2
 155.098632812 645 l 1
 157.311523438 646 l 1
 157.311523438 646 263.88671875 644 303.88671875 644 c 0
 338.88671875 644 452.311523438 646 452.311523438 646 c 1
 454.098632812 645 l 1
 448.998046875 621 l 2
 447.934570312 616 444.296875 613 440.296875 613 c 2
 413.296875 613 l 2
 372.296875 613 356.108398438 598 350.157226562 570 c 2
 260.033203125 146 l 1
 674.244140625 561 l 1
 675.944335938 569 l 2
 682.534179688 600 670.296875 613 630.296875 613 c 2
 604.296875 613 l 2
 600.296875 613 596.934570312 616 597.998046875 621 c 2
 603.098632812 645 l 1
 605.311523438 646 l 1
 605.311523438 646 714.88671875 644 753.88671875 644 c 0
 789.88671875 644 901.524414062 647 901.524414062 647 c 1
 903.098632812 645 l 1
 898.209960938 622 l 2
 896.934570312 616 893.296875 613 888.296875 613 c 2
 862.296875 613 l 2
 821.296875 613 803.896484375 597 797.944335938 569 c 2
493.421875 830 m 1
 465.87109375 818 434.1953125 796 416.731445312 775 c 1
 417.180664062 763 l 1
 548.852539062 705 l 2
 561.577148438 699 573.364257812 698 582.364257812 698 c 0
 591.364257812 698 603.852539062 705 605.552734375 713 c 0
 607.041015625 720 608.31640625 726 600.016601562 734 c 0
 582.842773438 752 527.470703125 802 493.421875 830 c 1
EndSplineSet
LCarets2: 1 0 
EndChar

StartChar: afii10062
Encoding: 1038 1038 72
Width: 621
VWidth: 999
Flags: HW
HStem: -22 62<133 229.447> 618 28<1 51.985 192 235 391 425 520.846 579> 697 31<266.536 357.309>
VStem: 187 70<735.681 802.162> 366 70<734.774 802.125>
DStem2: 170 575 88 559 0.41865 -0.908148<-32.5036 379.947> 283 136 342 161 0.370296 0.928914<-102.293 0 103.423 504.868>
LayerCount: 2
Fore
SplineSet
224.927734375 42 m 0
 254.927734375 42 275.627929688 50 317.444335938 115 c 1
 206.819335938 559 l 2
 201.848632812 578.900390625 189.296875 613 140.296875 613 c 0
 134.296875 613 130.934570312 616 131.998046875 621 c 2
 137.098632812 645 l 1
 138.311523438 646 l 1
 138.311523438 646 201.098632812 645 242.098632812 645 c 0
 292.098632812 645 414.311523438 646 414.311523438 646 c 1
 416.098632812 645 l 1
 410.998046875 621 l 2
 409.934570312 616 406.296875 613 402.296875 613 c 2
 364.296875 613 l 2
 331.296875 613 328.958984375 602 334.219726562 575 c 1
 411.989257812 254 l 1
 601.219726562 575 l 2
 622.659179688 610 617.296875 613 576.296875 613 c 2
 546.296875 613 l 2
 543.296875 613 540.934570312 616 541.998046875 621 c 2
 547.098632812 645 l 1
 549.311523438 646 l 1
 549.311523438 646 635.098632812 645 677.098632812 645 c 0
 709.098632812 645 757.311523438 646 757.311523438 646 c 1
 759.098632812 645 l 1
 753.998046875 621 l 2
 752.72265625 615 745.296875 613 741.296875 613 c 0
 695.296875 613 683.809570312 606 660.306640625 566 c 2
 417.221679688 161 l 2
 351.052734375 52 280.32421875 -22 190.32421875 -22 c 0
 130.32421875 -22 85.7001953125 8 92.501953125 40 c 0
 98.4541015625 68 115.705078125 88 147.705078125 88 c 0
 172.705078125 88 186.3671875 77 192.81640625 65 c 0
 198.903320312 56 209.927734375 42 224.927734375 42 c 0
600.518554688 774 m 0
 589.465820312 722 522.15234375 697 459.15234375 697 c 0
 393.15234375 697 340.252929688 721 351.306640625 773 c 0
 355.982421875 795 369.895507812 804 396.895507812 804 c 0
 417.895507812 804 424.494140625 788 421.306640625 773 c 0
 420.880859375 771 418.818359375 766 418.60546875 765 c 0
 414.354492188 745 433.741210938 728 466.741210938 728 c 0
 496.741210938 728 524.716796875 742 529.393554688 764 c 0
 529.60546875 765 530.09375 772 530.306640625 773 c 0
 533.494140625 788 545.895507812 804 568.895507812 804 c 0
 594.895507812 804 604.76953125 794 600.518554688 774 c 0
EndSplineSet
LCarets2: 1 0 
EndChar

StartChar: afii10020
Encoding: 1043 1043 73
Width: 551
VWidth: 999
Flags: HW
HStem: -2 34<11.6167 80.4056 259.594 328.383> 603 42<247.972 424.224> 613 34<11.6167 80.4056>
VStem: 100 140<47 598> 497 43<477.51 528.239>
LayerCount: 2
Fore
SplineSet
463.171875 603 m 2
 403.171875 603 l 2
 382.171875 603 364.1328125 584 351.379882812 524 c 2
 265.931640625 122 l 2
 248.290039062 39 275.439453125 35 329.801757812 32 c 1
 338.526367188 26 333.850585938 4 322.575195312 -2 c 1
 240.787109375 -1 211 0 171 0 c 0
 131 0 16.5751953125 -2 16.5751953125 -2 c 1
 7.8505859375 4 12.5263671875 26 23.8017578125 32 c 1
 79.439453125 35 108.290039062 39 125.931640625 122 c 2
 211.166992188 523 l 2
 228.809570312 606 201.659179688 610 147.296875 613 c 1
 138.572265625 619 143.249023438 641 154.524414062 647 c 1
 154.524414062 647 269.098632812 645 308.098632812 645 c 2
 531.098632812 645 l 2
 560.098632812 645 651.524414062 647 651.524414062 647 c 1
 650.896484375 597 647.080078125 532 642.02734375 480 c 1
 630.96484375 475 609.5390625 473 597.96484375 475 c 1
 593.268554688 547 568.171875 603 463.171875 603 c 2
EndSplineSet
EndChar

StartChar: afii10021
Encoding: 1044 1044 74
Width: 696
VWidth: 999
Flags: HW
HStem: 0 44<203.009 462.408> 600 46<287.63 462.754> 611 35<149 219.411 590.322 660>
VStem: 34 43<-141 -76.4499> 464 122<44.8806 598.625> 620 43<-141 -83.4829>
LayerCount: 2
Fore
SplineSet
123.052734375 52 m 0
 153.004882812 80 186.8203125 145 251.979492188 301 c 1
 298.2109375 415 330.829101562 512 344.432617188 576 c 0
 349.534179688 600 342.872070312 611 316.872070312 611 c 2
 286.872070312 611 l 2
 281.872070312 611 279.934570312 616 280.78515625 620 c 2
 284.3984375 637 l 2
 285.249023438 641 292.311523438 646 299.311523438 646 c 2
 792.311523438 646 l 2
 795.311523438 646 796.4609375 642 795.823242188 639 c 2
 791.78515625 620 l 2
 790.509765625 614 785.872070312 611 781.872070312 611 c 2
 752.872070312 611 l 2
 720.872070312 611 712.470703125 595 705.03125 560 c 2
 603.642578125 83 l 2
 595.77734375 46 616.014648438 33 633.014648438 33 c 0
 655.014648438 33 660.250976562 20 657.700195312 8 c 2
 633.029296875 -141 l 1
 606.029296875 -141 590.029296875 -141 590.029296875 -141 c 1
 589.932617188 -85 567 0 487 0 c 2
 202 0 l 2
 118 0 69.08203125 -89 47.029296875 -141 c 1
 4.029296875 -141 l 1
 42.7001953125 8 l 2
 45.2509765625 20 59.0146484375 33 69.0146484375 33 c 0
 89.0146484375 33 102.014648438 33 123.052734375 52 c 0
553.534179688 600 m 2
 451.534179688 600 l 2
 424.534179688 600 410.55859375 586 403.244140625 561 c 0
 373.36328125 459 338.6328125 361 311.279296875 293 c 0
 264.209960938 176 220.4296875 82 215.965820312 61 c 0
 213.415039062 49 224.352539062 44 239.352539062 44 c 2
 436.352539062 44 l 2
 460.352539062 44 473.990234375 47 481.642578125 83 c 2
 583.244140625 561 l 2
 589.62109375 591 585.534179688 600 553.534179688 600 c 2
EndSplineSet
EndChar

StartChar: afii10024
Encoding: 1046 1046 75
Width: 1014
VWidth: 999
Flags: HW
HStem: -2 34<348.617 417.406 596.594 665.383> -1 34<-9.22998 42.4753 971.525 1023.23> 310 42<392.672 440 574 621.328> 558 104<73.4186 169.063 844.938 940.581> 613 34<348.617 417.406 596.594 665.383>
VStem: 437 140<47 598>
LayerCount: 2
Fore
SplineSet
1019.78710938 -1 m 1
 998.149414062 -4 955.724609375 -6 935.724609375 -6 c 0
 915.724609375 -6 881.170898438 -3.900390625 862 0 c 0
 801.71484375 12.2998046875 779.690429688 55 747.221679688 161 c 0
 727.969726562 223.799804688 696.033203125 306.900390625 642.87109375 309.900390625 c 1
 602.931640625 122 l 2
 585.290039062 39 612.439453125 35 666.801757812 32 c 1
 675.526367188 26 670.850585938 4 659.575195312 -2 c 1
 619.787109375 -1 548 0 508 0 c 0
 468 0 393.787109375 -1 353.575195312 -2 c 1
 344.850585938 4 349.526367188 26 360.801757812 32 c 1
 416.439453125 35 445.290039062 39 462.931640625 122 c 2
 502.87109375 309.900390625 l 1
 448.43359375 306.900390625 381.169921875 223.799804688 335.221679688 161 c 0
 257.690429688 55 217.514648438 12.2998046875 152 0 c 0
 131.170898438 -3.900390625 95.724609375 -6 75.724609375 -6 c 0
 55.724609375 -6 14.1494140625 -4 -6.212890625 -1 c 1
 -10.9375 5 -6.2607421875 27 1.0146484375 33 c 1
 39.8642578125 37 81.1787109375 62 120.680664062 102 c 0
 178.221679688 161 233.864257812 244 289.916992188 296 c 0
 320.868164062 324 347.33203125 345 369.969726562 348 c 1
 371.032226562 353 l 1
 345.43359375 369 340.447265625 402 334.099609375 438 c 0
 328.10546875 471.900390625 318.25390625 514 304.930664062 536 c 0
 290.606445312 558 282.606445312 558 268.606445312 558 c 0
 257.606445312 558 243.96875 555 234.268554688 547 c 0
 223.142578125 537 209.717773438 535 197.717773438 535 c 0
 178.717773438 535 162.219726562 575 170.084960938 612 c 0
 174.973632812 635 196.712890625 662 244.712890625 662 c 0
 302.712890625 662 338.509765625 614 355.881835938 564 c 1
 367.504882812 534 373.489257812 477 383.737304688 441 c 0
 404.211914062 368.900390625 424.405273438 352.400390625 511.8203125 352 c 1
 548.166992188 523 l 2
 565.809570312 606 538.659179688 610 484.296875 613 c 1
 475.572265625 619 480.249023438 641 491.524414062 647 c 1
 531.311523438 646 605.098632812 645 645.098632812 645 c 0
 685.098632812 645 757.311523438 646 797.524414062 647 c 1
 806.249023438 641 801.572265625 619 790.296875 613 c 1
 734.659179688 610 705.809570312 606 688.166992188 523 c 2
 651.8203125 352 l 1
 739.405273438 352.400390625 766.612304688 368.900390625 817.737304688 441 c 0
 843.2890625 477 873.504882812 534 897.881835938 564 c 1
 936.509765625 614 992.712890625 662 1050.71289062 662 c 0
 1098.71289062 662 1108.97363281 635 1104.08496094 612 c 0
 1096.21972656 575 1062.71777344 535 1043.71777344 535 c 0
 1031.71777344 535 1019.14257812 537 1012.26855469 547 c 0
 1005.96875 555 993.606445312 558 982.606445312 558 c 0
 968.606445312 558 960.606445312 558 936.930664062 536 c 0
 914.25390625 514 886.505859375 471.900390625 866.099609375 438 c 0
 844.447265625 402 825.43359375 369 793.032226562 353 c 1
 791.969726562 348 l 1
 813.33203125 345 830.868164062 324 849.916992188 296 c 0
 883.864257812 244 904.221679688 161 936.680664062 102 c 0
 959.178710938 62 989.864257812 37 1027.01464844 33 c 1
 1031.73925781 27 1027.0625 5 1019.78710938 -1 c 1
EndSplineSet
EndChar

StartChar: afii10025
Encoding: 1047 1047 76
Width: 573
VWidth: 999
Flags: HW
HStem: -12 42<166.549 331.064> 335 39<160.004 305.936> 624 38<176.762 323.445>
VStem: 30 104<67.2217 151.592> 66 39<463 553.349> 367 119<450.826 581.599> 395 132<103.835 267.959>
LayerCount: 2
Fore
SplineSet
248.376953125 30 m 0
 318.376953125 30 406.903320312 56 432.41015625 176 c 0
 443.25 227 447.206054688 335 330.206054688 335 c 2
 247.206054688 335 l 2
 236.206054688 335 232.694335938 342 235.245117188 354 c 0
 237.583007812 365 244.49609375 374 255.49609375 374 c 2
 302.49609375 374 l 2
 421.49609375 374 462.86328125 451 474.553710938 506 c 0
 490.0703125 579 455.635742188 624 398.635742188 624 c 0
 264.635742188 624 219.35546875 538 203.4140625 463 c 1
 164.4140625 463 l 1
 208.311523438 646 l 1
 338.311523438 646 369.712890625 662 410.712890625 662 c 0
 529.712890625 662 617.360351562 618 596.954101562 522 c 0
 578.461914062 435 466.0078125 367 447.520507812 360 c 1
 513.26953125 340 590.5546875 299 567.810546875 192 c 0
 537.627929688 50 394.44921875 -12 256.44921875 -12 c 0
 175.44921875 -12 111.0390625 19 85.1396484375 43 c 0
 62.603515625 64 49.3427734375 91 55.08203125 118 c 0
 60.6083984375 144 82.072265625 165 105.072265625 165 c 0
 133.072265625 165 156.30859375 152 159.506835938 120 c 0
 168.203125 48 172.376953125 30 248.376953125 30 c 0
EndSplineSet
EndChar

StartChar: afii10026
Encoding: 1048 1048 77
Width: 783
VWidth: 999
Flags: HW
HStem: -1 34<20 99.155 235.539 315 468 548.095 683.276 765> 613 32<20 99.4609 236.442 315 468 547.537 685.451 764>
VStem: 106 123<38.5094 78 146 607.764> 555 122<38.2361 493 561 607.252>
DStem2: 229 146 229 78 0.617738 0.786384<0 474.258>
LayerCount: 2
Fore
SplineSet
797.944335938 569 m 2
 693.154296875 76 l 2
 686.565429688 45 699.014648438 33 739.014648438 33 c 2
 765.014648438 33 l 2
 770.014648438 33 773.376953125 30 772.1015625 24 c 2
 767.212890625 1 l 1
 764.787109375 -1 l 1
 764.787109375 -1 660.212890625 1 621.212890625 1 c 0
 585.212890625 1 467.787109375 -1 467.787109375 -1 c 1
 466.212890625 1 l 1
 471.1015625 24 l 2
 472.376953125 30 476.014648438 33 481.014648438 33 c 2
 507.014648438 33 l 2
 549.014648438 33 565.203125 48 571.154296875 76 c 2
 659.790039062 493 l 1
 245.579101562 78 l 1
 245.3671875 77 l 2
 238.77734375 46 250.014648438 33 290.014648438 33 c 2
 317.014648438 33 l 2
 320.014648438 33 323.376953125 30 322.1015625 24 c 2
 317.212890625 1 l 1
 314.787109375 -1 l 1
 314.787109375 -1 208.212890625 1 169.212890625 1 c 0
 134.212890625 1 19.787109375 -1 19.787109375 -1 c 1
 18.212890625 1 l 1
 23.1015625 24 l 2
 24.376953125 30 28.0146484375 33 32.0146484375 33 c 2
 59.0146484375 33 l 2
 100.014648438 33 116.415039062 49 122.3671875 77 c 2
 227.157226562 570 l 2
 233.74609375 601 222.296875 613 182.296875 613 c 2
 155.296875 613 l 2
 151.296875 613 148.934570312 616 149.998046875 621 c 2
 155.098632812 645 l 1
 157.311523438 646 l 1
 157.311523438 646 263.88671875 644 303.88671875 644 c 0
 338.88671875 644 452.311523438 646 452.311523438 646 c 1
 454.098632812 645 l 1
 448.998046875 621 l 2
 447.934570312 616 444.296875 613 440.296875 613 c 2
 413.296875 613 l 2
 372.296875 613 356.108398438 598 350.157226562 570 c 2
 260.033203125 146 l 1
 674.244140625 561 l 1
 675.944335938 569 l 2
 682.534179688 600 670.296875 613 630.296875 613 c 2
 604.296875 613 l 2
 600.296875 613 596.934570312 616 597.998046875 621 c 2
 603.098632812 645 l 1
 605.311523438 646 l 1
 605.311523438 646 714.88671875 644 753.88671875 644 c 0
 789.88671875 644 901.524414062 647 901.524414062 647 c 1
 903.098632812 645 l 1
 898.209960938 622 l 2
 896.934570312 616 893.296875 613 888.296875 613 c 2
 862.296875 613 l 2
 821.296875 613 803.896484375 597 797.944335938 569 c 2
EndSplineSet
EndChar

StartChar: afii10027
Encoding: 1049 1049 78
Width: 783
VWidth: 999
Flags: HW
HStem: -2 33<15.625 88.75 208.25 281.375 422.625 495.75 615.25 688.375> 558 20<510.373 513> 614 33<15.625 88.75 208.25 281.375 422.625 495.75 615.25 688.375> 697 31<305.585 396.415>
VStem: 106 85<43.3808 601.619> 191 0 226 69<734.873 803.004> 407 69<736.589 803.004> 513 0 513 85<43.3808 601.619>
DStem2: 208.693 178 222.351 125 0.626329 0.779559<-19.5065 424.152>
LayerCount: 2
Fore
SplineSet
797.944335938 569 m 2
 693.154296875 76 l 2
 686.565429688 45 699.014648438 33 739.014648438 33 c 2
 765.014648438 33 l 2
 770.014648438 33 773.376953125 30 772.1015625 24 c 2
 767.212890625 1 l 1
 764.787109375 -1 l 1
 764.787109375 -1 660.212890625 1 621.212890625 1 c 0
 585.212890625 1 467.787109375 -1 467.787109375 -1 c 1
 466.212890625 1 l 1
 471.1015625 24 l 2
 472.376953125 30 476.014648438 33 481.014648438 33 c 2
 507.014648438 33 l 2
 549.014648438 33 565.203125 48 571.154296875 76 c 2
 659.790039062 493 l 1
 245.579101562 78 l 1
 245.3671875 77 l 2
 238.77734375 46 250.014648438 33 290.014648438 33 c 2
 317.014648438 33 l 2
 320.014648438 33 323.376953125 30 322.1015625 24 c 2
 317.212890625 1 l 1
 314.787109375 -1 l 1
 314.787109375 -1 208.212890625 1 169.212890625 1 c 0
 134.212890625 1 19.787109375 -1 19.787109375 -1 c 1
 18.212890625 1 l 1
 23.1015625 24 l 2
 24.376953125 30 28.0146484375 33 32.0146484375 33 c 2
 59.0146484375 33 l 2
 100.014648438 33 116.415039062 49 122.3671875 77 c 2
 227.157226562 570 l 2
 233.74609375 601 222.296875 613 182.296875 613 c 2
 155.296875 613 l 2
 151.296875 613 148.934570312 616 149.998046875 621 c 2
 155.098632812 645 l 1
 157.311523438 646 l 1
 157.311523438 646 263.88671875 644 303.88671875 644 c 0
 338.88671875 644 452.311523438 646 452.311523438 646 c 1
 454.098632812 645 l 1
 448.998046875 621 l 2
 447.934570312 616 444.296875 613 440.296875 613 c 2
 413.296875 613 l 2
 372.296875 613 356.108398438 598 350.157226562 570 c 2
 260.033203125 146 l 1
 674.244140625 561 l 1
 675.944335938 569 l 2
 682.534179688 600 670.296875 613 630.296875 613 c 2
 604.296875 613 l 2
 600.296875 613 596.934570312 616 597.998046875 621 c 2
 603.098632812 645 l 1
 605.311523438 646 l 1
 605.311523438 646 714.88671875 644 753.88671875 644 c 0
 789.88671875 644 901.524414062 647 901.524414062 647 c 1
 903.098632812 645 l 1
 898.209960938 622 l 2
 896.934570312 616 893.296875 613 888.296875 613 c 2
 862.296875 613 l 2
 821.296875 613 803.896484375 597 797.944335938 569 c 2
639.518554688 774 m 0
 628.465820312 722 561.15234375 697 498.15234375 697 c 0
 432.15234375 697 379.252929688 721 390.306640625 773 c 0
 394.982421875 795 408.895507812 804 435.895507812 804 c 0
 456.895507812 804 463.494140625 788 460.306640625 773 c 0
 459.880859375 771 457.818359375 766 457.60546875 765 c 0
 453.354492188 745 472.741210938 728 505.741210938 728 c 0
 535.741210938 728 563.716796875 742 568.393554688 764 c 0
 568.60546875 765 569.09375 772 569.306640625 773 c 0
 572.494140625 788 584.895507812 804 607.895507812 804 c 0
 633.895507812 804 643.76953125 794 639.518554688 774 c 0
EndSplineSet
LCarets2: 1 0 
EndChar

StartChar: afii10033
Encoding: 1055 1055 79
Width: 778
VWidth: 999
Flags: HW
HStem: -1 34<19 98.8165 234.855 311 440 514.816 650.855 731> 600 45<229.654 519.608> 613 32<19 99.2757 653.794 731>
VStem: 106 122<38.748 598.335> 522 122<38.748 597.91>
LayerCount: 2
Fore
SplineSet
225.166992188 523 m 2
 242.809570312 606 215.659179688 610 161.296875 613 c 1
 152.572265625 619 157.249023438 641 168.524414062 647 c 1
 208.311523438 646 282.098632812 645 322.098632812 645 c 0
 384.399414062 645 463.723632812 647 525.524414062 647 c 0
 588.624023438 647 668.399414062 645 732.098632812 645 c 0
 772.098632812 645 844.311523438 646 884.524414062 647 c 1
 893.249023438 641 888.572265625 619 877.296875 613 c 1
 821.659179688 610 792.809570312 606 775.166992188 523 c 2
 689.931640625 122 l 2
 672.290039062 39 699.439453125 35 753.801757812 32 c 1
 762.526367188 26 757.850585938 4 746.575195312 -2 c 1
 706.787109375 -1 635 0 595 0 c 0
 555 0 480.787109375 -1 440.575195312 -2 c 1
 431.850585938 4 436.526367188 26 447.801757812 32 c 1
 503.439453125 35 532.290039062 39 549.931640625 122 c 2
 635.166992188 523 l 2
 652.809570312 606 623.534179688 600 569.171875 603 c 1
 465.171875 603 l 1
 409.534179688 600 382.809570312 606 365.166992188 523 c 2
 279.931640625 122 l 2
 262.290039062 39 289.439453125 35 343.801757812 32 c 1
 352.526367188 26 347.850585938 4 336.575195312 -2 c 1
 296.787109375 -1 225 0 185 0 c 0
 145 0 70.787109375 -1 30.5751953125 -2 c 1
 21.8505859375 4 26.5263671875 26 37.8017578125 32 c 1
 93.439453125 35 122.290039062 39 139.931640625 122 c 2
 225.166992188 523 l 2
EndSplineSet
EndChar

StartChar: afii10034
Encoding: 1056 1056 80
Width: 614
VWidth: 999
Flags: HW
HStem: -2 34<24 44 281 306> 279 40<221 346.677> 611 36<24 93.1927> 613 41<126.947 352.681>
VStem: 99 122<44.5532 282 319.949 606.701> 406 127<391.868 561.741>
LayerCount: 2
Fore
SplineSet
485.01171875 654 m 0
 560.01171875 654 612.631835938 642.799804688 644.998046875 621 c 0
 699.296875 584.299804688 701.401367188 524.099609375 692.876953125 484 c 0
 681.590820312 430.900390625 650.49609375 366 592.081054688 325 c 0
 544.845703125 291.900390625 479.978515625 277 391.877929688 277 c 0
 367.877929688 277 371.090820312 278 357.515625 280 c 1
 345.428710938 289 342.404296875 303 346.443359375 322 c 1
 360.018554688 320 380.805664062 319 395.805664062 319 c 0
 477.805664062 319 516.158203125 363 538.263671875 467 c 0
 564.196289062 589 502.296875 613 444.296875 613 c 0
 391.296875 613 379.833007812 592 365.379882812 524 c 2
 279.931640625 122 l 2
 262.290039062 39 289.439453125 35 343.801757812 32 c 1
 352.526367188 26 347.850585938 4 336.575195312 -2 c 1
 296.787109375 -1 225 0 185 0 c 0
 145 0 70.787109375 -1 30.5751953125 -2 c 1
 21.8505859375 4 26.5263671875 26 37.8017578125 32 c 1
 93.439453125 35 122.290039062 39 139.931640625 122 c 2
 225.166992188 523 l 2
 242.809570312 606 215.659179688 610 161.296875 613 c 1
 152.572265625 619 157.249023438 641 168.524414062 647 c 1
 208.524414062 647 445.01171875 654 485.01171875 654 c 0
EndSplineSet
EndChar

StartChar: afii10035
Encoding: 1057 1057 81
Width: 706
VWidth: 999
Flags: HW
HStem: -10 44<290.062 474.801> 437 21<558.5 612> 617 41<295.135 462.38>
VStem: 34 130<195.747 434.804> 574 38<443.526 484.717>
LayerCount: 2
Fore
SplineSet
394.874023438 -10 m 0
 297.874023438 -10 223.48828125 7 169.265625 53 c 0
 101.330078125 110.700195312 83.99609375 221.099609375 103.955078125 315 c 0
 150.760742188 535.200195312 341.862304688 658 537.862304688 658 c 0
 660.862304688 658 697.360351562 618 747.296875 613 c 1
 744.606445312 558 742.404296875 510 736.350585938 458 c 1
 723.775390625 452 703.4375 449 692.288085938 453 c 1
 684.568359375 539 655.934570312 616 517.934570312 616 c 0
 398.934570312 616 292.025390625 489.400390625 258.994140625 334 c 0
 225.834960938 178 288.927734375 42 404.927734375 42 c 0
 474.927734375 42 561.454101562 68 649.033203125 146 c 1
 660.033203125 146 674.482421875 134 677.569335938 125 c 1
 590.65234375 36 491.874023438 -10 394.874023438 -10 c 0
EndSplineSet
EndChar

StartChar: afii10036
Encoding: 1058 1058 82
Width: 652
VWidth: 999
Flags: HW
HStem: -2 34<151 230.816 366.855 447> 599 46<70.4923 235.855 362.438 526.846>
VStem: 8 39<518.103 570.778> 30 36<645.204 669> 238 122<37.748 595.906> 532 36<647.479 669> 550 40<518.125 570.778>
LayerCount: 2
Fore
SplineSet
431.14453125 123 m 2
 413.501953125 40 429.439453125 35 508.801757812 32 c 1
 513.526367188 26 508.850585938 4 501.575195312 -2 c 1
 451.787109375 -1 399 0 333 0 c 0
 269 0 216.787109375 -1 167.575195312 -2 c 1
 162.850585938 4 167.526367188 26 174.801757812 32 c 1
 255.439453125 35 273.501953125 40 291.14453125 123 c 2
 372.553710938 506 l 2
 385.51953125 567 383.596679688 605 346.596679688 605 c 2
 297.596679688 605 l 2
 231.596679688 605 185.0703125 579 148.065429688 499 c 1
 136.065429688 499 119.278320312 500 110.12890625 504 c 1
 131.331054688 552 152.596679688 605 166.162109375 650 c 0
 166.374023438 651 168.799804688 653 170.799804688 653 c 0
 208.162109375 650 325.098632812 645 402.098632812 645 c 2
 543.098632812 645 l 2
 622.098632812 645 734.162109375 650 768.799804688 653 c 0
 769.799804688 653 771.374023438 651 771.162109375 650 c 0
 762.596679688 605 756.543945312 553 753.766601562 507 c 1
 743.916015625 503 724.703125 502 713.703125 502 c 1
 713.0703125 579 676.596679688 605 601.596679688 605 c 2
 579.596679688 605 l 2
 543.596679688 605 525.51953125 567 511.916015625 503 c 2
 431.14453125 123 l 2
EndSplineSet
EndChar

StartChar: afii10037
Encoding: 1059 1059 83
Width: 621
VWidth: 999
Flags: HW
HStem: -22 64<180.643 263.693> 613 32<1 59.1675 206.362 277 412 484.667 556.138 620>
DStem2: 212 575 88 559 0.419188 -0.907899<-30.5778 352.637> 293 115 383 161 0.361446 0.932393<-71.674 0 153.097 525.366>
LayerCount: 2
Fore
SplineSet
224.927734375 42 m 0
 254.927734375 42 275.627929688 50 317.444335938 115 c 1
 206.819335938 559 l 2
 201.848632812 578.900390625 189.296875 613 140.296875 613 c 0
 134.296875 613 130.934570312 616 131.998046875 621 c 2
 137.098632812 645 l 1
 138.311523438 646 l 1
 138.311523438 646 201.098632812 645 242.098632812 645 c 0
 292.098632812 645 414.311523438 646 414.311523438 646 c 1
 416.098632812 645 l 1
 410.998046875 621 l 2
 409.934570312 616 406.296875 613 402.296875 613 c 2
 364.296875 613 l 2
 331.296875 613 328.958984375 602 334.219726562 575 c 1
 411.989257812 254 l 1
 601.219726562 575 l 2
 622.659179688 610 617.296875 613 576.296875 613 c 2
 546.296875 613 l 2
 543.296875 613 540.934570312 616 541.998046875 621 c 2
 547.098632812 645 l 1
 549.311523438 646 l 1
 549.311523438 646 635.098632812 645 677.098632812 645 c 0
 709.098632812 645 757.311523438 646 757.311523438 646 c 1
 759.098632812 645 l 1
 753.998046875 621 l 2
 752.72265625 615 745.296875 613 741.296875 613 c 0
 695.296875 613 683.809570312 606 660.306640625 566 c 2
 417.221679688 161 l 2
 351.052734375 52 280.32421875 -22 190.32421875 -22 c 0
 130.32421875 -22 85.7001953125 8 92.501953125 40 c 0
 98.4541015625 68 115.705078125 88 147.705078125 88 c 0
 172.705078125 88 186.3671875 77 192.81640625 65 c 0
 198.903320312 56 209.927734375 42 224.927734375 42 c 0
EndSplineSet
EndChar

StartChar: afii10039
Encoding: 1061 1061 84
Width: 718
VWidth: 999
Flags: HW
HStem: -2 34<6 77.2637 175.139 221 431 479.696 642.975 703> 613 32<24 81.6763 243.172 295 464 510.913 615.064 682>
DStem2: 253 572 129 549 0.578967 -0.815351<-30.4141 207.826 286.619 564.202> 388 412 565 552 0.640675 0.767812<-16.6551 209.908>
LayerCount: 2
Fore
SplineSet
452.91796875 89 m 1
 394.2890625 246 l 2
 385.69921875 269.099609375 379.366210938 271.299804688 366.83984375 258 c 0
 312.147460938 199.700195312 264.970703125 141 216.4296875 82 c 1
 195.052734375 52 206.3515625 36 250.014648438 33 c 1
 254.739257812 27 250.0625 5 242.787109375 -1 c 1
 203 0 144.212890625 1 121.212890625 1 c 0
 98.212890625 1 40 0 9.787109375 -1 c 1
 5.0625 5 9.7392578125 27 17.0146484375 33 c 1
 62.6279296875 37.2998046875 99.650390625 45.400390625 135.016601562 81 c 2
 343.853515625 291 l 2
 364.454101562 311.700195312 365.068359375 316 351.119140625 344 c 2
 249.96875 547 l 2
 223.455078125 600.099609375 206.659179688 610 165.296875 613 c 1
 160.572265625 619 164.249023438 641 171.524414062 647 c 1
 201.311523438 646 287.098632812 645 326.098632812 645 c 0
 366.098632812 645 433.311523438 646 473.524414062 647 c 1
 478.249023438 641 473.572265625 619 466.296875 613 c 1
 409.659179688 610 405.022460938 594.299804688 419.393554688 557 c 2
 468.823242188 428.700195312 l 2
 476.163085938 409.599609375 481.147460938 402 494.84765625 414.700195312 c 0
 546.5078125 462.5 589.678710938 516 626.881835938 564 c 1
 648.258789062 594 636.959960938 610 593.296875 613 c 1
 588.572265625 619 593.249023438 641 600.524414062 647 c 1
 640.311523438 646 693.098632812 645 716.098632812 645 c 0
 739.098632812 645 788.311523438 646 818.524414062 647 c 1
 823.249023438 641 818.572265625 619 811.296875 613 c 1
 765.68359375 608.700195312 733.404296875 600.799804688 698.294921875 565 c 2
 525.62109375 388.700195312 l 2
 504.14453125 366.700195312 502.013671875 359.5 517.206054688 327 c 2
 623.342773438 99 l 2
 648.486328125 45.099609375 672.65234375 36 714.014648438 33 c 1
 718.739257812 27 715.0625 5 707.787109375 -1 c 1
 678 0 605.212890625 1 566.212890625 1 c 0
 526.212890625 1 450 0 409.787109375 -1 c 1
 405.0625 5 409.739257812 27 417.014648438 33 c 1
 473.65234375 36 470.614257812 53.7001953125 452.91796875 89 c 1
EndSplineSet
EndChar

StartChar: afii10040
Encoding: 1062 1062 85
Width: 722
VWidth: 487
Flags: HW
HStem: -1 34<20 88.5142> 0 42<215.974 501.971> 613 32<19 88.6542 217.213 286 433 501.091 628.883 697>
VStem: 92 122<43.533 611.651> 504 122<44.0875 611.234> 662 41<-136 -78.8302>
LayerCount: 2
Fore
SplineSet
525 0 m 2
 525 0 306 0 166 0 c 2
 19.787109375 -1 l 1
 17.212890625 1 l 1
 21.67578125 22 l 2
 22.951171875 28 28.0146484375 33 33.0146484375 33 c 2
 59.0146484375 33 l 2
 91.0146484375 33 100.501953125 40 109.004882812 80 c 2
 212.51953125 567 l 2
 220.809570312 606 216.296875 613 182.296875 613 c 2
 152.296875 613 l 2
 149.296875 613 147.509765625 614 148.360351562 618 c 2
 154.098632812 645 l 1
 156.311523438 646 l 1
 296.098632812 645 l 1
 423.311523438 646 l 1
 425.098632812 645 l 1
 419.360351562 618 l 2
 418.72265625 615 416.296875 613 413.296875 613 c 2
 383.296875 613 l 2
 351.296875 613 343.021484375 607 334.51953125 567 c 2
 232.705078125 88 l 2
 223.990234375 47 230.927734375 42 261.927734375 42 c 2
 473.927734375 42 l 2
 509.927734375 42 516.116210938 57 522.91796875 89 c 2
 624.51953125 567 l 2
 631.321289062 599 633.296875 613 595.296875 613 c 2
 566.296875 613 l 2
 562.296875 613 560.509765625 614 561.360351562 618 c 2
 567.098632812 645 l 1
 570.311523438 646 l 1
 689.098632812 645 l 1
 834.311523438 646 l 1
 837.098632812 645 l 1
 832.422851562 623 l 2
 831.78515625 620 828.296875 613 824.296875 613 c 2
 795.296875 613 l 1
 758.084960938 612 753.74609375 601 746.51953125 567 c 2
 643.4296875 82 l 2
 638.116210938 57 650.014648438 33 674.014648438 33 c 0
 699.014648438 33 700.463867188 21 699.763671875 13 c 2
 674.092773438 -136 l 1
 633.092773438 -136 l 1
 633.18359375 -65 603 0 525 0 c 2
EndSplineSet
EndChar

StartChar: afii10041
Encoding: 1063 1063 86
Width: 687
VWidth: 999
Flags: HW
HStem: -1 34<386 466.5 595.051 666> 248 63<243.549 386.648> 613 33<29 94.6501 221.253 287 396 467.719 594.197 666>
VStem: 97 122<333.393 611.375> 470 122<34.8668 314 344.538 611.828>
LayerCount: 2
Fore
SplineSet
437.014648438 33 m 2
 473.014648438 33 479.77734375 46 487.004882812 80 c 2
 536.743164062 314 l 1
 452.90234375 263 381.713867188 248 323.713867188 248 c 0
 209.713867188 248 166.505859375 327 187.548828125 426 c 2
 218.58203125 572 l 2
 225.809570312 606 222.296875 613 183.296875 613 c 2
 166.296875 613 l 2
 161.296875 613 159.72265625 615 160.572265625 619 c 2
 166.311523438 646 l 1
 315.098632812 645 l 1
 424.311523438 646 l 1
 418.360351562 618 l 2
 417.72265625 615 415.296875 613 411.296875 613 c 2
 393.296875 613 l 2
 351.296875 613 347.171875 603 340.58203125 572 c 2
 308.2734375 420 l 2
 290.84375 338 307.10546875 311 379.10546875 311 c 0
 408.10546875 311 472.955078125 315 545.8828125 357 c 1
 591.370117188 571 l 2
 598.596679688 605 596.296875 613 560.296875 613 c 2
 530.296875 613 l 2
 527.296875 613 526.509765625 614 527.360351562 618 c 2
 533.311523438 646 l 1
 688.88671875 644 l 1
 803.311523438 646 l 1
 797.572265625 619 l 2
 796.72265625 615 794.296875 613 791.296875 613 c 2
 761.296875 613 l 2
 727.296875 613 721.234375 608 713.370117188 571 c 2
 609.004882812 80 l 2
 601.139648438 43 604.014648438 33 638.014648438 33 c 2
 668.014648438 33 l 2
 671.014648438 33 672.376953125 30 671.739257812 27 c 2
 665.787109375 -1 l 1
 552.212890625 1 l 1
 385.787109375 -1 l 1
 391.739257812 27 l 2
 392.588867188 31 394.014648438 33 398.014648438 33 c 2
 437.014648438 33 l 2
EndSplineSet
EndChar

StartChar: afii10042
Encoding: 1064 1064 87
Width: 1087
VWidth: 487
Flags: HW
HStem: -1 34<34 103.253 984.033 1054> 2 40<230.584 479.921 606.71 856.864> 613 32<19 98.5971 237.067 313 397 474.538 612.451 690 774 851.597 989.451 1068>
VStem: 106 123<43.9395 607.491> 482 122<43.6743 607.252> 859 122<43.3821 607.252>
LayerCount: 2
Fore
SplineSet
1101.94433594 569 m 2
 996.94140625 75 l 2
 989.501953125 40 997.014648438 33 1028.01464844 33 c 2
 1058.01464844 33 l 2
 1061.01464844 33 1062.58886719 31 1061.95117188 28 c 2
 1056.21289062 1 l 1
 1053.78710938 -1 l 1
 939.424804688 2 l 1
 221.424804688 2 l 1
 33.787109375 -1 l 1
 32.212890625 1 l 1
 37.951171875 28 l 2
 38.5888671875 31 41.0146484375 33 44.0146484375 33 c 2
 74.0146484375 33 l 2
 108.014648438 33 114.71484375 41 123.004882812 80 c 2
 226.944335938 569 l 2
 233.534179688 600 221.296875 613 182.296875 613 c 2
 155.296875 613 l 2
 151.296875 613 147.934570312 616 148.998046875 621 c 2
 154.098632812 645 l 1
 156.311523438 646 l 1
 156.311523438 646 264.098632812 645 304.098632812 645 c 0
 339.098632812 645 450.311523438 646 450.311523438 646 c 1
 452.098632812 645 l 1
 446.998046875 621 l 2
 445.934570312 616 442.296875 613 437.296875 613 c 2
 413.296875 613 l 2
 372.296875 613 355.896484375 597 349.944335938 569 c 2
 247.705078125 88 l 2
 240.903320312 56 237.927734375 42 276.927734375 42 c 2
 456.927734375 42 l 2
 487.927734375 42 494.116210938 57 500.705078125 88 c 2
 602.944335938 569 l 2
 609.534179688 600 597.296875 613 557.296875 613 c 2
 533.296875 613 l 2
 529.296875 613 525.934570312 616 526.998046875 621 c 2
 532.098632812 645 l 1
 534.311523438 646 l 1
 534.311523438 646 640.098632812 645 679.098632812 645 c 0
 715.098632812 645 805.311523438 646 805.311523438 646 c 1
 827.098632812 645 l 1
 821.998046875 621 l 2
 820.934570312 616 818.296875 613 813.296875 613 c 2
 789.296875 613 l 2
 748.296875 613 730.896484375 597 724.944335938 569 c 2
 622.705078125 88 l 2
 616.328125 58 616.927734375 42 649.927734375 42 c 2
 828.927734375 42 l 2
 861.927734375 42 869.415039062 49 877.705078125 88 c 2
 979.944335938 569 l 2
 986.534179688 600 974.296875 613 935.296875 613 c 2
 911.296875 613 l 2
 906.296875 613 902.934570312 616 903.998046875 621 c 2
 909.098632812 645 l 1
 911.311523438 646 l 1
 911.311523438 646 1017.09863281 645 1056.09863281 645 c 0
 1092.09863281 645 1205.31152344 646 1205.31152344 646 c 1
 1207.09863281 645 l 1
 1201.99804688 621 l 2
 1200.93457031 616 1197.296875 613 1192.296875 613 c 2
 1166.296875 613 l 2
 1125.296875 613 1107.89648438 597 1101.94433594 569 c 2
EndSplineSet
EndChar

StartChar: afii10043
Encoding: 1065 1065 88
Width: 1089
VWidth: 487
Flags: HW
HStem: 0 31<34 103.32> 1 40<231.307 479.648 606.781 856.754> 613 32<19 98.5971 237.067 313 397 474.538 612.451 688 774 851.597 989.451 1068>
VStem: 106 123<43.2559 607.491> 482 122<43.5908 607.252> 859 122<42.9083 607.252> 1014 44<-141 -88.5684>
LayerCount: 2
Fore
SplineSet
349.944335938 569 m 2
 247.705078125 88 l 2
 241.328125 58 239.71484375 41 276.71484375 41 c 2
 448.71484375 41 l 2
 486.71484375 41 493.052734375 52 500.705078125 88 c 2
 602.944335938 569 l 2
 609.534179688 600 597.296875 613 557.296875 613 c 2
 533.296875 613 l 2
 529.296875 613 525.934570312 616 526.998046875 621 c 2
 532.098632812 645 l 1
 534.311523438 646 l 1
 534.311523438 646 646.098632812 645 685.098632812 645 c 0
 721.098632812 645 825.311523438 646 825.311523438 646 c 1
 827.098632812 645 l 1
 821.998046875 621 l 2
 820.934570312 616 818.296875 613 813.296875 613 c 2
 789.296875 613 l 2
 748.296875 613 730.896484375 597 724.944335938 569 c 2
 622.705078125 88 l 2
 615.052734375 52 617.71484375 41 660.71484375 41 c 2
 828.71484375 41 l 2
 863.71484375 41 870.052734375 52 877.705078125 88 c 2
 979.944335938 569 l 2
 986.534179688 600 974.296875 613 935.296875 613 c 2
 911.296875 613 l 2
 906.296875 613 902.934570312 616 903.998046875 621 c 2
 909.098632812 645 l 1
 911.311523438 646 l 1
 911.311523438 646 1021.09863281 645 1060.09863281 645 c 0
 1095.09863281 645 1205.31152344 646 1205.31152344 646 c 1
 1207.09863281 645 l 1
 1201.99804688 621 l 2
 1200.93457031 616 1197.296875 613 1192.296875 613 c 2
 1166.296875 613 l 2
 1125.296875 613 1107.89648438 597 1101.94433594 569 c 2
 999.067382812 85 l 2
 990.77734375 46 1013.01464844 33 1028.01464844 33 c 0
 1046.01464844 33 1055.88867188 23 1053.27539062 6 c 2
 1028.02929688 -141 l 1
 984.029296875 -141 l 1
 986.381835938 -97 944.212890625 1 858.212890625 1 c 2
 188.212890625 1 l 1
 33.787109375 -1 l 1
 32 0 l 1
 37.5263671875 26 l 2
 38.376953125 30 40.5888671875 31 43.5888671875 31 c 2
 73.5888671875 31 l 2
 106.588867188 31 113.439453125 35 121.729492188 74 c 2
 226.944335938 569 l 2
 233.534179688 600 221.296875 613 182.296875 613 c 2
 155.296875 613 l 2
 151.296875 613 147.934570312 616 148.998046875 621 c 2
 154.098632812 645 l 1
 156.311523438 646 l 1
 156.311523438 646 271.098632812 645 310.098632812 645 c 0
 345.098632812 645 450.311523438 646 450.311523438 646 c 1
 452.098632812 645 l 1
 446.998046875 621 l 2
 445.934570312 616 442.296875 613 437.296875 613 c 2
 413.296875 613 l 2
 372.296875 613 355.896484375 597 349.944335938 569 c 2
EndSplineSet
EndChar

StartChar: afii10044
Encoding: 1066 1066 89
Width: 780
VWidth: 999
Flags: HW
HStem: -1 35<178 258.408 393.048 541.239> 331 44<387 557.861> 602 44<130.709 261.935> 613 33<394.803 474>
VStem: 26 47<473.255 529.979> 265 122<39.0136 331 375 599.078> 613 131<97.6675 271.008>
LayerCount: 2
Fore
SplineSet
457.356445312 331 m 1
 404.854492188 84 l 2
 397.840820312 51 399.2265625 34 454.2265625 34 c 0
 606.2265625 34 638.719726562 121 651.897460938 183 c 0
 664.651367188 243 673.356445312 331 545.356445312 331 c 2
 457.356445312 331 l 1
461.098632812 645 m 2
 497.098632812 645 611.311523438 646 611.311523438 646 c 1
 613.098632812 645 l 1
 607.998046875 621 l 2
 606.934570312 616 603.296875 613 598.296875 613 c 2
 572.296875 613 l 2
 531.296875 613 513.896484375 597 507.944335938 569 c 2
 466.708984375 375 l 1
 527.708984375 375 l 2
 772.708984375 375 801.815429688 272 782.897460938 183 c 0
 747.401367188 16 565.787109375 -1 444.787109375 -1 c 0
 408.787109375 -1 357.212890625 1 328.212890625 1 c 0
 292.212890625 1 177.787109375 -1 177.787109375 -1 c 1
 176.212890625 1 l 1
 181.1015625 24 l 2
 182.376953125 30 186.014648438 33 191.014648438 33 c 2
 217.014648438 33 l 2
 258.014648438 33 275.415039062 49 281.3671875 77 c 2
 383.819335938 559 l 2
 389.55859375 586 381.958984375 602 353.958984375 602 c 2
 308.958984375 602 l 2
 242.958984375 602 190.829101562 512 172.689453125 469 c 1
 126.751953125 474 l 1
 147.655273438 530 164.1328125 584 179.311523438 646 c 1
 402.311523438 646 l 1
 461.098632812 645 l 2
EndSplineSet
EndChar

StartChar: afii10045
Encoding: 1067 1067 90
Width: 908
VWidth: 999
Flags: HW
HStem: -1 34<612 680.724 816.184 884> -1 35<19 99.4082 234.048 379.573> 331 45<228 397.119> 613 32<19 97.5488 235.462 315> 614 34<612 680.724 816.184 884>
VStem: 106 122<39.0136 331 376 607.252> 454 127<93.6435 279.371> 687 122<38.5094 608.491>
LayerCount: 2
Fore
SplineSet
813.379882812 524 m 2
 831.021484375 607 803.872070312 611 749.509765625 614 c 1
 740.78515625 620 745.4609375 642 756.736328125 648 c 1
 796.524414062 647 870.311523438 646 910.311523438 646 c 0
 950.311523438 646 1022.52441406 647 1062.73632812 648 c 1
 1071.4609375 642 1066.78515625 620 1055.50976562 614 c 1
 999.872070312 611 971.021484375 607 953.379882812 524 c 2
 868.14453125 123 l 2
 850.501953125 40 877.65234375 36 932.014648438 33 c 1
 940.739257812 27 936.0625 5 924.787109375 -1 c 1
 885 0 813.212890625 1 773.212890625 1 c 0
 733.212890625 1 659 0 618.787109375 -1 c 1
 610.0625 5 614.739257812 27 626.014648438 33 c 1
 681.65234375 36 710.501953125 40 728.14453125 123 c 2
 813.379882812 524 l 2
226.944335938 569 m 2
 232.896484375 597 222.296875 613 181.296875 613 c 2
 155.296875 613 l 2
 150.296875 613 147.934570312 616 148.998046875 621 c 2
 154.098632812 645 l 1
 156.311523438 646 l 1
 156.311523438 646 267.098632812 645 303.098632812 645 c 0
 342.098632812 645 452.311523438 646 452.311523438 646 c 1
 454.098632812 645 l 1
 448.998046875 621 l 2
 447.934570312 616 443.296875 613 439.296875 613 c 2
 413.296875 613 l 2
 373.296875 613 355.534179688 600 348.944335938 569 c 2
 307.920898438 376 l 1
 385.920898438 376 l 2
 630.920898438 376 638.815429688 272 619.897460938 183 c 0
 584.401367188 16 423.787109375 -1 302.787109375 -1 c 0
 266.787109375 -1 195.212890625 1 166.212890625 1 c 0
 137.212890625 1 18.787109375 -1 18.787109375 -1 c 1
 17.212890625 1 l 1
 22.1015625 24 l 2
 23.376953125 30 27.0146484375 33 32.0146484375 33 c 2
 58.0146484375 33 l 2
 99.0146484375 33 116.415039062 49 122.3671875 77 c 2
 226.944335938 569 l 2
298.356445312 331 m 1
 245.854492188 84 l 2
 238.840820312 51 240.2265625 34 295.2265625 34 c 0
 446.2265625 34 479.719726562 121 492.897460938 183 c 0
 505.651367188 243 514.356445312 331 385.356445312 331 c 2
 298.356445312 331 l 1
EndSplineSet
EndChar

StartChar: afii10046
Encoding: 1068 1068 91
Width: 617
VWidth: 999
Flags: HW
HStem: -1 35<19 99.4082 234.048 379.573> 331 45<228 397.119> 613 32<19 97.5488 235.462 315>
VStem: 106 122<39.0136 331 376 607.252> 454 127<93.6435 279.371>
LayerCount: 2
Fore
SplineSet
226.944335938 569 m 2
 232.896484375 597 222.296875 613 181.296875 613 c 2
 155.296875 613 l 2
 150.296875 613 147.934570312 616 148.998046875 621 c 2
 154.098632812 645 l 1
 156.311523438 646 l 1
 156.311523438 646 267.098632812 645 303.098632812 645 c 0
 342.098632812 645 452.311523438 646 452.311523438 646 c 1
 454.098632812 645 l 1
 448.998046875 621 l 2
 447.934570312 616 443.296875 613 439.296875 613 c 2
 413.296875 613 l 2
 373.296875 613 355.534179688 600 348.944335938 569 c 2
 307.920898438 376 l 1
 385.920898438 376 l 2
 630.920898438 376 638.815429688 272 619.897460938 183 c 0
 584.401367188 16 423.787109375 -1 302.787109375 -1 c 0
 266.787109375 -1 195.212890625 1 166.212890625 1 c 0
 137.212890625 1 18.787109375 -1 18.787109375 -1 c 1
 17.212890625 1 l 1
 22.1015625 24 l 2
 23.376953125 30 27.0146484375 33 32.0146484375 33 c 2
 58.0146484375 33 l 2
 99.0146484375 33 116.415039062 49 122.3671875 77 c 2
 226.944335938 569 l 2
298.356445312 331 m 1
 245.854492188 84 l 2
 238.840820312 51 240.2265625 34 295.2265625 34 c 0
 446.2265625 34 479.719726562 121 492.897460938 183 c 0
 505.651367188 243 514.356445312 331 385.356445312 331 c 2
 298.356445312 331 l 1
EndSplineSet
EndChar

StartChar: afii10047
Encoding: 1069 1069 92
Width: 625
VWidth: 999
Flags: HW
HStem: -12 38<199.301 353.574> 273 66<307.887 449.597> 311 59<161.217 283.679> 616 42<190.147 341.059>
VStem: 42 39<457.282 500.885> 54 89<77.2543 155.168> 451 131<196.438 295 341.365 467.623>
LayerCount: 2
Fore
SplineSet
513.704101562 295 m 1
 464.028320312 273 429.028320312 273 418.028320312 273 c 0
 356.028320312 273 321.10546875 311 262.10546875 311 c 0
 224.10546875 311 204.704101562 295 196.704101562 295 c 0
 192.704101562 295 189.404296875 303 191.317382812 312 c 0
 196.418945312 336 266.645507812 370 325.645507812 370 c 0
 391.645507812 370 414.056640625 339 472.056640625 339 c 0
 491.056640625 339 508.694335938 342 524.544921875 346 c 1
 558.90625 550 481.934570312 616 401.934570312 616 c 0
 306.934570312 616 220.780273438 540 177.500976562 454 c 1
 139.350585938 458 l 1
 161.616210938 511 179.606445312 558 193.296875 613 c 1
 251.934570312 616 313.862304688 658 418.862304688 658 c 0
 583.862304688 658 698.90625 550 652.78125 333 c 0
 606.018554688 113 442.44921875 -12 272.44921875 -12 c 0
 186.44921875 -12 137.0390625 19 111.139648438 43 c 0
 88.603515625 64 74.193359375 95 79.931640625 122 c 0
 85.4580078125 148 105.072265625 165 123.072265625 165 c 0
 152.072265625 165 164.30859375 152 168.506835938 120 c 0
 177.9453125 48.2001953125 219.526367188 26 291.526367188 26 c 0
 414.526367188 26 483.221679688 161 513.704101562 295 c 1
EndSplineSet
EndChar

StartChar: afii10048
Encoding: 1070 1070 93
Width: 937
VWidth: 999
Flags: HW
HStem: -12 39<554.854 687.491> -1 34<24 92.7241 228.184 296> 300 49<221 317> 613 32<24 91.5375 229.451 296> 619 39<533.072 673.166>
VStem: 99 122<38.5094 300 349 607.491> 317 126<178.838 300 349 443.243> 771 127<190.805 458.298>
LayerCount: 2
Fore
SplineSet
724.572265625 619 m 0
 640.572265625 619 557.142578125 537 512.505859375 327 c 0
 471.6953125 135 521.739257812 27 629.739257812 27 c 0
 732.739257812 27 798.844726562 131 836.892578125 310 c 0
 881.104492188 518 849.572265625 619 724.572265625 619 c 0
237.3671875 77 m 2
 231.415039062 49 242.014648438 33 283.014648438 33 c 2
 297.014648438 33 l 2
 302.014648438 33 304.376953125 30 303.1015625 24 c 2
 298.212890625 1 l 1
 295.787109375 -1 l 1
 295.787109375 -1 196.212890625 1 160.212890625 1 c 0
 121.212890625 1 23.787109375 -1 23.787109375 -1 c 1
 22.212890625 1 l 1
 27.1015625 24 l 2
 28.376953125 30 33.0146484375 33 37.0146484375 33 c 2
 51.0146484375 33 l 2
 91.0146484375 33 108.565429688 45 115.3671875 77 c 2
 219.944335938 569 l 2
 226.74609375 601 214.296875 613 174.296875 613 c 2
 160.296875 613 l 2
 156.296875 613 152.934570312 616 153.998046875 621 c 2
 159.098632812 645 l 1
 161.311523438 646 l 1
 161.311523438 646 258.098632812 645 297.098632812 645 c 0
 333.098632812 645 433.311523438 646 433.311523438 646 c 1
 435.098632812 645 l 1
 429.998046875 621 l 2
 428.934570312 616 425.296875 613 420.296875 613 c 2
 406.296875 613 l 2
 365.296875 613 347.896484375 597 341.944335938 569 c 2
 295.182617188 349 l 1
 392.182617188 349 l 1
 444.8046875 526 589.862304688 658 744.862304688 658 c 0
 911.862304688 658 1010.01757812 527 967.930664062 329 c 0
 925.419921875 129 781.44921875 -12 603.44921875 -12 c 0
 445.44921875 -12 344.168945312 109 380.766601562 300 c 1
 284.766601562 300 l 1
 237.3671875 77 l 2
EndSplineSet
EndChar

StartChar: afii10049
Encoding: 1071 1071 94
Width: 612
VWidth: 999
Flags: HW
HStem: -1 34<11 57.5665 296 376.155 511.524 593> 320 48<298.94 383> 606 40<215.181 381.843> 613 33<510.485 596>
VStem: 69 108<410.473 564.69> 383 122<38.2361 320 368 602.434>
LayerCount: 2
Fore
SplineSet
451.018554688 320 m 1
 345.018554688 320 343.01953125 281.900390625 285.259765625 180 c 0
 222.87890625 70 179.212890625 1 107 0 c 2
 10.787109375 -1 l 1
 10.212890625 1 l 1
 15.1015625 24 l 2
 16.376953125 30 20.0146484375 33 24.0146484375 33 c 2
 33.0146484375 33 l 2
 66.0146484375 33 130.893554688 103 212.163085938 236 c 0
 237.157226562 276.900390625 258.10546875 311 287.930664062 329 c 1
 222.056640625 339 150.833984375 385 172.514648438 487 c 0
 187.181640625 556 250.311523438 646 436.311523438 646 c 0
 471.311523438 646 552.098632812 645 584.098632812 645 c 0
 616.098632812 645 733.311523438 646 733.311523438 646 c 1
 727.78515625 620 l 2
 726.934570312 616 724.296875 613 718.296875 613 c 2
 689.296875 613 l 2
 647.296875 613 633.171875 603 625.944335938 569 c 2
 521.154296875 76 l 2
 514.565429688 45 528.014648438 33 567.014648438 33 c 2
 593.014648438 33 l 2
 598.014648438 33 601.376953125 30 600.1015625 24 c 2
 595.212890625 1 l 1
 592.787109375 -1 l 1
 592.787109375 -1 486.212890625 1 447.212890625 1 c 0
 411.212890625 1 295.787109375 -1 295.787109375 -1 c 1
 294.212890625 1 l 1
 299.1015625 24 l 2
 300.376953125 30 304.014648438 33 309.014648438 33 c 2
 336.014648438 33 l 2
 377.014648438 33 393.203125 48 399.154296875 76 c 2
 451.018554688 320 l 1
504.157226562 570 m 2
 511.171875 603 507.809570312 606 420.809570312 606 c 0
 364.809570312 606 303.470703125 595 283.703125 502 c 0
 261.172851562 396 301.220703125 368 384.220703125 368 c 2
 461.220703125 368 l 1
 504.157226562 570 l 2
EndSplineSet
EndChar

StartChar: afii10089
Encoding: 1095 1095 95
Width: 581
VWidth: 999
Flags: HW
HStem: -1 34<310 367.151 483.217 540> 146 40<195.202 332.641> 402 34<18 67.6078 184.253 241 310 366.902 483.294 550>
VStem: 71 110<211.872 400.259> 370 110<34.624 189 212.403 400.488>
LayerCount: 2
Fore
SplineSet
445.245117188 354 m 2
 453.53515625 393 450.447265625 402 415.447265625 402 c 2
 399.447265625 402 l 2
 396.447265625 402 394.66015625 403 395.510742188 407 c 2
 401.25 434 l 1
 402.674804688 436 l 1
 512.25 434 l 1
 642.674804688 436 l 1
 644.25 434 l 1
 638.510742188 407 l 2
 637.873046875 404 635.447265625 402 631.447265625 402 c 2
 606.447265625 402 l 2
 572.447265625 402 563.959960938 395 555.245117188 354 c 2
 497.216796875 81 l 2
 489.139648438 43 491.014648438 33 528.014648438 33 c 2
 544.014648438 33 l 2
 548.014648438 33 548.588867188 31 547.951171875 28 c 2
 542.212890625 1 l 1
 539.787109375 -1 l 1
 539.787109375 -1 449.212890625 1 412.212890625 1 c 0
 372.212890625 1 309.787109375 -1 309.787109375 -1 c 1
 308.212890625 1 l 1
 313.739257812 27 l 2
 314.588867188 31 317.014648438 33 320.014648438 33 c 2
 337.014648438 33 l 2
 373.014648438 33 378.927734375 42 387.216796875 81 c 2
 410.172851562 189 l 1
 365.008789062 160 330.033203125 146 270.033203125 146 c 0
 172.033203125 146 111.598632812 191 134.12890625 297 c 2
 146.458007812 355 l 2
 154.53515625 393 150.447265625 402 115.447265625 402 c 2
 107.447265625 402 l 2
 104.447265625 402 102.66015625 403 103.510742188 407 c 2
 109.25 434 l 1
 110.674804688 436 l 1
 213.037109375 433 l 1
 333.674804688 436 l 1
 334.25 434 l 1
 328.72265625 408 l 2
 327.873046875 404 325.447265625 402 321.447265625 402 c 2
 306.447265625 402 l 2
 273.447265625 402 264.322265625 392 257.520507812 360 c 2
 243.279296875 293 l 2
 226.69921875 215 227.53515625 186 289.53515625 186 c 0
 338.53515625 186 380.0859375 198 418.67578125 229 c 1
 445.245117188 354 l 2
EndSplineSet
EndChar

StartChar: afii10090
Encoding: 1096 1096 96
Width: 923
VWidth: 999
Flags: HW
HStem: -1 34<43 102.064 816.857 890> 0 41<215.46 401.772 517.304 702.1> 402 34<33 100.608 215.968 277 340 400.902 517.294 583 636 701.902 817.932 880>
VStem: 104 109<43.0804 400.422> 404 110<43.0065 400.488> 705 110<43.4492 400.499>
LayerCount: 2
Fore
SplineSet
890.458007812 355 m 2
 830.729492188 74 l 2
 822.2265625 34 829.014648438 33 863.014648438 33 c 2
 893.014648438 33 l 2
 897.014648438 33 898.376953125 30 897.739257812 27 c 2
 892.212890625 1 l 1
 889.787109375 -1 l 1
 758 0 l 1
 154 0 l 1
 42.787109375 -1 l 1
 42.212890625 1 l 1
 47.951171875 28 l 2
 48.5888671875 31 50.0146484375 33 54.0146484375 33 c 2
 70.0146484375 33 l 2
 105.014648438 33 111.65234375 36 119.94140625 75 c 2
 179.458007812 355 l 2
 187.53515625 393 183.447265625 402 148.447265625 402 c 2
 122.447265625 402 l 2
 119.447265625 402 117.66015625 403 118.510742188 407 c 2
 124.25 434 l 1
 125.674804688 436 l 1
 246.037109375 433 l 1
 369.674804688 436 l 1
 371.25 434 l 1
 365.72265625 408 l 2
 364.873046875 404 362.447265625 402 358.447265625 402 c 2
 339.447265625 402 l 2
 305.447265625 402 297.172851562 396 288.458007812 355 c 2
 232.129882812 90 l 2
 223.627929688 50 227.71484375 41 262.71484375 41 c 2
 372.71484375 41 l 2
 407.71484375 41 415.052734375 52 422.91796875 89 c 2
 479.245117188 354 l 2
 487.53515625 393 484.447265625 402 449.447265625 402 c 2
 429.447265625 402 l 2
 426.447265625 402 424.66015625 403 425.510742188 407 c 2
 431.25 434 l 1
 432.674804688 436 l 1
 546.25 434 l 1
 675.674804688 436 l 1
 676.25 434 l 1
 670.510742188 407 l 2
 669.873046875 404 668.447265625 402 664.447265625 402 c 2
 640.447265625 402 l 2
 606.447265625 402 597.959960938 395 589.245117188 354 c 2
 533.129882812 90 l 2
 524.203125 48 534.71484375 41 563.71484375 41 c 2
 673.71484375 41 l 2
 710.71484375 41 717.541015625 59 724.129882812 90 c 2
 780.458007812 355 l 2
 788.53515625 393 785.447265625 402 750.447265625 402 c 2
 725.447265625 402 l 2
 722.447265625 402 720.66015625 403 721.510742188 407 c 2
 727.25 434 l 1
 728.674804688 436 l 1
 847.037109375 433 l 1
 972.674804688 436 l 1
 974.25 434 l 1
 968.72265625 408 l 2
 967.873046875 404 965.447265625 402 961.447265625 402 c 2
 940.447265625 402 l 2
 907.447265625 402 899.172851562 396 890.458007812 355 c 2
EndSplineSet
EndChar

StartChar: afii10091
Encoding: 1097 1097 97
Width: 917
VWidth: 999
Flags: HW
HStem: -1 34<43 101.812> 0 40<215.46 401.502 517.304 702.1> 402 34<33 100.608 215.968 277 340 400.902 517.294 583 636 701.902 817.932 880>
VStem: 104 109<42.1362 400.422> 404 110<41.8323 400.488> 705 110<42.9362 400.499> 843 43<-128 -68.6074>
LayerCount: 2
Fore
SplineSet
890.458007812 355 m 2
 831.791992188 79 l 2
 826.478515625 54 835.014648438 33 858.014648438 33 c 0
 872.014648438 33 884.526367188 26 881.700195312 8 c 2
 858.79296875 -128 l 1
 815.79296875 -128 l 1
 814.208007812 -79 804 0 724 0 c 2
 155 0 l 1
 42.787109375 -1 l 1
 42.212890625 1 l 1
 47.7392578125 27 l 2
 48.5888671875 31 50.0146484375 33 54.0146484375 33 c 2
 70.0146484375 33 l 2
 105.014648438 33 111.864257812 37 119.94140625 75 c 2
 179.458007812 355 l 2
 187.53515625 393 183.447265625 402 148.447265625 402 c 2
 122.447265625 402 l 2
 119.447265625 402 117.66015625 403 118.510742188 407 c 2
 124.25 434 l 1
 125.674804688 436 l 1
 246.037109375 433 l 1
 369.674804688 436 l 1
 371.25 434 l 1
 365.72265625 408 l 2
 364.873046875 404 362.447265625 402 358.447265625 402 c 2
 339.447265625 402 l 2
 305.447265625 402 297.172851562 396 288.458007812 355 c 2
 231.705078125 88 l 2
 223.415039062 49 227.501953125 40 262.501953125 40 c 2
 372.501953125 40 l 2
 407.501953125 40 414.840820312 51 422.705078125 88 c 2
 479.245117188 354 l 2
 487.53515625 393 484.447265625 402 449.447265625 402 c 2
 429.447265625 402 l 2
 426.447265625 402 424.66015625 403 425.510742188 407 c 2
 431.25 434 l 1
 432.674804688 436 l 1
 546.25 434 l 1
 675.674804688 436 l 1
 676.25 434 l 1
 670.510742188 407 l 2
 669.873046875 404 668.447265625 402 664.447265625 402 c 2
 640.447265625 402 l 2
 606.447265625 402 597.959960938 395 589.245117188 354 c 2
 532.705078125 88 l 2
 523.77734375 46 534.501953125 40 563.501953125 40 c 2
 673.71484375 41 l 2
 710.778320312 41.2998046875 716.903320312 56 723.91796875 89 c 2
 780.458007812 355 l 2
 788.53515625 393 785.447265625 402 750.447265625 402 c 2
 725.447265625 402 l 2
 722.447265625 402 720.66015625 403 721.510742188 407 c 2
 727.25 434 l 1
 728.674804688 436 l 1
 847.037109375 433 l 1
 972.674804688 436 l 1
 974.25 434 l 1
 968.72265625 408 l 2
 967.873046875 404 965.447265625 402 961.447265625 402 c 2
 940.447265625 402 l 2
 907.447265625 402 899.172851562 396 890.458007812 355 c 2
EndSplineSet
EndChar

StartChar: afii10092
Encoding: 1098 1098 98
Width: 590
VWidth: 999
Flags: HW
HStem: -1 34<128 190.926 315.978 425.383> 224 37<306 429.16> 393 41<96.8817 193.94> 402 34<308.281 380>
VStem: 26 35<279 343.414> 196 110<42.1465 224 261 392.378> 449 110<64.672 203.325>
LayerCount: 2
Fore
SplineSet
212.3671875 77 m 2
 269.756835938 347 l 2
 277.622070312 384 272.53515625 393 250.53515625 393 c 0
 168.53515625 393 153.8828125 357 119.453125 275 c 1
 85.515625 280 l 1
 102.29296875 326 117.133789062 377 130.461914062 435 c 1
 343.25 434 l 1
 472.674804688 436 l 1
 474.25 434 l 1
 468.297851562 406 l 2
 467.447265625 402 465.447265625 402 462.447265625 402 c 2
 431.447265625 402 l 2
 395.447265625 402 389.747070312 394 382.307617188 359 c 2
 361.477539062 261 l 1
 427.477539062 261 l 2
 523.477539062 261 607.887695312 230 587.907226562 136 c 0
 570.052734375 52 488 0 376 0 c 2
 249.212890625 1 l 2
 213.212890625 1 127.787109375 -1 127.787109375 -1 c 1
 126.212890625 1 l 1
 131.1015625 24 l 2
 132.376953125 30 136.014648438 33 141.014648438 33 c 2
 160.014648438 33 l 2
 194.014648438 33 206.203125 48 212.3671875 77 c 2
475.782226562 126 m 0
 487.047851562 179 491.612304688 224 420.612304688 224 c 2
 353.612304688 224 l 1
 323.642578125 83 l 2
 315.990234375 47 330.65234375 36 376.65234375 36 c 0
 426.65234375 36 458.352539062 44 475.782226562 126 c 0
EndSplineSet
EndChar

StartChar: afii10093
Encoding: 1099 1099 99
Width: 749
VWidth: 999
Flags: HW
HStem: -1 34<38 100.926 223.805 335.983 475 537.648 658.352 721> 224 37<216 339.16> 401 34<38 100.926 221.352 284> 402 34<475 537.648 658.352 721>
VStem: 106 110<40.9339 224 261 397.844> 359 110<64.672 203.325> 543 110<36.1563 398.688>
LayerCount: 2
Fore
SplineSet
619.095703125 358 m 2
 625.046875 386 618.447265625 402 585.447265625 402 c 2
 566.447265625 402 l 2
 561.447265625 402 559.084960938 405 560.1484375 410 c 2
 565.25 434 l 1
 567.674804688 436 l 1
 567.674804688 436 652.25 434 688.25 434 c 0
 727.25 434 813.674804688 436 813.674804688 436 c 1
 815.25 434 l 1
 810.1484375 410 l 2
 809.084960938 405 804.447265625 402 800.447265625 402 c 2
 781.447265625 402 l 2
 748.447265625 402 735.046875 386 729.095703125 358 c 2
 669.3671875 77 l 2
 663.203125 48 670.014648438 33 703.014648438 33 c 2
 722.014648438 33 l 2
 726.014648438 33 729.376953125 30 728.1015625 24 c 2
 723.212890625 1 l 1
 720.787109375 -1 l 1
 720.787109375 -1 635.212890625 1 596.212890625 1 c 0
 560.212890625 1 474.787109375 -1 474.787109375 -1 c 1
 473.212890625 1 l 1
 478.1015625 24 l 2
 479.376953125 30 483.014648438 33 488.014648438 33 c 2
 507.014648438 33 l 2
 540.014648438 33 553.203125 48 559.3671875 77 c 2
 619.095703125 358 l 2
385.782226562 126 m 0
 397.047851562 179 401.612304688 224 330.612304688 224 c 2
 263.612304688 224 l 1
 232.791992188 79 l 2
 225.139648438 43 240.65234375 36 286.65234375 36 c 0
 336.65234375 36 368.352539062 44 385.782226562 126 c 0
122.3671875 77 m 2
 181.8828125 357 l 2
 188.046875 386 182.235351562 401 148.235351562 401 c 2
 129.235351562 401 l 2
 124.235351562 401 121.873046875 404 123.1484375 410 c 2
 128.037109375 433 l 1
 130.461914062 435 l 1
 130.461914062 435 216.037109375 433 251.037109375 433 c 0
 290.037109375 433 376.461914062 435 376.461914062 435 c 1
 378.037109375 433 l 1
 373.1484375 410 l 2
 371.873046875 404 367.235351562 401 363.235351562 401 c 2
 344.235351562 401 l 2
 311.235351562 401 298.046875 386 291.8828125 357 c 2
 271.477539062 261 l 1
 337.477539062 261 l 2
 433.477539062 261 517.887695312 230 497.907226562 136 c 0
 480.052734375 52 398 0 287 0 c 2
 159.212890625 1 l 2
 124.212890625 1 37.787109375 -1 37.787109375 -1 c 1
 36.212890625 1 l 1
 41.1015625 24 l 2
 42.376953125 30 46.0146484375 33 51.0146484375 33 c 2
 70.0146484375 33 l 2
 104.014648438 33 116.203125 48 122.3671875 77 c 2
EndSplineSet
EndChar

StartChar: afii10094
Encoding: 1100 1100 100
Width: 500
VWidth: 999
Flags: HW
HStem: -1 34<38 100.926 223.805 335.983> 224 37<216 339.16> 401 34<38 100.926 221.352 284>
VStem: 106 110<40.9339 224 261 397.844> 359 110<64.672 203.325>
LayerCount: 2
Fore
SplineSet
385.782226562 126 m 0
 397.047851562 179 401.612304688 224 330.612304688 224 c 2
 263.612304688 224 l 1
 232.791992188 79 l 2
 225.139648438 43 240.65234375 36 286.65234375 36 c 0
 336.65234375 36 368.352539062 44 385.782226562 126 c 0
122.3671875 77 m 2
 181.8828125 357 l 2
 188.046875 386 182.235351562 401 148.235351562 401 c 2
 129.235351562 401 l 2
 124.235351562 401 121.873046875 404 123.1484375 410 c 2
 128.037109375 433 l 1
 130.461914062 435 l 1
 130.461914062 435 216.037109375 433 251.037109375 433 c 0
 290.037109375 433 376.461914062 435 376.461914062 435 c 1
 378.037109375 433 l 1
 373.1484375 410 l 2
 371.873046875 404 367.235351562 401 363.235351562 401 c 2
 344.235351562 401 l 2
 311.235351562 401 298.046875 386 291.8828125 357 c 2
 271.477539062 261 l 1
 337.477539062 261 l 2
 433.477539062 261 517.887695312 230 497.907226562 136 c 0
 480.052734375 52 398 0 287 0 c 2
 159.212890625 1 l 2
 124.212890625 1 37.787109375 -1 37.787109375 -1 c 1
 36.212890625 1 l 1
 41.1015625 24 l 2
 42.376953125 30 46.0146484375 33 51.0146484375 33 c 2
 70.0146484375 33 l 2
 104.014648438 33 116.203125 48 122.3671875 77 c 2
EndSplineSet
EndChar

StartChar: afii10095
Encoding: 1101 1101 101
Width: 452
VWidth: 999
Flags: HW
HStem: -12 35<135.21 247.128> 180 49<160.832 296.342> 207 41<92.6331 188.46> 406 36<125.918 245.651>
VStem: 37 77<40.7447 108.21> 40 35<296.2 346.239> 297 111<121.734 199 229.057 318.451>
LayerCount: 2
Fore
SplineSet
346.100585938 231 m 1
 359.6171875 304 369.297851562 406 277.297851562 406 c 0
 196.297851562 406 164.245117188 354 137.279296875 293 c 1
 103.12890625 297 l 1
 118.481445312 341 128.708984375 375 142.399414062 430 c 1
 212.399414062 430 222.950195312 442 294.950195312 442 c 0
 417.950195312 442 479.206054688 335 455.825195312 225 c 0
 422.454101562 68 290.44921875 -12 184.44921875 -12 c 0
 101.44921875 -12 43.8017578125 32 54.8544921875 84 c 0
 57.830078125 98 77.0185546875 113 95.0185546875 113 c 0
 106.018554688 113 132.168945312 109 130.154296875 76 c 0
 128.927734375 42 155.888671875 23 197.888671875 23 c 0
 288.888671875 23 321.931640625 122 339.298828125 199 c 1
 317.172851562 189 290.259765625 180 266.259765625 180 c 0
 222.259765625 180 198.999023438 207 163.999023438 207 c 0
 151.999023438 207 140.936523438 202 132.936523438 202 c 0
 126.936523438 202 127.849609375 211 128.69921875 215 c 0
 131.887695312 230 180.713867188 248 223.713867188 248 c 0
 268.713867188 248 281.67578125 229 319.67578125 229 c 0
 329.67578125 229 337.887695312 230 346.100585938 231 c 1
EndSplineSet
EndChar

StartChar: afii10096
Encoding: 1102 1102 102
Width: 774
VWidth: 999
Flags: HW
HStem: -10 43<491.623 588.559> -1 34<29 91.6475 212.352 275> 402 34<29 91.6475 212.352 275> 403 41<472.16 567.482>
VStem: 97 110<36.1563 398.688> 200 119<196 240> 311.3 115.9<119.406 317.729> 624.8 115<118.762 320.282>
LayerCount: 2
Fore
SplineSet
173.095703125 358 m 2
 179.046875 386 172.447265625 402 139.447265625 402 c 2
 120.447265625 402 l 2
 115.447265625 402 113.084960938 405 114.1484375 410 c 2
 119.25 434 l 1
 121.674804688 436 l 1
 121.674804688 436 206.25 434 242.25 434 c 0
 281.25 434 367.674804688 436 367.674804688 436 c 1
 369.25 434 l 1
 364.1484375 410 l 2
 363.084960938 405 358.447265625 402 354.447265625 402 c 2
 335.447265625 402 l 2
 302.447265625 402 289.046875 386 283.095703125 358 c 2
 258.013671875 240 l 1
 366.813476562 240 l 1
 381.895507812 287.900390625 407.900390625 334.5 444.74609375 370 c 0
 491.895507812 415.400390625 556.775390625 444 635.575195312 444 c 0
 776.674804688 444 841.014648438 346.799804688 813.211914062 216 c 0
 801.373046875 160.299804688 770.418945312 92.2998046875 712.690429688 47 c 0
 665.768554688 10.2001953125 604.974609375 -10 538.07421875 -10 c 0
 414.07421875 -10 335.01953125 71.599609375 356.061523438 196 c 1
 248.661132812 196 l 1
 223.3671875 77 l 2
 217.203125 48 224.014648438 33 257.014648438 33 c 2
 276.014648438 33 l 2
 280.014648438 33 283.376953125 30 282.1015625 24 c 2
 277.212890625 1 l 1
 274.787109375 -1 l 1
 274.787109375 -1 189.212890625 1 150.212890625 1 c 0
 114.212890625 1 28.787109375 -1 28.787109375 -1 c 1
 27.212890625 1 l 1
 32.1015625 24 l 2
 33.376953125 30 37.0146484375 33 42.0146484375 33 c 2
 61.0146484375 33 l 2
 94.0146484375 33 107.203125 48 113.3671875 77 c 2
 173.095703125 358 l 2
611.447265625 402 m 0
 547.748046875 402 515.430664062 321 495.875 229 c 0
 480.146484375 155 484.401367188 32 562.301757812 32 c 0
 596.501953125 32 647.8828125 63.900390625 673.41015625 184 c 0
 702.530273438 321 676.047851562 402 611.447265625 402 c 0
EndSplineSet
EndChar

StartChar: afii10097
Encoding: 1103 1103 103
Width: 479
VWidth: 999
Flags: HW
HStem: -1 34<19 64.1167 231 284.833 389.366 450> 195 40<220.82 287> 204 31<163 174> 402 33<171.489 285.05 382.047 448>
VStem: 42 110<251.526 368.984> 287 92<38.896 195 235 399.272>
LayerCount: 2
Fore
SplineSet
336.951171875 235 m 1
 364.795898438 366 l 2
 371.59765625 398 365.447265625 402 326.447265625 402 c 0
 239.447265625 402 230.220703125 368 220.23046875 321 c 0
 209.602539062 271 212.951171875 235 268.951171875 235 c 2
 336.951171875 235 l 1
137.907226562 136 m 0
 162.622070312 177 188.0859375 198 217.361328125 204 c 1
 162.361328125 204 92.80078125 239 107.892578125 310 c 0
 123.622070312 384 224.461914062 435 298.461914062 435 c 2
 375.461914062 435 l 1
 435.25 434 l 1
 540.674804688 436 l 1
 542.25 434 l 1
 536.084960938 405 l 2
 535.66015625 403 534.447265625 402 531.447265625 402 c 2
 506.447265625 402 l 2
 481.447265625 402 462.53515625 393 458.071289062 372 c 2
 396.216796875 81 l 2
 390.690429688 55 406.014648438 33 425.014648438 33 c 2
 446.014648438 33 l 2
 454.014648438 33 455.313476562 25 455.1015625 24 c 2
 449.787109375 -1 l 1
 449.787109375 -1 384.212890625 1 341.212890625 1 c 0
 298.212890625 1 230.787109375 -1 230.787109375 -1 c 1
 236.526367188 26 l 2
 237.376953125 30 240.014648438 33 244.014648438 33 c 2
 258.014648438 33 l 2
 292.014648438 33 295.927734375 42 304.216796875 81 c 2
 328.448242188 195 l 1
 300.448242188 195 l 2
 261.448242188 195 226.8203125 145 192.854492188 84 c 1
 171.139648438 43 132 0 100 0 c 2
 18.787109375 -1 l 1
 16.212890625 1 l 1
 20.2509765625 20 l 2
 21.7392578125 27 27.951171875 28 31.951171875 28 c 2
 39.951171875 28 l 2
 68.951171875 28 115.830078125 98 137.907226562 136 c 0
EndSplineSet
EndChar

StartChar: uni04AE
Encoding: 1198 1198 104
Width: 541
Flags: HW
HStem: -1 36<154 228.839 358.336 435> 611 36<-9 41.811 186.001 236 379 429.999 514.645 584>
VStem: 232 123<36.304 280>
DStem2: 313 377 235 280 0.502568 -0.864537<-258.021 0> 313 377 353 292 0.468767 0.883322<0 253.301>
LayerCount: 2
Fore
SplineSet
247.94140625 75 m 2
 291.94140625 282 l 1
 294.515625 280 l 1
 258.920898438 376 223.5390625 473 187.944335938 569 c 0
 179.833007812 592 175.383789062 604 171.021484375 607 c 0
 167.447265625 609 161.872070312 611 154.872070312 611 c 2
 139.872070312 611 l 1
 131.084960938 612 111.72265625 615 113.209960938 622 c 2
 116.611328125 638 l 1
 128.524414062 647 l 1
 128.524414062 647 233.098632812 645 246.098632812 645 c 0
 252.098632812 645 373.524414062 647 373.524414062 647 c 1
 381.611328125 638 l 1
 378.422851562 623 l 2
 377.147460938 617 366.872070312 611 347.872070312 611 c 2
 318.872070312 611 l 2
 316.872070312 611 315.234375 608 313.958984375 602 c 0
 312.258789062 594 313.345703125 585 317.219726562 575 c 0
 346.278320312 500 364.500976562 454 393.133789062 377 c 1
 444.162109375 443 494.19140625 509 543.219726562 575 c 0
 551.55859375 586 556.470703125 595 557.958984375 602 c 0
 559.447265625 609 558.872070312 611 555.872070312 611 c 2
 525.872070312 611 l 1
 504.296875 613 501.360351562 618 502.209960938 622 c 2
 505.611328125 638 l 1
 516.524414062 647 l 1
 516.524414062 647 608.098632812 645 621.098632812 645 c 0
 629.098632812 645 721.524414062 647 721.524414062 647 c 1
 728.611328125 638 l 1
 725.422851562 623 l 2
 723.509765625 614 711.872070312 611 691.872070312 611 c 2
 670.872070312 611 l 2
 655.872070312 611 644.534179688 600 620.944335938 569 c 2
 415.06640625 292 l 1
 417.279296875 293 l 1
 370.94140625 75 l 2
 364.990234375 47 372.439453125 35 395.439453125 35 c 2
 421.439453125 35 l 2
 437.439453125 35 450.588867188 31 448.888671875 23 c 2
 445.700195312 8 l 1
 434.787109375 -1 l 1
 434.787109375 -1 334.212890625 1 296.212890625 1 c 0
 261.212890625 1 153.787109375 -1 153.787109375 -1 c 1
 146.700195312 8 l 1
 149.888671875 23 l 2
 151.588867188 31 163.439453125 35 181.439453125 35 c 2
 207.439453125 35 l 2
 231.439453125 35 242.627929688 50 247.94140625 75 c 2
EndSplineSet
EndChar

StartChar: uni04C0
Encoding: 1216 1216 105
Width: 317
VWidth: 999
Flags: HW
HStem: -2 34<36 104.724 240.184 308> 613 34<36 104.724 240.184 308>
VStem: 111 122<37.5094 607.491>
LayerCount: 2
Fore
SplineSet
237.166992188 523 m 2
 254.809570312 606 227.659179688 610 173.296875 613 c 1
 164.572265625 619 169.249023438 641 180.524414062 647 c 1
 220.311523438 646 294.098632812 645 334.098632812 645 c 0
 374.098632812 645 446.311523438 646 486.524414062 647 c 1
 495.249023438 641 490.572265625 619 479.296875 613 c 1
 423.659179688 610 394.809570312 606 377.166992188 523 c 2
 291.931640625 122 l 2
 274.290039062 39 301.439453125 35 355.801757812 32 c 1
 364.526367188 26 359.850585938 4 348.575195312 -2 c 1
 308.787109375 -1 237 0 197 0 c 0
 157 0 82.787109375 -1 42.5751953125 -2 c 1
 33.8505859375 4 38.5263671875 26 49.8017578125 32 c 1
 105.439453125 35 134.290039062 39 151.931640625 122 c 2
 237.166992188 523 l 2
EndSplineSet
EndChar

StartChar: uni04D0
Encoding: 1232 1232 106
Width: 740
VWidth: 999
Flags: HW
HStem: -2 33<3.625 68.0908 159.081 227.375 436.625 513.951 621.148 688.375> 241 42<241.019 440> 638 20<381.5 396.203> 698 31<313.585 404.415>
VStem: 234 69<735.873 804.004> 415 69<737.589 804.004>
DStem2: 106.983 102 155 79 0.390001 0.920814<-30.5131 181.817 227.512 466.368> 334 638 340 555 0.390001 0.920814<-561.337 -408.806 -359.549 -74.0876> 389 658 346 555 0.338836 -0.940845<82.3371 370.098 415.035 619.885>
LayerCount: 2
Fore
SplineSet
333.153320312 283 m 2
 485.153320312 283 l 1
 453.629882812 520 l 1
 446.729492188 520 l 1
 310.780273438 296.299804688 l 2
 304.791015625 286 311.153320312 283 333.153320312 283 c 2
181.791992188 79 m 2
 157.35546875 37.900390625 203.754882812 34.599609375 240.801757812 32 c 1
 245.526367188 26 240.850585938 4 233.575195312 -2 c 1
 196.787109375 -1 142 0 101 0 c 0
 62 0 43.787109375 -1 6.5751953125 -2 c 1
 1.8505859375 4 6.5263671875 26 13.8017578125 32 c 1
 57.939453125 35 89.3232421875 40.099609375 128.680664062 102 c 2
 454.309570312 614 l 1
 489.509765625 614 556.94921875 649 573.862304688 658 c 1
 658.280273438 86 l 2
 665.760742188 35.099609375 698.74609375 35.5 736.801757812 32 c 1
 741.526367188 26 736.850585938 4 729.575195312 -2 c 1
 692.787109375 -1 637 0 596 0 c 0
 557 0 461.787109375 -1 424.575195312 -2 c 1
 419.850585938 4 424.526367188 26 431.801757812 32 c 1
 480.124023438 35.400390625 519.588867188 31 514.303710938 72 c 2
 492.951171875 235 l 1
 302.951171875 235 l 2
 278.951171875 235 272.100585938 231 264.336914062 218 c 2
 181.791992188 79 l 2
647.731445312 775 m 0
 636.678710938 723 569.364257812 698 506.364257812 698 c 0
 440.364257812 698 387.465820312 722 398.518554688 774 c 0
 403.1953125 796 417.108398438 805 444.108398438 805 c 0
 465.108398438 805 471.70703125 789 468.518554688 774 c 0
 468.09375 772 466.03125 767 465.818359375 766 c 0
 461.567382812 746 480.954101562 729 513.954101562 729 c 0
 543.954101562 729 571.9296875 743 576.60546875 765 c 0
 576.818359375 766 577.306640625 773 577.518554688 774 c 0
 580.70703125 789 593.108398438 805 616.108398438 805 c 0
 642.108398438 805 651.982421875 795 647.731445312 775 c 0
EndSplineSet
LCarets2: 1 0 
EndChar

StartChar: uni04D1
Encoding: 1233 1233 107
Width: 506
VWidth: 999
Flags: HW
HStem: -10 41<139.654 240.143 343.315 429.949> 406 33<144.709 258.364> 503 31<171.971 246.548>
VStem: 36 83<50.144 160.39> 55 74<295.655 377.387> 88 73<540.553 619.612> 257 73<541.079 620.243> 293 78<68.9033 233 264.049 372.119>
DStem2: 201 243 214 212 0.971457 0.237216<-61.6983 87.0019>
LayerCount: 2
Fore
SplineSet
305.508789062 48.5 m 1
 299.203125 48 l 1
 260.67578125 22 195.874023438 -10 166.874023438 -10 c 0
 79.8740234375 -10 49.5263671875 26 64.193359375 95 c 0
 80.984375 174 160.749023438 203 273.163085938 236 c 2
 344.626953125 257 l 1
 371.622070312 384 340.447265625 402 298.447265625 402 c 0
 264.947265625 402 255.260742188 390.299804688 251.401367188 379.200195312 c 0
 245.423828125 361.900390625 248.875 345.200195312 246.068359375 332 c 0
 240.924804688 307.799804688 209.348632812 285.799804688 173.948242188 285.799804688 c 0
 134.348632812 285.799804688 126.903320312 307.700195312 132.982421875 336.299804688 c 0
 147.01171875 402.299804688 268.375 444 341.375 444 c 0
 423.375 444 506.2109375 415 475.602539062 271 c 1
 442.995117188 127 l 2
 432.579101562 78 434.752929688 60 456.752929688 60 c 0
 475.752929688 60 486.603515625 64 501.729492188 74 c 1
 511.603515625 64 516.328125 58 513.77734375 46 c 1
 469.337890625 11 426.174804688 -10 370.874023438 -10 c 0
 326.874023438 -10 303.700195312 8 305.508789062 48.5 c 1
336.336914062 218 m 1
 280.723632812 201 l 2
 205.114257812 177.900390625 195.266601562 147.099609375 187.380859375 110 c 0
 180.791992188 79 189.627929688 50 232.627929688 50 c 0
 250.627929688 50 279.028320312 66 308.280273438 86 c 1
 336.336914062 218 l 1
454.983398438 588 m 0
 443.29296875 533 378.278320312 500 314.278320312 500 c 0
 249.278320312 500 201.29296875 533 212.770507812 587 c 0
 216.596679688 605 235.78515625 620 258.78515625 620 c 0
 280.78515625 620 289.809570312 606 286.408203125 590 c 0
 285.983398438 588 284.345703125 585 283.708007812 582 c 0
 282.0703125 579 281.432617188 576 281.0078125 574 c 0
 276.331054688 552 291.8671875 531 321.8671875 531 c 0
 350.8671875 531 376.119140625 551 380.794921875 573 c 0
 381.432617188 576 382.0703125 579 381.708007812 582 c 0
 381.1328125 584 381.770507812 587 382.196289062 589 c 0
 385.809570312 606 404.78515625 620 423.78515625 620 c 0
 447.78515625 620 459.021484375 607 454.983398438 588 c 0
EndSplineSet
LCarets2: 1 0 
EndChar

StartChar: uni04D2
Encoding: 1234 1234 108
Width: 740
VWidth: 999
Flags: HW
HStem: -1 34<10 60.0229 142.897 211 414 482.841 622.594 692> 241 47<234.168 403> 638 20<348.5 364.5> 703 107<235.97 322.324 416.676 503.03>
VStem: 225 108<714.388 798.537> 406 108<714.388 798.537>
DStem2: 89 91 148 79 0.384126 0.923281<-23.1403 196.063 246.684 479.281> 399 627 320 514 0.352654 -0.935754<77.8806 318.631 368.607 561.264>
LayerCount: 2
Fore
SplineSet
580.692382812 756 m 0
 587.282226562 787 616.383789062 811 647.383789062 811 c 0
 677.383789062 811 697.282226562 787 690.692382812 756 c 0
 684.31640625 726 654.21484375 702 624.21484375 702 c 0
 593.21484375 702 574.31640625 726 580.692382812 756 c 0
394.692382812 756 m 0
 401.282226562 787 431.383789062 811 461.383789062 811 c 0
 492.383789062 811 511.282226562 787 504.692382812 756 c 0
 498.31640625 726 469.21484375 702 438.21484375 702 c 0
 408.21484375 702 388.31640625 726 394.692382812 756 c 0
333.153320312 283 m 2
 485.153320312 283 l 1
 453.629882812 520 l 1
 446.729492188 520 l 1
 310.780273438 296.299804688 l 2
 304.791015625 286 311.153320312 283 333.153320312 283 c 2
181.791992188 79 m 2
 157.35546875 37.900390625 203.754882812 34.599609375 240.801757812 32 c 1
 245.526367188 26 240.850585938 4 233.575195312 -2 c 1
 196.787109375 -1 142 0 101 0 c 0
 62 0 43.787109375 -1 6.5751953125 -2 c 1
 1.8505859375 4 6.5263671875 26 13.8017578125 32 c 1
 57.939453125 35 89.3232421875 40.099609375 128.680664062 102 c 2
 454.309570312 614 l 1
 489.509765625 614 556.94921875 649 573.862304688 658 c 1
 658.280273438 86 l 2
 665.760742188 35.099609375 698.74609375 35.5 736.801757812 32 c 1
 741.526367188 26 736.850585938 4 729.575195312 -2 c 1
 692.787109375 -1 637 0 596 0 c 0
 557 0 461.787109375 -1 424.575195312 -2 c 1
 419.850585938 4 424.526367188 26 431.801757812 32 c 1
 480.124023438 35.400390625 519.588867188 31 514.303710938 72 c 2
 492.951171875 235 l 1
 302.951171875 235 l 2
 278.951171875 235 272.100585938 231 264.336914062 218 c 2
 181.791992188 79 l 2
EndSplineSet
LCarets2: 1 0 
EndChar

StartChar: uni04D3
Encoding: 1235 1235 109
Width: 506
VWidth: 999
Flags: HW
HStem: -10 55<110.871 229.853 351 447.215> 406 38<148.426 256.61> 518 107<91.9699 178.324 272.676 359.03>
VStem: 36 105<56.7004 159.155> 48 93<295.994 379.736> 81 108<529.388 613.537> 262 108<529.388 613.537> 282 108<69.6589 219 257 374.929>
DStem2: 210 236 225 202 0.96 0.28<-70.2096 64.36>
LayerCount: 2
Fore
SplineSet
397.794921875 573 m 0
 404.383789062 604 433.485351562 628 464.485351562 628 c 0
 494.485351562 628 514.383789062 604 507.794921875 573 c 0
 501.41796875 543 471.31640625 519 441.31640625 519 c 0
 410.31640625 519 391.41796875 543 397.794921875 573 c 0
211.794921875 573 m 0
 218.383789062 604 248.485351562 628 278.485351562 628 c 0
 309.485351562 628 328.383789062 604 321.794921875 573 c 0
 315.41796875 543 286.31640625 519 255.31640625 519 c 0
 225.31640625 519 205.41796875 543 211.794921875 573 c 0
305.508789062 48.5 m 1
 299.203125 48 l 1
 260.67578125 22 195.874023438 -10 166.874023438 -10 c 0
 79.8740234375 -10 49.5263671875 26 64.193359375 95 c 0
 80.984375 174 160.749023438 203 273.163085938 236 c 2
 344.626953125 257 l 1
 371.622070312 384 340.447265625 402 298.447265625 402 c 0
 264.947265625 402 255.260742188 390.299804688 251.401367188 379.200195312 c 0
 245.423828125 361.900390625 248.875 345.200195312 246.068359375 332 c 0
 240.924804688 307.799804688 209.348632812 285.799804688 173.948242188 285.799804688 c 0
 134.348632812 285.799804688 126.903320312 307.700195312 132.982421875 336.299804688 c 0
 147.01171875 402.299804688 268.375 444 341.375 444 c 0
 423.375 444 506.2109375 415 475.602539062 271 c 1
 442.995117188 127 l 2
 432.579101562 78 434.752929688 60 456.752929688 60 c 0
 475.752929688 60 486.603515625 64 501.729492188 74 c 1
 511.603515625 64 516.328125 58 513.77734375 46 c 1
 469.337890625 11 426.174804688 -10 370.874023438 -10 c 0
 326.874023438 -10 303.700195312 8 305.508789062 48.5 c 1
336.336914062 218 m 1
 280.723632812 201 l 2
 205.114257812 177.900390625 195.266601562 147.099609375 187.380859375 110 c 0
 180.791992188 79 189.627929688 50 232.627929688 50 c 0
 250.627929688 50 279.028320312 66 308.280273438 86 c 1
 336.336914062 218 l 1
EndSplineSet
LCarets2: 1 0 
EndChar

StartChar: uni04D4
Encoding: 1236 1236 110
Width: 956
VWidth: 999
Flags: HW
HStem: -1 34<4 81.5469 161.374 218 362 442.155> 1 46<571.232 790.184> 266 39<291 449> 324 42<571 708.75> 428 20<730 762> 601 45<571.232 768.482> 613 33<296 356.281>
VStem: 449 122<47.4756 266 305 324 366 558.22> 719 36<252.814 316.565 373.435 437.232> 821 40<483.425 532.807> 846 44<116.362 171.591>
DStem2: 95 70 165 68 0.465821 0.884879<8.60003 255.421 299.247 590.236>
LayerCount: 2
Fore
SplineSet
133.680664062 102 m 2
 483.45703125 562 l 2
 510.9296875 598.099609375 488.296875 613 442.296875 613 c 0
 436.296875 613 434.934570312 616 435.78515625 620 c 2
 441.098632812 645 l 1
 443.524414062 647 l 1
 650.098632812 645 l 1
 948.098632812 645 l 2
 972.098632812 645 980.311523438 646 997.94921875 649 c 0
 1000.94921875 649 1001.73632812 648 1001.31152344 646 c 0
 1001.61132812 638 986.206054688 542 982.491210938 501 c 1
 971.69140625 496.299804688 950.4453125 494.200195312 938.427734375 496 c 1
 931.094726562 565 918.171875 603 843.171875 603 c 2
 758.171875 603 l 2
 734.171875 603 711.857421875 578 706.755859375 554 c 2
 667.0078125 367 l 1
 748.0078125 367 l 2
 815.0078125 367 837.49609375 374 852.186523438 429 c 1
 859.461914062 435 890.461914062 435 895.186523438 429 c 1
 887.810546875 399 882.133789062 377 874.907226562 343 c 0
 867.6796875 309 864.641601562 290 858.202148438 255 c 1
 850.926757812 249 819.926757812 249 815.202148438 255 c 1
 821.766601562 300 806.380859375 317 737.380859375 317 c 2
 656.380859375 317 l 1
 608.129882812 90 l 2
 602.390625 63 616.927734375 42 638.927734375 42 c 2
 739.927734375 42 l 2
 815.927734375 42 872.830078125 98 908.134765625 170 c 1
 921.915039062 173.200195312 942.947265625 171 952.072265625 165 c 1
 933.231445312 114 914.203125 48 889.575195312 -2 c 1
 889.575195312 -2 800 0 752 0 c 2
 516 0 l 1
 516 0 410.787109375 -1 361.575195312 -2 c 1
 356.850585938 4 361.526367188 26 368.801757812 32 c 1
 439.439453125 35 457.290039062 39 474.931640625 122 c 2
 505.540039062 266 l 1
 327.540039062 266 l 1
 186.791992188 79 l 2
 157.40234375 40 208.754882812 34.599609375 245.801757812 32 c 1
 250.526367188 26 245.850585938 4 238.575195312 -2 c 1
 201.787109375 -1 147 0 106 0 c 0
 67 0 48.787109375 -1 11.5751953125 -2 c 1
 6.8505859375 4 11.5263671875 26 18.8017578125 32 c 1
 62.939453125 35 89.552734375 44 133.680664062 102 c 2
364.16796875 316 m 1
 516.16796875 316 l 1
 564.84375 545 l 2
 570.370117188 571 559.958007812 578 536.055664062 546 c 2
 364.16796875 316 l 1
EndSplineSet
EndChar

